%TF.GenerationSoftware,KiCad,Pcbnew,(6.0.10)*%
%TF.CreationDate,2023-02-28T00:06:53+13:00*%
%TF.ProjectId,video,76696465-6f2e-46b6-9963-61645f706362,rev?*%
%TF.SameCoordinates,Original*%
%TF.FileFunction,Copper,L2,Bot*%
%TF.FilePolarity,Positive*%
%FSLAX46Y46*%
G04 Gerber Fmt 4.6, Leading zero omitted, Abs format (unit mm)*
G04 Created by KiCad (PCBNEW (6.0.10)) date 2023-02-28 00:06:53*
%MOMM*%
%LPD*%
G01*
G04 APERTURE LIST*
%TA.AperFunction,ComponentPad*%
%ADD10C,1.600000*%
%TD*%
%TA.AperFunction,ComponentPad*%
%ADD11R,1.700000X1.700000*%
%TD*%
%TA.AperFunction,ComponentPad*%
%ADD12O,1.700000X1.700000*%
%TD*%
%TA.AperFunction,ComponentPad*%
%ADD13O,1.600000X1.600000*%
%TD*%
%TA.AperFunction,ComponentPad*%
%ADD14R,1.600000X1.600000*%
%TD*%
%TA.AperFunction,ComponentPad*%
%ADD15R,1.300000X1.300000*%
%TD*%
%TA.AperFunction,ComponentPad*%
%ADD16C,1.300000*%
%TD*%
%TA.AperFunction,ComponentPad*%
%ADD17C,2.340000*%
%TD*%
%TA.AperFunction,ComponentPad*%
%ADD18O,4.200000X2.100000*%
%TD*%
%TA.AperFunction,ComponentPad*%
%ADD19O,1.800000X3.600000*%
%TD*%
%TA.AperFunction,Conductor*%
%ADD20C,0.250000*%
%TD*%
G04 APERTURE END LIST*
D10*
%TO.P,C4,1*%
%TO.N,COMPOSITE*%
X56438800Y-92608400D03*
%TO.P,C4,2*%
%TO.N,Net-(C4-Pad2)*%
X56438800Y-95108400D03*
%TD*%
D11*
%TO.P,J2,1,Pin_1*%
%TO.N,+5V*%
X90170000Y-106680000D03*
D12*
%TO.P,J2,2,Pin_2*%
%TO.N,GND*%
X87630000Y-106680000D03*
%TO.P,J2,3,Pin_3*%
%TO.N,VIDEO*%
X85090000Y-106680000D03*
%TO.P,J2,4,Pin_4*%
%TO.N,H_SYNC*%
X82550000Y-106680000D03*
%TO.P,J2,5,Pin_5*%
%TO.N,V_SYNC*%
X80010000Y-106680000D03*
%TD*%
D10*
%TO.P,C5,1*%
%TO.N,COMPOSITE*%
X58636800Y-92601400D03*
%TO.P,C5,2*%
%TO.N,Net-(C4-Pad2)*%
X58636800Y-95101400D03*
%TD*%
%TO.P,R8,1*%
%TO.N,Net-(C3-Pad1)*%
X64058800Y-97942400D03*
D13*
%TO.P,R8,2*%
%TO.N,Net-(C4-Pad2)*%
X56438800Y-97942400D03*
%TD*%
D10*
%TO.P,R12,1*%
%TO.N,GND*%
X92319000Y-92080000D03*
D13*
%TO.P,R12,2*%
%TO.N,Net-(R12-Pad2)*%
X99939000Y-92080000D03*
%TD*%
D14*
%TO.P,U1,1*%
%TO.N,V_SYNC*%
X81153000Y-83312000D03*
D13*
%TO.P,U1,2*%
%TO.N,Net-(R2-Pad1)*%
X81153000Y-85852000D03*
%TO.P,U1,3*%
%TO.N,H_SYNC*%
X81153000Y-88392000D03*
%TO.P,U1,4*%
%TO.N,Net-(R2-Pad1)*%
X81153000Y-90932000D03*
%TO.P,U1,5*%
%TO.N,VIDEO*%
X81153000Y-93472000D03*
%TO.P,U1,6*%
%TO.N,Net-(C1-Pad1)*%
X81153000Y-96012000D03*
%TO.P,U1,7,GND*%
%TO.N,GND*%
X81153000Y-98552000D03*
%TO.P,U1,8*%
%TO.N,Net-(R5-Pad1)*%
X88773000Y-98552000D03*
%TO.P,U1,9*%
%TO.N,Net-(C1-Pad2)*%
X88773000Y-96012000D03*
%TO.P,U1,10*%
%TO.N,Net-(R7-Pad1)*%
X88773000Y-93472000D03*
%TO.P,U1,11*%
%TO.N,Net-(R5-Pad1)*%
X88773000Y-90932000D03*
%TO.P,U1,12*%
%TO.N,Net-(R9-Pad1)*%
X88773000Y-88392000D03*
%TO.P,U1,13*%
%TO.N,Net-(R7-Pad1)*%
X88773000Y-85852000D03*
%TO.P,U1,14,VCC*%
%TO.N,+5V*%
X88773000Y-83312000D03*
%TD*%
D10*
%TO.P,R9,1*%
%TO.N,Net-(R9-Pad1)*%
X92319000Y-83317000D03*
D13*
%TO.P,R9,2*%
%TO.N,+5V*%
X99939000Y-83317000D03*
%TD*%
D10*
%TO.P,R7,1*%
%TO.N,Net-(R7-Pad1)*%
X92319000Y-86365000D03*
D13*
%TO.P,R7,2*%
%TO.N,+5V*%
X99939000Y-86365000D03*
%TD*%
D15*
%TO.P,Q1,1,E*%
%TO.N,Net-(C3-Pad1)*%
X75917800Y-89383000D03*
D16*
%TO.P,Q1,2,B*%
%TO.N,B_VIDEO*%
X77187800Y-90663000D03*
%TO.P,Q1,3,C*%
%TO.N,+5V*%
X75917800Y-91923000D03*
%TD*%
D10*
%TO.P,C2,1*%
%TO.N,Net-(C2-Pad1)*%
X69967000Y-88721800D03*
%TO.P,C2,2*%
%TO.N,B_VIDEO*%
X69967000Y-91221800D03*
%TD*%
D14*
%TO.P,D1,1,K*%
%TO.N,B_VIDEO*%
X67477800Y-90733800D03*
D13*
%TO.P,D1,2,A*%
%TO.N,Net-(C2-Pad1)*%
X67477800Y-83113800D03*
%TD*%
D10*
%TO.P,R4,1*%
%TO.N,+5V*%
X77587000Y-86111000D03*
D13*
%TO.P,R4,2*%
%TO.N,Net-(C2-Pad1)*%
X69967000Y-86111000D03*
%TD*%
D10*
%TO.P,R3,1*%
%TO.N,Net-(C1-Pad2)*%
X92319000Y-95509000D03*
D13*
%TO.P,R3,2*%
%TO.N,+5V*%
X99939000Y-95509000D03*
%TD*%
D10*
%TO.P,R1,1*%
%TO.N,+5V*%
X70094000Y-98684000D03*
D13*
%TO.P,R1,2*%
%TO.N,Net-(C1-Pad1)*%
X77714000Y-98684000D03*
%TD*%
D10*
%TO.P,R5,1*%
%TO.N,Net-(R5-Pad1)*%
X92319000Y-98557000D03*
D13*
%TO.P,R5,2*%
%TO.N,+5V*%
X99939000Y-98557000D03*
%TD*%
D17*
%TO.P,RV2,1,1*%
%TO.N,Net-(R11-Pad1)*%
X103077000Y-100440000D03*
%TO.P,RV2,2,2*%
%TO.N,B_VIDEO*%
X113077000Y-97940000D03*
%TO.P,RV2,3,3*%
%TO.N,Net-(R12-Pad2)*%
X103077000Y-95440000D03*
%TD*%
D10*
%TO.P,R6,1*%
%TO.N,GND*%
X67223800Y-100741400D03*
D13*
%TO.P,R6,2*%
%TO.N,Net-(C3-Pad1)*%
X67223800Y-93121400D03*
%TD*%
D18*
%TO.P,J1,1*%
%TO.N,COMPOSITE*%
X60622500Y-85030000D03*
D19*
%TO.P,J1,2*%
%TO.N,unconnected-(J1-Pad2)*%
X64372500Y-88730000D03*
%TO.P,J1,3*%
%TO.N,unconnected-(J1-Pad3)*%
X56872500Y-88730000D03*
%TD*%
D10*
%TO.P,C3,1*%
%TO.N,Net-(C3-Pad1)*%
X60795800Y-95101400D03*
%TO.P,C3,2*%
%TO.N,COMPOSITE*%
X60795800Y-92601400D03*
%TD*%
%TO.P,R11,1*%
%TO.N,Net-(R11-Pad1)*%
X99939000Y-101605000D03*
D13*
%TO.P,R11,2*%
%TO.N,+5V*%
X92319000Y-101605000D03*
%TD*%
D10*
%TO.P,R10,1*%
%TO.N,Net-(R10-Pad1)*%
X70068600Y-95610600D03*
D13*
%TO.P,R10,2*%
%TO.N,B_VIDEO*%
X77688600Y-95610600D03*
%TD*%
D10*
%TO.P,R2,1*%
%TO.N,Net-(R2-Pad1)*%
X77587000Y-83063000D03*
D13*
%TO.P,R2,2*%
%TO.N,Net-(C2-Pad1)*%
X69967000Y-83063000D03*
%TD*%
D10*
%TO.P,C1,1*%
%TO.N,Net-(C1-Pad1)*%
X83957000Y-101351000D03*
%TO.P,C1,2*%
%TO.N,Net-(C1-Pad2)*%
X86457000Y-101351000D03*
%TD*%
D17*
%TO.P,RV1,1,1*%
%TO.N,Net-(R9-Pad1)*%
X102950000Y-89264000D03*
%TO.P,RV1,2,2*%
%TO.N,Net-(R10-Pad1)*%
X112950000Y-86764000D03*
%TO.P,RV1,3,3*%
%TO.N,unconnected-(RV1-Pad3)*%
X102950000Y-84264000D03*
%TD*%
D20*
%TO.N,Net-(C1-Pad2)*%
X86457000Y-101351000D02*
X86457000Y-98328000D01*
X86457000Y-98328000D02*
X88773000Y-96012000D01*
%TO.N,Net-(C2-Pad1)*%
X69967000Y-83063000D02*
X69967000Y-86111000D01*
X69967000Y-86111000D02*
X69967000Y-88721800D01*
%TO.N,B_VIDEO*%
X68199000Y-98379991D02*
X69641009Y-99822000D01*
X72532000Y-90663000D02*
X68199000Y-94996000D01*
X68199000Y-94996000D02*
X68199000Y-98379991D01*
X73477200Y-99822000D02*
X77688600Y-95610600D01*
X69641009Y-99822000D02*
X73477200Y-99822000D01*
X77187800Y-90663000D02*
X72532000Y-90663000D01*
%TO.N,Net-(C3-Pad1)*%
X60795800Y-95101400D02*
X63636800Y-97942400D01*
X67223800Y-94777400D02*
X64058800Y-97942400D01*
X67223800Y-93121400D02*
X67223800Y-94777400D01*
X63636800Y-97942400D02*
X64058800Y-97942400D01*
%TO.N,COMPOSITE*%
X60622500Y-92428100D02*
X60795800Y-92601400D01*
X60622500Y-85030000D02*
X60622500Y-92428100D01*
%TO.N,Net-(C4-Pad2)*%
X56438800Y-95108400D02*
X56438800Y-97942400D01*
%TO.N,+5V*%
X70094000Y-98684000D02*
X68943600Y-97533600D01*
X98814000Y-87490000D02*
X98814000Y-94384000D01*
X92319000Y-101605000D02*
X92319000Y-104531000D01*
X78386999Y-90904001D02*
X77368000Y-91923000D01*
X92319000Y-104531000D02*
X90170000Y-106680000D01*
X99939000Y-98557000D02*
X99817000Y-98557000D01*
X99939000Y-86365000D02*
X98814000Y-87490000D01*
X98814000Y-97544000D02*
X99827000Y-98557000D01*
X98814000Y-94384000D02*
X98814000Y-97544000D01*
X77587000Y-86111000D02*
X78386999Y-86910999D01*
X72161000Y-91923000D02*
X75917800Y-91923000D01*
X68943600Y-97533600D02*
X68943600Y-95140400D01*
X77368000Y-91923000D02*
X75917800Y-91923000D01*
X99827000Y-98557000D02*
X99939000Y-98557000D01*
X68943600Y-95140400D02*
X72161000Y-91923000D01*
X78386999Y-86910999D02*
X78386999Y-90904001D01*
X99939000Y-83317000D02*
X99939000Y-86365000D01*
X96769000Y-101605000D02*
X92319000Y-101605000D01*
X98814000Y-94384000D02*
X99939000Y-95509000D01*
X99817000Y-98557000D02*
X96769000Y-101605000D01*
%TO.N,Net-(R2-Pad1)*%
X79248000Y-89789000D02*
X80391000Y-90932000D01*
X80391000Y-90932000D02*
X81153000Y-90932000D01*
X81153000Y-85852000D02*
X80264000Y-85852000D01*
X80264000Y-85852000D02*
X79248000Y-86868000D01*
X79248000Y-86868000D02*
X79248000Y-89789000D01*
%TO.N,Net-(R5-Pad1)*%
X89898000Y-92057000D02*
X88773000Y-90932000D01*
X88773000Y-98552000D02*
X89898000Y-97427000D01*
X89898000Y-97427000D02*
X89898000Y-92057000D01*
%TO.N,GND*%
X78835000Y-107166701D02*
X79523299Y-107855000D01*
X81153000Y-98552000D02*
X81153000Y-103875299D01*
X78835000Y-106193299D02*
X78835000Y-107166701D01*
X84588600Y-105505000D02*
X86455000Y-105505000D01*
X83820000Y-106273600D02*
X84588600Y-105505000D01*
X83820000Y-107188000D02*
X83820000Y-106273600D01*
X83153000Y-107855000D02*
X83820000Y-107188000D01*
X86455000Y-105505000D02*
X87630000Y-106680000D01*
X79523299Y-107855000D02*
X83153000Y-107855000D01*
X81153000Y-103875299D02*
X78835000Y-106193299D01*
%TO.N,Net-(R7-Pad1)*%
X87630000Y-92329000D02*
X87630000Y-86868000D01*
X88646000Y-85852000D02*
X88773000Y-85852000D01*
X88773000Y-93472000D02*
X87630000Y-92329000D01*
X87630000Y-86868000D02*
X88646000Y-85852000D01*
%TO.N,Net-(R9-Pad1)*%
X92319000Y-84211000D02*
X92319000Y-83317000D01*
X88773000Y-88392000D02*
X88773000Y-87757000D01*
X88773000Y-87757000D02*
X92319000Y-84211000D01*
%TO.N,V_SYNC*%
X80518000Y-89789000D02*
X81788000Y-89789000D01*
X82278000Y-84437000D02*
X82278000Y-86607991D01*
X81153000Y-83312000D02*
X82278000Y-84437000D01*
X81763991Y-87122000D02*
X80264000Y-87122000D01*
X80264000Y-106680000D02*
X80010000Y-106680000D01*
X79756000Y-89027000D02*
X80518000Y-89789000D01*
X80264000Y-87122000D02*
X79756000Y-87630000D01*
X81788000Y-89789000D02*
X82278000Y-90279000D01*
X82278000Y-86607991D02*
X81763991Y-87122000D01*
X82278000Y-90279000D02*
X82278000Y-104412000D01*
X79756000Y-87630000D02*
X79756000Y-89027000D01*
X82278000Y-104412000D02*
X80010000Y-106680000D01*
%TO.N,H_SYNC*%
X82832000Y-106398000D02*
X82550000Y-106680000D01*
X82296000Y-88392000D02*
X82832000Y-88928000D01*
X81153000Y-88392000D02*
X82296000Y-88392000D01*
X82832000Y-88928000D02*
X82832000Y-106398000D01*
%TO.N,VIDEO*%
X78994000Y-108839000D02*
X84201000Y-108839000D01*
X77597000Y-105410000D02*
X77597000Y-107442000D01*
X77597000Y-107442000D02*
X78994000Y-108839000D01*
X81153000Y-93472000D02*
X79883000Y-94742000D01*
X79883000Y-94742000D02*
X79883000Y-103124000D01*
X85090000Y-107950000D02*
X85090000Y-106680000D01*
X84201000Y-108839000D02*
X85090000Y-107950000D01*
X79883000Y-103124000D02*
X77597000Y-105410000D01*
%TD*%
%TA.AperFunction,Conductor*%
%TO.N,GND*%
G36*
X66757724Y-81808502D02*
G01*
X66804217Y-81862158D01*
X66814321Y-81932432D01*
X66784827Y-81997012D01*
X66761874Y-82017713D01*
X66638011Y-82104443D01*
X66638008Y-82104445D01*
X66633500Y-82107602D01*
X66471602Y-82269500D01*
X66340277Y-82457051D01*
X66337954Y-82462033D01*
X66337951Y-82462038D01*
X66247855Y-82655251D01*
X66243516Y-82664557D01*
X66242094Y-82669865D01*
X66242093Y-82669867D01*
X66185681Y-82880398D01*
X66184257Y-82885713D01*
X66164302Y-83113800D01*
X66184257Y-83341887D01*
X66185681Y-83347200D01*
X66185681Y-83347202D01*
X66238705Y-83545087D01*
X66243516Y-83563043D01*
X66245839Y-83568024D01*
X66245839Y-83568025D01*
X66337951Y-83765562D01*
X66337952Y-83765563D01*
X66340277Y-83770549D01*
X66404602Y-83862414D01*
X66464363Y-83947761D01*
X66471602Y-83958100D01*
X66633500Y-84119998D01*
X66638008Y-84123155D01*
X66638011Y-84123157D01*
X66658708Y-84137649D01*
X66821051Y-84251323D01*
X66826033Y-84253646D01*
X66826038Y-84253649D01*
X66966831Y-84319301D01*
X67028557Y-84348084D01*
X67033865Y-84349506D01*
X67033867Y-84349507D01*
X67244398Y-84405919D01*
X67244400Y-84405919D01*
X67249713Y-84407343D01*
X67477800Y-84427298D01*
X67705887Y-84407343D01*
X67711200Y-84405919D01*
X67711202Y-84405919D01*
X67921733Y-84349507D01*
X67921735Y-84349506D01*
X67927043Y-84348084D01*
X67988769Y-84319301D01*
X68129562Y-84253649D01*
X68129567Y-84253646D01*
X68134549Y-84251323D01*
X68296892Y-84137649D01*
X68317589Y-84123157D01*
X68317592Y-84123155D01*
X68322100Y-84119998D01*
X68483998Y-83958100D01*
X68491238Y-83947761D01*
X68550998Y-83862414D01*
X68615323Y-83770549D01*
X68622917Y-83754264D01*
X68669833Y-83700979D01*
X68738110Y-83681517D01*
X68806070Y-83702058D01*
X68840325Y-83735242D01*
X68946953Y-83887521D01*
X68960802Y-83907300D01*
X69122700Y-84069198D01*
X69127208Y-84072355D01*
X69127211Y-84072357D01*
X69279771Y-84179181D01*
X69324099Y-84234638D01*
X69333500Y-84282394D01*
X69333500Y-84891606D01*
X69313498Y-84959727D01*
X69279771Y-84994819D01*
X69127211Y-85101643D01*
X69127208Y-85101645D01*
X69122700Y-85104802D01*
X68960802Y-85266700D01*
X68957645Y-85271208D01*
X68957643Y-85271211D01*
X68920013Y-85324952D01*
X68829477Y-85454251D01*
X68827154Y-85459233D01*
X68827151Y-85459238D01*
X68735039Y-85656775D01*
X68732716Y-85661757D01*
X68731294Y-85667065D01*
X68731293Y-85667067D01*
X68680482Y-85856694D01*
X68673457Y-85882913D01*
X68653502Y-86111000D01*
X68673457Y-86339087D01*
X68674881Y-86344400D01*
X68674881Y-86344402D01*
X68730034Y-86550232D01*
X68732716Y-86560243D01*
X68735039Y-86565224D01*
X68735039Y-86565225D01*
X68827151Y-86762762D01*
X68827154Y-86762767D01*
X68829477Y-86767749D01*
X68891156Y-86855835D01*
X68949597Y-86939297D01*
X68960802Y-86955300D01*
X69122700Y-87117198D01*
X69127208Y-87120355D01*
X69127211Y-87120357D01*
X69279771Y-87227181D01*
X69324099Y-87282638D01*
X69333500Y-87330394D01*
X69333500Y-87502406D01*
X69313498Y-87570527D01*
X69279771Y-87605619D01*
X69127211Y-87712443D01*
X69127208Y-87712445D01*
X69122700Y-87715602D01*
X68960802Y-87877500D01*
X68957645Y-87882008D01*
X68957643Y-87882011D01*
X68925006Y-87928622D01*
X68829477Y-88065051D01*
X68827154Y-88070033D01*
X68827151Y-88070038D01*
X68739099Y-88258868D01*
X68732716Y-88272557D01*
X68731294Y-88277865D01*
X68731293Y-88277867D01*
X68675445Y-88486295D01*
X68673457Y-88493713D01*
X68653502Y-88721800D01*
X68673457Y-88949887D01*
X68674881Y-88955200D01*
X68674881Y-88955202D01*
X68679306Y-88971714D01*
X68732716Y-89171043D01*
X68735039Y-89176024D01*
X68735039Y-89176025D01*
X68827151Y-89373562D01*
X68827154Y-89373567D01*
X68829477Y-89378549D01*
X68889632Y-89464459D01*
X68947992Y-89547805D01*
X68960802Y-89566100D01*
X69122700Y-89727998D01*
X69127208Y-89731155D01*
X69127211Y-89731157D01*
X69191532Y-89776195D01*
X69310251Y-89859323D01*
X69315233Y-89861646D01*
X69317027Y-89862682D01*
X69366019Y-89914066D01*
X69379454Y-89983779D01*
X69353066Y-90049690D01*
X69317027Y-90080918D01*
X69315233Y-90081954D01*
X69310251Y-90084277D01*
X69245770Y-90129427D01*
X69127211Y-90212443D01*
X69127208Y-90212445D01*
X69122700Y-90215602D01*
X69001395Y-90336907D01*
X68939083Y-90370933D01*
X68868268Y-90365868D01*
X68811432Y-90323321D01*
X68786621Y-90256801D01*
X68786300Y-90247812D01*
X68786300Y-89885666D01*
X68779545Y-89823484D01*
X68728415Y-89687095D01*
X68641061Y-89570539D01*
X68524505Y-89483185D01*
X68388116Y-89432055D01*
X68325934Y-89425300D01*
X66629666Y-89425300D01*
X66567484Y-89432055D01*
X66431095Y-89483185D01*
X66314539Y-89570539D01*
X66227185Y-89687095D01*
X66176055Y-89823484D01*
X66169300Y-89885666D01*
X66169300Y-91581934D01*
X66176055Y-91644116D01*
X66227185Y-91780505D01*
X66314539Y-91897061D01*
X66321719Y-91902442D01*
X66360068Y-91931183D01*
X66402583Y-91988042D01*
X66407609Y-92058861D01*
X66373598Y-92121104D01*
X66217602Y-92277100D01*
X66214445Y-92281608D01*
X66214443Y-92281611D01*
X66174288Y-92338958D01*
X66086277Y-92464651D01*
X66083954Y-92469633D01*
X66083951Y-92469638D01*
X66008143Y-92632211D01*
X65989516Y-92672157D01*
X65988094Y-92677465D01*
X65988093Y-92677467D01*
X65944059Y-92841802D01*
X65930257Y-92893313D01*
X65910302Y-93121400D01*
X65930257Y-93349487D01*
X65931681Y-93354800D01*
X65931681Y-93354802D01*
X65964552Y-93477475D01*
X65989516Y-93570643D01*
X65991839Y-93575624D01*
X65991839Y-93575625D01*
X66083951Y-93773162D01*
X66083954Y-93773167D01*
X66086277Y-93778149D01*
X66147335Y-93865348D01*
X66213974Y-93960518D01*
X66217602Y-93965700D01*
X66379500Y-94127598D01*
X66384008Y-94130755D01*
X66384011Y-94130757D01*
X66536571Y-94237581D01*
X66580899Y-94293038D01*
X66590300Y-94340794D01*
X66590300Y-94462806D01*
X66570298Y-94530927D01*
X66553395Y-94551901D01*
X64472048Y-96633248D01*
X64409736Y-96667274D01*
X64350341Y-96665859D01*
X64292209Y-96650282D01*
X64292198Y-96650280D01*
X64286887Y-96648857D01*
X64058800Y-96628902D01*
X63830713Y-96648857D01*
X63825400Y-96650281D01*
X63825398Y-96650281D01*
X63614867Y-96706693D01*
X63614865Y-96706694D01*
X63609557Y-96708116D01*
X63604575Y-96710439D01*
X63604570Y-96710441D01*
X63477324Y-96769776D01*
X63407133Y-96780437D01*
X63342320Y-96751457D01*
X63334980Y-96744676D01*
X62104952Y-95514648D01*
X62070926Y-95452336D01*
X62072341Y-95392941D01*
X62087918Y-95334809D01*
X62087920Y-95334798D01*
X62089343Y-95329487D01*
X62109298Y-95101400D01*
X62089343Y-94873313D01*
X62084756Y-94856195D01*
X62031507Y-94657467D01*
X62031506Y-94657465D01*
X62030084Y-94652157D01*
X62014690Y-94619144D01*
X61935649Y-94449638D01*
X61935646Y-94449633D01*
X61933323Y-94444651D01*
X61844006Y-94317093D01*
X61805157Y-94261611D01*
X61805155Y-94261608D01*
X61801998Y-94257100D01*
X61640100Y-94095202D01*
X61635592Y-94092045D01*
X61635589Y-94092043D01*
X61531924Y-94019456D01*
X61452549Y-93963877D01*
X61447567Y-93961554D01*
X61445773Y-93960518D01*
X61396781Y-93909134D01*
X61383346Y-93839421D01*
X61409734Y-93773510D01*
X61445773Y-93742282D01*
X61447567Y-93741246D01*
X61452549Y-93738923D01*
X61531924Y-93683344D01*
X61635589Y-93610757D01*
X61635592Y-93610755D01*
X61640100Y-93607598D01*
X61801998Y-93445700D01*
X61811219Y-93432532D01*
X61875300Y-93341014D01*
X61933323Y-93258149D01*
X61935646Y-93253167D01*
X61935649Y-93253162D01*
X62027761Y-93055625D01*
X62027761Y-93055624D01*
X62030084Y-93050643D01*
X62047439Y-92985876D01*
X62087919Y-92834802D01*
X62087919Y-92834800D01*
X62089343Y-92829487D01*
X62109298Y-92601400D01*
X62089343Y-92373313D01*
X62086218Y-92361649D01*
X62031507Y-92157467D01*
X62031506Y-92157465D01*
X62030084Y-92152157D01*
X62000904Y-92089580D01*
X61935649Y-91949638D01*
X61935646Y-91949633D01*
X61933323Y-91944651D01*
X61859898Y-91839789D01*
X61805157Y-91761611D01*
X61805155Y-91761608D01*
X61801998Y-91757100D01*
X61640100Y-91595202D01*
X61635592Y-91592045D01*
X61635589Y-91592043D01*
X61512147Y-91505608D01*
X61452549Y-91463877D01*
X61447567Y-91461554D01*
X61447562Y-91461551D01*
X61356297Y-91418994D01*
X61328749Y-91406149D01*
X61275465Y-91359232D01*
X61256000Y-91291954D01*
X61256000Y-89690012D01*
X62964000Y-89690012D01*
X62979117Y-89868175D01*
X62980457Y-89873339D01*
X62980458Y-89873343D01*
X63037266Y-90092211D01*
X63039168Y-90099540D01*
X63041360Y-90104406D01*
X63120567Y-90280238D01*
X63137343Y-90317480D01*
X63270834Y-90515762D01*
X63435826Y-90688718D01*
X63627600Y-90831402D01*
X63632351Y-90833818D01*
X63632355Y-90833820D01*
X63825240Y-90931887D01*
X63840672Y-90939733D01*
X63954812Y-90975174D01*
X64063849Y-91009032D01*
X64063855Y-91009033D01*
X64068952Y-91010616D01*
X64191487Y-91026857D01*
X64300627Y-91041323D01*
X64300631Y-91041323D01*
X64305911Y-91042023D01*
X64311240Y-91041823D01*
X64311241Y-91041823D01*
X64409009Y-91038152D01*
X64544774Y-91033055D01*
X64631684Y-91014819D01*
X64773484Y-90985067D01*
X64773487Y-90985066D01*
X64778711Y-90983970D01*
X65001033Y-90896171D01*
X65205383Y-90772168D01*
X65210782Y-90767483D01*
X65381886Y-90619007D01*
X65381888Y-90619005D01*
X65385919Y-90615507D01*
X65389302Y-90611381D01*
X65389306Y-90611377D01*
X65534093Y-90434795D01*
X65537478Y-90430667D01*
X65627202Y-90273046D01*
X65653084Y-90227577D01*
X65655727Y-90222934D01*
X65737284Y-89998247D01*
X65738234Y-89992995D01*
X65779080Y-89767115D01*
X65779081Y-89767107D01*
X65779818Y-89763031D01*
X65781000Y-89737968D01*
X65781000Y-87769988D01*
X65765883Y-87591825D01*
X65764542Y-87586657D01*
X65707173Y-87365625D01*
X65707171Y-87365620D01*
X65705832Y-87360460D01*
X65667138Y-87274562D01*
X65609847Y-87147381D01*
X65609846Y-87147378D01*
X65607657Y-87142520D01*
X65474166Y-86944238D01*
X65309174Y-86771282D01*
X65304426Y-86767749D01*
X65174748Y-86671266D01*
X65117400Y-86628598D01*
X65112649Y-86626182D01*
X65112645Y-86626180D01*
X64909086Y-86522686D01*
X64909085Y-86522686D01*
X64904328Y-86520267D01*
X64768184Y-86477993D01*
X64681151Y-86450968D01*
X64681145Y-86450967D01*
X64676048Y-86449384D01*
X64548617Y-86432494D01*
X64444373Y-86418677D01*
X64444369Y-86418677D01*
X64439089Y-86417977D01*
X64433760Y-86418177D01*
X64433759Y-86418177D01*
X64335991Y-86421848D01*
X64200226Y-86426945D01*
X64113316Y-86445181D01*
X63971516Y-86474933D01*
X63971513Y-86474934D01*
X63966289Y-86476030D01*
X63743967Y-86563829D01*
X63539617Y-86687832D01*
X63535587Y-86691329D01*
X63383351Y-86823433D01*
X63359081Y-86844493D01*
X63355698Y-86848619D01*
X63355694Y-86848623D01*
X63277295Y-86944238D01*
X63207522Y-87029333D01*
X63204883Y-87033969D01*
X63204881Y-87033972D01*
X63143092Y-87142520D01*
X63089273Y-87237066D01*
X63007716Y-87461753D01*
X63006767Y-87467002D01*
X63006766Y-87467005D01*
X62965920Y-87692885D01*
X62965919Y-87692893D01*
X62965182Y-87696969D01*
X62964000Y-87722032D01*
X62964000Y-89690012D01*
X61256000Y-89690012D01*
X61256000Y-86714500D01*
X61276002Y-86646379D01*
X61329658Y-86599886D01*
X61382000Y-86588500D01*
X61735515Y-86588500D01*
X61738023Y-86588298D01*
X61738028Y-86588298D01*
X61917444Y-86573863D01*
X61917449Y-86573862D01*
X61922485Y-86573457D01*
X61927393Y-86572252D01*
X61927396Y-86572251D01*
X62161125Y-86514841D01*
X62166039Y-86513634D01*
X62170691Y-86511659D01*
X62170695Y-86511658D01*
X62392241Y-86417617D01*
X62392242Y-86417617D01*
X62396896Y-86415641D01*
X62609115Y-86282000D01*
X62797238Y-86116147D01*
X62956424Y-85922351D01*
X63082578Y-85705596D01*
X63089074Y-85688675D01*
X63170643Y-85476181D01*
X63172455Y-85471461D01*
X63173900Y-85464548D01*
X63222706Y-85230921D01*
X63223741Y-85225967D01*
X63224833Y-85201935D01*
X63229934Y-85089592D01*
X63235118Y-84975432D01*
X63233638Y-84962636D01*
X63206874Y-84731334D01*
X63206292Y-84726301D01*
X63204004Y-84718213D01*
X63139384Y-84489852D01*
X63139383Y-84489850D01*
X63138006Y-84484983D01*
X63135872Y-84480408D01*
X63135870Y-84480401D01*
X63034153Y-84262269D01*
X63034151Y-84262265D01*
X63032016Y-84257687D01*
X63007978Y-84222316D01*
X62893895Y-84054448D01*
X62893892Y-84054444D01*
X62891049Y-84050261D01*
X62862299Y-84019858D01*
X62722213Y-83871721D01*
X62718733Y-83868041D01*
X62711373Y-83862414D01*
X62523519Y-83718788D01*
X62523515Y-83718785D01*
X62519499Y-83715715D01*
X62492017Y-83700979D01*
X62302935Y-83599595D01*
X62298474Y-83597203D01*
X62293693Y-83595557D01*
X62293689Y-83595555D01*
X62066133Y-83517201D01*
X62061344Y-83515552D01*
X61955733Y-83497310D01*
X61818120Y-83473540D01*
X61818114Y-83473539D01*
X61814210Y-83472865D01*
X61810249Y-83472685D01*
X61810248Y-83472685D01*
X61785569Y-83471564D01*
X61785550Y-83471564D01*
X61784150Y-83471500D01*
X59509485Y-83471500D01*
X59506977Y-83471702D01*
X59506972Y-83471702D01*
X59327556Y-83486137D01*
X59327551Y-83486138D01*
X59322515Y-83486543D01*
X59317607Y-83487748D01*
X59317604Y-83487749D01*
X59104524Y-83540087D01*
X59078961Y-83546366D01*
X59074309Y-83548341D01*
X59074305Y-83548342D01*
X58852759Y-83642383D01*
X58848104Y-83644359D01*
X58843820Y-83647057D01*
X58645607Y-83771878D01*
X58635885Y-83778000D01*
X58447762Y-83943853D01*
X58288576Y-84137649D01*
X58162422Y-84354404D01*
X58160609Y-84359127D01*
X58160608Y-84359129D01*
X58132182Y-84433181D01*
X58072545Y-84588539D01*
X58071512Y-84593485D01*
X58071510Y-84593491D01*
X58049840Y-84697223D01*
X58021259Y-84834033D01*
X58021030Y-84839082D01*
X58021029Y-84839088D01*
X58017540Y-84915925D01*
X58009882Y-85084568D01*
X58010463Y-85089588D01*
X58010463Y-85089592D01*
X58015490Y-85133039D01*
X58038708Y-85333699D01*
X58040087Y-85338573D01*
X58040088Y-85338577D01*
X58097264Y-85540633D01*
X58106994Y-85575017D01*
X58109128Y-85579592D01*
X58109130Y-85579599D01*
X58210847Y-85797731D01*
X58212984Y-85802313D01*
X58215826Y-85806494D01*
X58215826Y-85806495D01*
X58351105Y-86005552D01*
X58351108Y-86005556D01*
X58353951Y-86009739D01*
X58357428Y-86013416D01*
X58357429Y-86013417D01*
X58454886Y-86116475D01*
X58526267Y-86191959D01*
X58530293Y-86195037D01*
X58530294Y-86195038D01*
X58721481Y-86341212D01*
X58721485Y-86341215D01*
X58725501Y-86344285D01*
X58729959Y-86346675D01*
X58729960Y-86346676D01*
X58853548Y-86412943D01*
X58946526Y-86462797D01*
X58951307Y-86464443D01*
X58951311Y-86464445D01*
X59169754Y-86539661D01*
X59183656Y-86544448D01*
X59275100Y-86560243D01*
X59426880Y-86586460D01*
X59426886Y-86586461D01*
X59430790Y-86587135D01*
X59434751Y-86587315D01*
X59434752Y-86587315D01*
X59459431Y-86588436D01*
X59459450Y-86588436D01*
X59460850Y-86588500D01*
X59863000Y-86588500D01*
X59931121Y-86608502D01*
X59977614Y-86662158D01*
X59989000Y-86714500D01*
X59989000Y-91505608D01*
X59968998Y-91573729D01*
X59950748Y-91594450D01*
X59951500Y-91595202D01*
X59805395Y-91741307D01*
X59743083Y-91775333D01*
X59672268Y-91770268D01*
X59627205Y-91741307D01*
X59481100Y-91595202D01*
X59476592Y-91592045D01*
X59476589Y-91592043D01*
X59353147Y-91505608D01*
X59293549Y-91463877D01*
X59288567Y-91461554D01*
X59288562Y-91461551D01*
X59091025Y-91369439D01*
X59091024Y-91369439D01*
X59086043Y-91367116D01*
X59080735Y-91365694D01*
X59080733Y-91365693D01*
X58870202Y-91309281D01*
X58870200Y-91309281D01*
X58864887Y-91307857D01*
X58636800Y-91287902D01*
X58408713Y-91307857D01*
X58403400Y-91309281D01*
X58403398Y-91309281D01*
X58192867Y-91365693D01*
X58192865Y-91365694D01*
X58187557Y-91367116D01*
X58182576Y-91369439D01*
X58182575Y-91369439D01*
X57985038Y-91461551D01*
X57985033Y-91461554D01*
X57980051Y-91463877D01*
X57920453Y-91505608D01*
X57797011Y-91592043D01*
X57797008Y-91592045D01*
X57792500Y-91595202D01*
X57630602Y-91757100D01*
X57630163Y-91757727D01*
X57572275Y-91796241D01*
X57501287Y-91797367D01*
X57446773Y-91762325D01*
X57444998Y-91764100D01*
X57283100Y-91602202D01*
X57278592Y-91599045D01*
X57278589Y-91599043D01*
X57145150Y-91505608D01*
X57095549Y-91470877D01*
X57090567Y-91468554D01*
X57090562Y-91468551D01*
X56893025Y-91376439D01*
X56893024Y-91376439D01*
X56888043Y-91374116D01*
X56882735Y-91372694D01*
X56882733Y-91372693D01*
X56672202Y-91316281D01*
X56672200Y-91316281D01*
X56666887Y-91314857D01*
X56438800Y-91294902D01*
X56210713Y-91314857D01*
X56205400Y-91316281D01*
X56205398Y-91316281D01*
X55994867Y-91372693D01*
X55994865Y-91372694D01*
X55989557Y-91374116D01*
X55984576Y-91376439D01*
X55984575Y-91376439D01*
X55787038Y-91468551D01*
X55787033Y-91468554D01*
X55782051Y-91470877D01*
X55732450Y-91505608D01*
X55599011Y-91599043D01*
X55599008Y-91599045D01*
X55594500Y-91602202D01*
X55432602Y-91764100D01*
X55429445Y-91768608D01*
X55429443Y-91768611D01*
X55409860Y-91796579D01*
X55301277Y-91951651D01*
X55298954Y-91956633D01*
X55298951Y-91956638D01*
X55222260Y-92121104D01*
X55204516Y-92159157D01*
X55203094Y-92164465D01*
X55203093Y-92164467D01*
X55146681Y-92374998D01*
X55145257Y-92380313D01*
X55125302Y-92608400D01*
X55145257Y-92836487D01*
X55146681Y-92841800D01*
X55146681Y-92841802D01*
X55201218Y-93045333D01*
X55204516Y-93057643D01*
X55206839Y-93062624D01*
X55206839Y-93062625D01*
X55298951Y-93260162D01*
X55298954Y-93260167D01*
X55301277Y-93265149D01*
X55355404Y-93342450D01*
X55427701Y-93445700D01*
X55432602Y-93452700D01*
X55594500Y-93614598D01*
X55599008Y-93617755D01*
X55599011Y-93617757D01*
X55702676Y-93690344D01*
X55782051Y-93745923D01*
X55787033Y-93748246D01*
X55788827Y-93749282D01*
X55837819Y-93800666D01*
X55851254Y-93870379D01*
X55824866Y-93936290D01*
X55788827Y-93967518D01*
X55787033Y-93968554D01*
X55782051Y-93970877D01*
X55702676Y-94026456D01*
X55599011Y-94099043D01*
X55599008Y-94099045D01*
X55594500Y-94102202D01*
X55432602Y-94264100D01*
X55429445Y-94268608D01*
X55429443Y-94268611D01*
X55409308Y-94297367D01*
X55301277Y-94451651D01*
X55298954Y-94456633D01*
X55298951Y-94456638D01*
X55210103Y-94647175D01*
X55204516Y-94659157D01*
X55203094Y-94664465D01*
X55203093Y-94664467D01*
X55146821Y-94874477D01*
X55145257Y-94880313D01*
X55125302Y-95108400D01*
X55145257Y-95336487D01*
X55146681Y-95341800D01*
X55146681Y-95341802D01*
X55192467Y-95512674D01*
X55204516Y-95557643D01*
X55206839Y-95562624D01*
X55206839Y-95562625D01*
X55298951Y-95760162D01*
X55298954Y-95760167D01*
X55301277Y-95765149D01*
X55364644Y-95855646D01*
X55427701Y-95945700D01*
X55432602Y-95952700D01*
X55594500Y-96114598D01*
X55599008Y-96117755D01*
X55599011Y-96117757D01*
X55751571Y-96224581D01*
X55795899Y-96280038D01*
X55805300Y-96327794D01*
X55805300Y-96723006D01*
X55785298Y-96791127D01*
X55751571Y-96826219D01*
X55599011Y-96933043D01*
X55599008Y-96933045D01*
X55594500Y-96936202D01*
X55432602Y-97098100D01*
X55429445Y-97102608D01*
X55429443Y-97102611D01*
X55389984Y-97158965D01*
X55301277Y-97285651D01*
X55298954Y-97290633D01*
X55298951Y-97290638D01*
X55223505Y-97452435D01*
X55204516Y-97493157D01*
X55203094Y-97498465D01*
X55203093Y-97498467D01*
X55150451Y-97694930D01*
X55145257Y-97714313D01*
X55125302Y-97942400D01*
X55145257Y-98170487D01*
X55146681Y-98175800D01*
X55146681Y-98175802D01*
X55197061Y-98363819D01*
X55204516Y-98391643D01*
X55206839Y-98396624D01*
X55206839Y-98396625D01*
X55298951Y-98594162D01*
X55298954Y-98594167D01*
X55301277Y-98599149D01*
X55363217Y-98687608D01*
X55427972Y-98780087D01*
X55432602Y-98786700D01*
X55594500Y-98948598D01*
X55599008Y-98951755D01*
X55599011Y-98951757D01*
X55657001Y-98992362D01*
X55782051Y-99079923D01*
X55787033Y-99082246D01*
X55787038Y-99082249D01*
X55935753Y-99151595D01*
X55989557Y-99176684D01*
X55994865Y-99178106D01*
X55994867Y-99178107D01*
X56205398Y-99234519D01*
X56205400Y-99234519D01*
X56210713Y-99235943D01*
X56438800Y-99255898D01*
X56666887Y-99235943D01*
X56672200Y-99234519D01*
X56672202Y-99234519D01*
X56882733Y-99178107D01*
X56882735Y-99178106D01*
X56888043Y-99176684D01*
X56941847Y-99151595D01*
X57090562Y-99082249D01*
X57090567Y-99082246D01*
X57095549Y-99079923D01*
X57220599Y-98992362D01*
X57278589Y-98951757D01*
X57278592Y-98951755D01*
X57283100Y-98948598D01*
X57444998Y-98786700D01*
X57449629Y-98780087D01*
X57514383Y-98687608D01*
X57576323Y-98599149D01*
X57578646Y-98594167D01*
X57578649Y-98594162D01*
X57670761Y-98396625D01*
X57670761Y-98396624D01*
X57673084Y-98391643D01*
X57680540Y-98363819D01*
X57730919Y-98175802D01*
X57730919Y-98175800D01*
X57732343Y-98170487D01*
X57752298Y-97942400D01*
X57732343Y-97714313D01*
X57727149Y-97694930D01*
X57674507Y-97498467D01*
X57674506Y-97498465D01*
X57673084Y-97493157D01*
X57654095Y-97452435D01*
X57578649Y-97290638D01*
X57578646Y-97290633D01*
X57576323Y-97285651D01*
X57487616Y-97158965D01*
X57448157Y-97102611D01*
X57448155Y-97102608D01*
X57444998Y-97098100D01*
X57283100Y-96936202D01*
X57278592Y-96933045D01*
X57278589Y-96933043D01*
X57126029Y-96826219D01*
X57081701Y-96770762D01*
X57072300Y-96723006D01*
X57072300Y-96327794D01*
X57092302Y-96259673D01*
X57126029Y-96224581D01*
X57278589Y-96117757D01*
X57278592Y-96117755D01*
X57283100Y-96114598D01*
X57444998Y-95952700D01*
X57445437Y-95952073D01*
X57503325Y-95913559D01*
X57574313Y-95912433D01*
X57628827Y-95947475D01*
X57630602Y-95945700D01*
X57792500Y-96107598D01*
X57797008Y-96110755D01*
X57797011Y-96110757D01*
X57822702Y-96128746D01*
X57980051Y-96238923D01*
X57985033Y-96241246D01*
X57985038Y-96241249D01*
X58182575Y-96333361D01*
X58187557Y-96335684D01*
X58192865Y-96337106D01*
X58192867Y-96337107D01*
X58403398Y-96393519D01*
X58403400Y-96393519D01*
X58408713Y-96394943D01*
X58636800Y-96414898D01*
X58864887Y-96394943D01*
X58870200Y-96393519D01*
X58870202Y-96393519D01*
X59080733Y-96337107D01*
X59080735Y-96337106D01*
X59086043Y-96335684D01*
X59091025Y-96333361D01*
X59288562Y-96241249D01*
X59288567Y-96241246D01*
X59293549Y-96238923D01*
X59450898Y-96128746D01*
X59476589Y-96110757D01*
X59476592Y-96110755D01*
X59481100Y-96107598D01*
X59627205Y-95961493D01*
X59689517Y-95927467D01*
X59760332Y-95932532D01*
X59805395Y-95961493D01*
X59951500Y-96107598D01*
X59956008Y-96110755D01*
X59956011Y-96110757D01*
X59981702Y-96128746D01*
X60139051Y-96238923D01*
X60144033Y-96241246D01*
X60144038Y-96241249D01*
X60341575Y-96333361D01*
X60346557Y-96335684D01*
X60351865Y-96337106D01*
X60351867Y-96337107D01*
X60562398Y-96393519D01*
X60562400Y-96393519D01*
X60567713Y-96394943D01*
X60795800Y-96414898D01*
X61023887Y-96394943D01*
X61029198Y-96393520D01*
X61029209Y-96393518D01*
X61087341Y-96377941D01*
X61158317Y-96379630D01*
X61209048Y-96410552D01*
X62713296Y-97914800D01*
X62747322Y-97977112D01*
X62749722Y-97992911D01*
X62765257Y-98170487D01*
X62802475Y-98309386D01*
X62817061Y-98363819D01*
X62824516Y-98391643D01*
X62826839Y-98396624D01*
X62826839Y-98396625D01*
X62918951Y-98594162D01*
X62918954Y-98594167D01*
X62921277Y-98599149D01*
X62983217Y-98687608D01*
X63047972Y-98780087D01*
X63052602Y-98786700D01*
X63214500Y-98948598D01*
X63219008Y-98951755D01*
X63219011Y-98951757D01*
X63277001Y-98992362D01*
X63402051Y-99079923D01*
X63407033Y-99082246D01*
X63407038Y-99082249D01*
X63555753Y-99151595D01*
X63609557Y-99176684D01*
X63614865Y-99178106D01*
X63614867Y-99178107D01*
X63825398Y-99234519D01*
X63825400Y-99234519D01*
X63830713Y-99235943D01*
X64058800Y-99255898D01*
X64286887Y-99235943D01*
X64292200Y-99234519D01*
X64292202Y-99234519D01*
X64502733Y-99178107D01*
X64502735Y-99178106D01*
X64508043Y-99176684D01*
X64561847Y-99151595D01*
X64710562Y-99082249D01*
X64710567Y-99082246D01*
X64715549Y-99079923D01*
X64840599Y-98992362D01*
X64898589Y-98951757D01*
X64898592Y-98951755D01*
X64903100Y-98948598D01*
X65064998Y-98786700D01*
X65069629Y-98780087D01*
X65134383Y-98687608D01*
X65196323Y-98599149D01*
X65198646Y-98594167D01*
X65198649Y-98594162D01*
X65290761Y-98396625D01*
X65290761Y-98396624D01*
X65293084Y-98391643D01*
X65300540Y-98363819D01*
X65350919Y-98175802D01*
X65350919Y-98175800D01*
X65352343Y-98170487D01*
X65372298Y-97942400D01*
X65352343Y-97714313D01*
X65350919Y-97708998D01*
X65350918Y-97708991D01*
X65335341Y-97650859D01*
X65337030Y-97579883D01*
X65367952Y-97529152D01*
X67350405Y-95546700D01*
X67412717Y-95512674D01*
X67483533Y-95517739D01*
X67540368Y-95560286D01*
X67565179Y-95626806D01*
X67565500Y-95635795D01*
X67565500Y-98301224D01*
X67564973Y-98312407D01*
X67563298Y-98319900D01*
X67563547Y-98327826D01*
X67563547Y-98327827D01*
X67565438Y-98387977D01*
X67565500Y-98391936D01*
X67565500Y-98419847D01*
X67565997Y-98423781D01*
X67565997Y-98423782D01*
X67566005Y-98423847D01*
X67566938Y-98435684D01*
X67568327Y-98479880D01*
X67573978Y-98499330D01*
X67577987Y-98518691D01*
X67580526Y-98538788D01*
X67583445Y-98546159D01*
X67583445Y-98546161D01*
X67596804Y-98579903D01*
X67600649Y-98591133D01*
X67609099Y-98620218D01*
X67612982Y-98633584D01*
X67617015Y-98640403D01*
X67617017Y-98640408D01*
X67623293Y-98651019D01*
X67631988Y-98668767D01*
X67639448Y-98687608D01*
X67644110Y-98694024D01*
X67644110Y-98694025D01*
X67665436Y-98723378D01*
X67671952Y-98733298D01*
X67694458Y-98771353D01*
X67708779Y-98785674D01*
X67721619Y-98800707D01*
X67733528Y-98817098D01*
X67739634Y-98822149D01*
X67767605Y-98845289D01*
X67776384Y-98853279D01*
X69137352Y-100214247D01*
X69144896Y-100222537D01*
X69149009Y-100229018D01*
X69154786Y-100234443D01*
X69198676Y-100275658D01*
X69201518Y-100278413D01*
X69221240Y-100298135D01*
X69224382Y-100300572D01*
X69224442Y-100300619D01*
X69233454Y-100308317D01*
X69246887Y-100320931D01*
X69265688Y-100338586D01*
X69272631Y-100342403D01*
X69283440Y-100348345D01*
X69299962Y-100359198D01*
X69315968Y-100371614D01*
X69323246Y-100374764D01*
X69323247Y-100374764D01*
X69356546Y-100389174D01*
X69367196Y-100394391D01*
X69405949Y-100415695D01*
X69413624Y-100417666D01*
X69413625Y-100417666D01*
X69425571Y-100420733D01*
X69444276Y-100427137D01*
X69462864Y-100435181D01*
X69470687Y-100436420D01*
X69470697Y-100436423D01*
X69506533Y-100442099D01*
X69518153Y-100444505D01*
X69549968Y-100452673D01*
X69560979Y-100455500D01*
X69581233Y-100455500D01*
X69600943Y-100457051D01*
X69620952Y-100460220D01*
X69628844Y-100459474D01*
X69647589Y-100457702D01*
X69664971Y-100456059D01*
X69676828Y-100455500D01*
X73398433Y-100455500D01*
X73409616Y-100456027D01*
X73417109Y-100457702D01*
X73425035Y-100457453D01*
X73425036Y-100457453D01*
X73485186Y-100455562D01*
X73489145Y-100455500D01*
X73517056Y-100455500D01*
X73520991Y-100455003D01*
X73521056Y-100454995D01*
X73532893Y-100454062D01*
X73565151Y-100453048D01*
X73569170Y-100452922D01*
X73577089Y-100452673D01*
X73596543Y-100447021D01*
X73615900Y-100443013D01*
X73628130Y-100441468D01*
X73628131Y-100441468D01*
X73635997Y-100440474D01*
X73643368Y-100437555D01*
X73643370Y-100437555D01*
X73677112Y-100424196D01*
X73688342Y-100420351D01*
X73723183Y-100410229D01*
X73723184Y-100410229D01*
X73730793Y-100408018D01*
X73737612Y-100403985D01*
X73737617Y-100403983D01*
X73748228Y-100397707D01*
X73765976Y-100389012D01*
X73784817Y-100381552D01*
X73820587Y-100355564D01*
X73830507Y-100349048D01*
X73861735Y-100330580D01*
X73861738Y-100330578D01*
X73868562Y-100326542D01*
X73882883Y-100312221D01*
X73897917Y-100299380D01*
X73900313Y-100297639D01*
X73914307Y-100287472D01*
X73942498Y-100253395D01*
X73950488Y-100244616D01*
X76512514Y-97682590D01*
X76574826Y-97648564D01*
X76645641Y-97653629D01*
X76702477Y-97696176D01*
X76727288Y-97762696D01*
X76712197Y-97832070D01*
X76704823Y-97843955D01*
X76576477Y-98027251D01*
X76574154Y-98032233D01*
X76574151Y-98032238D01*
X76482039Y-98229775D01*
X76479716Y-98234757D01*
X76478294Y-98240065D01*
X76478293Y-98240067D01*
X76425876Y-98435690D01*
X76420457Y-98455913D01*
X76400502Y-98684000D01*
X76420457Y-98912087D01*
X76421881Y-98917400D01*
X76421881Y-98917402D01*
X76456760Y-99047569D01*
X76479716Y-99133243D01*
X76482039Y-99138224D01*
X76482039Y-99138225D01*
X76574151Y-99335762D01*
X76574154Y-99335767D01*
X76576477Y-99340749D01*
X76621604Y-99405197D01*
X76684552Y-99495095D01*
X76707802Y-99528300D01*
X76869700Y-99690198D01*
X76874208Y-99693355D01*
X76874211Y-99693357D01*
X76905636Y-99715361D01*
X77057251Y-99821523D01*
X77062233Y-99823846D01*
X77062238Y-99823849D01*
X77247948Y-99910446D01*
X77264757Y-99918284D01*
X77270065Y-99919706D01*
X77270067Y-99919707D01*
X77480598Y-99976119D01*
X77480600Y-99976119D01*
X77485913Y-99977543D01*
X77714000Y-99997498D01*
X77942087Y-99977543D01*
X77947400Y-99976119D01*
X77947402Y-99976119D01*
X78157933Y-99919707D01*
X78157935Y-99919706D01*
X78163243Y-99918284D01*
X78180052Y-99910446D01*
X78365762Y-99823849D01*
X78365767Y-99823846D01*
X78370749Y-99821523D01*
X78522364Y-99715361D01*
X78553789Y-99693357D01*
X78553792Y-99693355D01*
X78558300Y-99690198D01*
X78720198Y-99528300D01*
X78743449Y-99495095D01*
X78806396Y-99405197D01*
X78851523Y-99340749D01*
X78853846Y-99335767D01*
X78853849Y-99335762D01*
X78945961Y-99138225D01*
X78945961Y-99138224D01*
X78948284Y-99133243D01*
X78971241Y-99047569D01*
X79001793Y-98933546D01*
X79038745Y-98872923D01*
X79102606Y-98841902D01*
X79173100Y-98850330D01*
X79227847Y-98895533D01*
X79249500Y-98966157D01*
X79249500Y-102809405D01*
X79229498Y-102877526D01*
X79212595Y-102898500D01*
X77204747Y-104906348D01*
X77196461Y-104913888D01*
X77189982Y-104918000D01*
X77184557Y-104923777D01*
X77143357Y-104967651D01*
X77140602Y-104970493D01*
X77120865Y-104990230D01*
X77118385Y-104993427D01*
X77110682Y-105002447D01*
X77080414Y-105034679D01*
X77076595Y-105041625D01*
X77076593Y-105041628D01*
X77070652Y-105052434D01*
X77059801Y-105068953D01*
X77047386Y-105084959D01*
X77044241Y-105092228D01*
X77044238Y-105092232D01*
X77029826Y-105125537D01*
X77024609Y-105136187D01*
X77003305Y-105174940D01*
X77001334Y-105182615D01*
X77001334Y-105182616D01*
X76998267Y-105194562D01*
X76991863Y-105213266D01*
X76983819Y-105231855D01*
X76982580Y-105239678D01*
X76982577Y-105239688D01*
X76976901Y-105275524D01*
X76974495Y-105287144D01*
X76963500Y-105329970D01*
X76963500Y-105350224D01*
X76961949Y-105369934D01*
X76958780Y-105389943D01*
X76959526Y-105397835D01*
X76962941Y-105433961D01*
X76963500Y-105445819D01*
X76963500Y-107363233D01*
X76962973Y-107374416D01*
X76961298Y-107381909D01*
X76961547Y-107389835D01*
X76961547Y-107389836D01*
X76963438Y-107449986D01*
X76963500Y-107453945D01*
X76963500Y-107481856D01*
X76963997Y-107485790D01*
X76963997Y-107485791D01*
X76964005Y-107485856D01*
X76964938Y-107497693D01*
X76966327Y-107541889D01*
X76971383Y-107559292D01*
X76971978Y-107561339D01*
X76975987Y-107580700D01*
X76978526Y-107600797D01*
X76981445Y-107608168D01*
X76981445Y-107608170D01*
X76994804Y-107641912D01*
X76998649Y-107653142D01*
X77010982Y-107695593D01*
X77015015Y-107702412D01*
X77015017Y-107702417D01*
X77021293Y-107713028D01*
X77029988Y-107730776D01*
X77037448Y-107749617D01*
X77042110Y-107756033D01*
X77042110Y-107756034D01*
X77063436Y-107785387D01*
X77069952Y-107795307D01*
X77081880Y-107815475D01*
X77092458Y-107833362D01*
X77106779Y-107847683D01*
X77119619Y-107862716D01*
X77131528Y-107879107D01*
X77161942Y-107904268D01*
X77165605Y-107907298D01*
X77174384Y-107915288D01*
X78490343Y-109231247D01*
X78497887Y-109239537D01*
X78502000Y-109246018D01*
X78507777Y-109251443D01*
X78551667Y-109292658D01*
X78554509Y-109295413D01*
X78574230Y-109315134D01*
X78577425Y-109317612D01*
X78586447Y-109325318D01*
X78618679Y-109355586D01*
X78625628Y-109359406D01*
X78636432Y-109365346D01*
X78652956Y-109376199D01*
X78668959Y-109388613D01*
X78709543Y-109406176D01*
X78720173Y-109411383D01*
X78758940Y-109432695D01*
X78766617Y-109434666D01*
X78766622Y-109434668D01*
X78778558Y-109437732D01*
X78797266Y-109444137D01*
X78815855Y-109452181D01*
X78823680Y-109453420D01*
X78823682Y-109453421D01*
X78859519Y-109459097D01*
X78871140Y-109461504D01*
X78902959Y-109469673D01*
X78913970Y-109472500D01*
X78934231Y-109472500D01*
X78953940Y-109474051D01*
X78973943Y-109477219D01*
X78981835Y-109476473D01*
X78987062Y-109475979D01*
X79017954Y-109473059D01*
X79029811Y-109472500D01*
X84122233Y-109472500D01*
X84133416Y-109473027D01*
X84140909Y-109474702D01*
X84148835Y-109474453D01*
X84148836Y-109474453D01*
X84208986Y-109472562D01*
X84212945Y-109472500D01*
X84240856Y-109472500D01*
X84244791Y-109472003D01*
X84244856Y-109471995D01*
X84256693Y-109471062D01*
X84288951Y-109470048D01*
X84292970Y-109469922D01*
X84300889Y-109469673D01*
X84320343Y-109464021D01*
X84339700Y-109460013D01*
X84351930Y-109458468D01*
X84351931Y-109458468D01*
X84359797Y-109457474D01*
X84367168Y-109454555D01*
X84367170Y-109454555D01*
X84400912Y-109441196D01*
X84412142Y-109437351D01*
X84446983Y-109427229D01*
X84446984Y-109427229D01*
X84454593Y-109425018D01*
X84461412Y-109420985D01*
X84461417Y-109420983D01*
X84472028Y-109414707D01*
X84489776Y-109406012D01*
X84508617Y-109398552D01*
X84528987Y-109383753D01*
X84544387Y-109372564D01*
X84554307Y-109366048D01*
X84585535Y-109347580D01*
X84585538Y-109347578D01*
X84592362Y-109343542D01*
X84606683Y-109329221D01*
X84621717Y-109316380D01*
X84623432Y-109315134D01*
X84638107Y-109304472D01*
X84643158Y-109298367D01*
X84643163Y-109298362D01*
X84666299Y-109270396D01*
X84674287Y-109261618D01*
X85482253Y-108453652D01*
X85490539Y-108446112D01*
X85497018Y-108442000D01*
X85543644Y-108392348D01*
X85546398Y-108389507D01*
X85566135Y-108369770D01*
X85568615Y-108366573D01*
X85576320Y-108357551D01*
X85601159Y-108331100D01*
X85606586Y-108325321D01*
X85610405Y-108318375D01*
X85610407Y-108318372D01*
X85616348Y-108307566D01*
X85627199Y-108291047D01*
X85634758Y-108281301D01*
X85639614Y-108275041D01*
X85642759Y-108267772D01*
X85642762Y-108267768D01*
X85657174Y-108234463D01*
X85662391Y-108223813D01*
X85683695Y-108185060D01*
X85688733Y-108165437D01*
X85695137Y-108146734D01*
X85700033Y-108135420D01*
X85700033Y-108135419D01*
X85703181Y-108128145D01*
X85704420Y-108120322D01*
X85704423Y-108120312D01*
X85710099Y-108084476D01*
X85712505Y-108072856D01*
X85721528Y-108037711D01*
X85721528Y-108037710D01*
X85723500Y-108030030D01*
X85723500Y-108009776D01*
X85725051Y-107990065D01*
X85725584Y-107986703D01*
X85728220Y-107970057D01*
X85727474Y-107962165D01*
X85727723Y-107954242D01*
X85731227Y-107954352D01*
X85741602Y-107900306D01*
X85788008Y-107850916D01*
X85787994Y-107850896D01*
X85788095Y-107850824D01*
X85969860Y-107721173D01*
X86128096Y-107563489D01*
X86149308Y-107533970D01*
X86258453Y-107382077D01*
X86259640Y-107382930D01*
X86306960Y-107339362D01*
X86376897Y-107327145D01*
X86442338Y-107354678D01*
X86470166Y-107386511D01*
X86527694Y-107480388D01*
X86533777Y-107488699D01*
X86673213Y-107649667D01*
X86680580Y-107656883D01*
X86844434Y-107792916D01*
X86852881Y-107798831D01*
X87036756Y-107906279D01*
X87046042Y-107910729D01*
X87245001Y-107986703D01*
X87254899Y-107989579D01*
X87358250Y-108010606D01*
X87372299Y-108009410D01*
X87376000Y-107999065D01*
X87376000Y-105363102D01*
X87372082Y-105349758D01*
X87357806Y-105347771D01*
X87319324Y-105353660D01*
X87309288Y-105356051D01*
X87106868Y-105422212D01*
X87097359Y-105426209D01*
X86908463Y-105524542D01*
X86899738Y-105530036D01*
X86729433Y-105657905D01*
X86721726Y-105664748D01*
X86574590Y-105818717D01*
X86568109Y-105826722D01*
X86463498Y-105980074D01*
X86408587Y-106025076D01*
X86338062Y-106033247D01*
X86274315Y-106001993D01*
X86253618Y-105977509D01*
X86172822Y-105852617D01*
X86172820Y-105852614D01*
X86170014Y-105848277D01*
X86019670Y-105683051D01*
X86015619Y-105679852D01*
X86015615Y-105679848D01*
X85848414Y-105547800D01*
X85848410Y-105547798D01*
X85844359Y-105544598D01*
X85808028Y-105524542D01*
X85792136Y-105515769D01*
X85648789Y-105436638D01*
X85643920Y-105434914D01*
X85643916Y-105434912D01*
X85443087Y-105363795D01*
X85443083Y-105363794D01*
X85438212Y-105362069D01*
X85433119Y-105361162D01*
X85433116Y-105361161D01*
X85223373Y-105323800D01*
X85223367Y-105323799D01*
X85218284Y-105322894D01*
X85144452Y-105321992D01*
X85000081Y-105320228D01*
X85000079Y-105320228D01*
X84994911Y-105320165D01*
X84774091Y-105353955D01*
X84561756Y-105423357D01*
X84363607Y-105526507D01*
X84359474Y-105529610D01*
X84359471Y-105529612D01*
X84218443Y-105635499D01*
X84184965Y-105660635D01*
X84030629Y-105822138D01*
X83923201Y-105979621D01*
X83868293Y-106024621D01*
X83797768Y-106032792D01*
X83734021Y-106001538D01*
X83713324Y-105977054D01*
X83632822Y-105852617D01*
X83632820Y-105852614D01*
X83630014Y-105848277D01*
X83626532Y-105844450D01*
X83498307Y-105703532D01*
X83467255Y-105639686D01*
X83465500Y-105618732D01*
X83465500Y-102738168D01*
X83485502Y-102670047D01*
X83539158Y-102623554D01*
X83609432Y-102613450D01*
X83624105Y-102616460D01*
X83728913Y-102644543D01*
X83957000Y-102664498D01*
X84185087Y-102644543D01*
X84190400Y-102643119D01*
X84190402Y-102643119D01*
X84400933Y-102586707D01*
X84400935Y-102586706D01*
X84406243Y-102585284D01*
X84448501Y-102565579D01*
X84608762Y-102490849D01*
X84608767Y-102490846D01*
X84613749Y-102488523D01*
X84718611Y-102415098D01*
X84796789Y-102360357D01*
X84796792Y-102360355D01*
X84801300Y-102357198D01*
X84963198Y-102195300D01*
X84987993Y-102159890D01*
X85062196Y-102053917D01*
X85094523Y-102007749D01*
X85096846Y-102002767D01*
X85097882Y-102000973D01*
X85149266Y-101951981D01*
X85218979Y-101938546D01*
X85284890Y-101964934D01*
X85316118Y-102000973D01*
X85317154Y-102002767D01*
X85319477Y-102007749D01*
X85351804Y-102053917D01*
X85426008Y-102159890D01*
X85450802Y-102195300D01*
X85612700Y-102357198D01*
X85617208Y-102360355D01*
X85617211Y-102360357D01*
X85695389Y-102415098D01*
X85800251Y-102488523D01*
X85805233Y-102490846D01*
X85805238Y-102490849D01*
X85965499Y-102565579D01*
X86007757Y-102585284D01*
X86013065Y-102586706D01*
X86013067Y-102586707D01*
X86223598Y-102643119D01*
X86223600Y-102643119D01*
X86228913Y-102644543D01*
X86457000Y-102664498D01*
X86685087Y-102644543D01*
X86690400Y-102643119D01*
X86690402Y-102643119D01*
X86900933Y-102586707D01*
X86900935Y-102586706D01*
X86906243Y-102585284D01*
X86948501Y-102565579D01*
X87108762Y-102490849D01*
X87108767Y-102490846D01*
X87113749Y-102488523D01*
X87218611Y-102415098D01*
X87296789Y-102360357D01*
X87296792Y-102360355D01*
X87301300Y-102357198D01*
X87463198Y-102195300D01*
X87487993Y-102159890D01*
X87527175Y-102103931D01*
X87594523Y-102007749D01*
X87596846Y-102002767D01*
X87596849Y-102002762D01*
X87688961Y-101805225D01*
X87688961Y-101805224D01*
X87691284Y-101800243D01*
X87712807Y-101719921D01*
X87749119Y-101584402D01*
X87749119Y-101584400D01*
X87750543Y-101579087D01*
X87770498Y-101351000D01*
X87750543Y-101122913D01*
X87720606Y-101011188D01*
X87692707Y-100907067D01*
X87692706Y-100907065D01*
X87691284Y-100901757D01*
X87683581Y-100885238D01*
X87596849Y-100699238D01*
X87596846Y-100699233D01*
X87594523Y-100694251D01*
X87475967Y-100524936D01*
X87466357Y-100511211D01*
X87466355Y-100511208D01*
X87463198Y-100506700D01*
X87301300Y-100344802D01*
X87296792Y-100341645D01*
X87296789Y-100341643D01*
X87144229Y-100234819D01*
X87099901Y-100179362D01*
X87090500Y-100131606D01*
X87090500Y-98642594D01*
X87110502Y-98574473D01*
X87127405Y-98553499D01*
X87246411Y-98434493D01*
X87308723Y-98400467D01*
X87379538Y-98405532D01*
X87436374Y-98448079D01*
X87461185Y-98514599D01*
X87461026Y-98534570D01*
X87459981Y-98546514D01*
X87459981Y-98546525D01*
X87459502Y-98552000D01*
X87479457Y-98780087D01*
X87480881Y-98785400D01*
X87480881Y-98785402D01*
X87529315Y-98966157D01*
X87538716Y-99001243D01*
X87541039Y-99006224D01*
X87541039Y-99006225D01*
X87633151Y-99203762D01*
X87633154Y-99203767D01*
X87635477Y-99208749D01*
X87766802Y-99396300D01*
X87928700Y-99558198D01*
X87933208Y-99561355D01*
X87933211Y-99561357D01*
X87999066Y-99607469D01*
X88116251Y-99689523D01*
X88121233Y-99691846D01*
X88121238Y-99691849D01*
X88292001Y-99771476D01*
X88323757Y-99786284D01*
X88329065Y-99787706D01*
X88329067Y-99787707D01*
X88539598Y-99844119D01*
X88539600Y-99844119D01*
X88544913Y-99845543D01*
X88773000Y-99865498D01*
X89001087Y-99845543D01*
X89006400Y-99844119D01*
X89006402Y-99844119D01*
X89216933Y-99787707D01*
X89216935Y-99787706D01*
X89222243Y-99786284D01*
X89253999Y-99771476D01*
X89424762Y-99691849D01*
X89424767Y-99691846D01*
X89429749Y-99689523D01*
X89546934Y-99607469D01*
X89612789Y-99561357D01*
X89612792Y-99561355D01*
X89617300Y-99558198D01*
X89779198Y-99396300D01*
X89910523Y-99208749D01*
X89912846Y-99203767D01*
X89912849Y-99203762D01*
X90004961Y-99006225D01*
X90004961Y-99006224D01*
X90007284Y-99001243D01*
X90016686Y-98966157D01*
X90065119Y-98785402D01*
X90065119Y-98785400D01*
X90066543Y-98780087D01*
X90086061Y-98557000D01*
X91005502Y-98557000D01*
X91025457Y-98785087D01*
X91026881Y-98790400D01*
X91026881Y-98790402D01*
X91080997Y-98992362D01*
X91084716Y-99006243D01*
X91087039Y-99011224D01*
X91087039Y-99011225D01*
X91179151Y-99208762D01*
X91179154Y-99208767D01*
X91181477Y-99213749D01*
X91312802Y-99401300D01*
X91474700Y-99563198D01*
X91479208Y-99566355D01*
X91479211Y-99566357D01*
X91530095Y-99601986D01*
X91662251Y-99694523D01*
X91667233Y-99696846D01*
X91667238Y-99696849D01*
X91859034Y-99786284D01*
X91869757Y-99791284D01*
X91875065Y-99792706D01*
X91875067Y-99792707D01*
X92085598Y-99849119D01*
X92085600Y-99849119D01*
X92090913Y-99850543D01*
X92319000Y-99870498D01*
X92547087Y-99850543D01*
X92552400Y-99849119D01*
X92552402Y-99849119D01*
X92762933Y-99792707D01*
X92762935Y-99792706D01*
X92768243Y-99791284D01*
X92778966Y-99786284D01*
X92970762Y-99696849D01*
X92970767Y-99696846D01*
X92975749Y-99694523D01*
X93107905Y-99601986D01*
X93158789Y-99566357D01*
X93158792Y-99566355D01*
X93163300Y-99563198D01*
X93325198Y-99401300D01*
X93456523Y-99213749D01*
X93458846Y-99208767D01*
X93458849Y-99208762D01*
X93550961Y-99011225D01*
X93550961Y-99011224D01*
X93553284Y-99006243D01*
X93557004Y-98992362D01*
X93611119Y-98790402D01*
X93611119Y-98790400D01*
X93612543Y-98785087D01*
X93632498Y-98557000D01*
X93612543Y-98328913D01*
X93609777Y-98318591D01*
X93554707Y-98113067D01*
X93554706Y-98113065D01*
X93553284Y-98107757D01*
X93518069Y-98032238D01*
X93458849Y-97905238D01*
X93458846Y-97905233D01*
X93456523Y-97900251D01*
X93352745Y-97752041D01*
X93328357Y-97717211D01*
X93328355Y-97717208D01*
X93325198Y-97712700D01*
X93163300Y-97550802D01*
X93158792Y-97547645D01*
X93158789Y-97547643D01*
X93057697Y-97476858D01*
X92975749Y-97419477D01*
X92970767Y-97417154D01*
X92970762Y-97417151D01*
X92773225Y-97325039D01*
X92773224Y-97325039D01*
X92768243Y-97322716D01*
X92762935Y-97321294D01*
X92762933Y-97321293D01*
X92552402Y-97264881D01*
X92552400Y-97264881D01*
X92547087Y-97263457D01*
X92319000Y-97243502D01*
X92090913Y-97263457D01*
X92085600Y-97264881D01*
X92085598Y-97264881D01*
X91875067Y-97321293D01*
X91875065Y-97321294D01*
X91869757Y-97322716D01*
X91864776Y-97325039D01*
X91864775Y-97325039D01*
X91667238Y-97417151D01*
X91667233Y-97417154D01*
X91662251Y-97419477D01*
X91580303Y-97476858D01*
X91479211Y-97547643D01*
X91479208Y-97547645D01*
X91474700Y-97550802D01*
X91312802Y-97712700D01*
X91309645Y-97717208D01*
X91309643Y-97717211D01*
X91285255Y-97752041D01*
X91181477Y-97900251D01*
X91179154Y-97905233D01*
X91179151Y-97905238D01*
X91119931Y-98032238D01*
X91084716Y-98107757D01*
X91083294Y-98113065D01*
X91083293Y-98113067D01*
X91028223Y-98318591D01*
X91025457Y-98328913D01*
X91005502Y-98557000D01*
X90086061Y-98557000D01*
X90086498Y-98552000D01*
X90066543Y-98323913D01*
X90065120Y-98318602D01*
X90065118Y-98318591D01*
X90049541Y-98260459D01*
X90051230Y-98189483D01*
X90082152Y-98138752D01*
X90290247Y-97930657D01*
X90298537Y-97923113D01*
X90305018Y-97919000D01*
X90351659Y-97869332D01*
X90354413Y-97866491D01*
X90374134Y-97846770D01*
X90376612Y-97843575D01*
X90384318Y-97834553D01*
X90409158Y-97808101D01*
X90414586Y-97802321D01*
X90424346Y-97784568D01*
X90435199Y-97768045D01*
X90442753Y-97758306D01*
X90447613Y-97752041D01*
X90465176Y-97711457D01*
X90470383Y-97700827D01*
X90491695Y-97662060D01*
X90493666Y-97654383D01*
X90493668Y-97654378D01*
X90496732Y-97642442D01*
X90503138Y-97623730D01*
X90508033Y-97612419D01*
X90511181Y-97605145D01*
X90512421Y-97597317D01*
X90512423Y-97597310D01*
X90518099Y-97561476D01*
X90520505Y-97549856D01*
X90529528Y-97514711D01*
X90529528Y-97514710D01*
X90531500Y-97507030D01*
X90531500Y-97486776D01*
X90533051Y-97467065D01*
X90534980Y-97454886D01*
X90536220Y-97447057D01*
X90532059Y-97403038D01*
X90531500Y-97391181D01*
X90531500Y-95509000D01*
X91005502Y-95509000D01*
X91025457Y-95737087D01*
X91026881Y-95742400D01*
X91026881Y-95742402D01*
X91083281Y-95952886D01*
X91084716Y-95958243D01*
X91087039Y-95963224D01*
X91087039Y-95963225D01*
X91179151Y-96160762D01*
X91179154Y-96160767D01*
X91181477Y-96165749D01*
X91247426Y-96259933D01*
X91303675Y-96340265D01*
X91312802Y-96353300D01*
X91474700Y-96515198D01*
X91479208Y-96518355D01*
X91479211Y-96518357D01*
X91520930Y-96547569D01*
X91662251Y-96646523D01*
X91667233Y-96648846D01*
X91667238Y-96648849D01*
X91826270Y-96723006D01*
X91869757Y-96743284D01*
X91875065Y-96744706D01*
X91875067Y-96744707D01*
X92085598Y-96801119D01*
X92085600Y-96801119D01*
X92090913Y-96802543D01*
X92319000Y-96822498D01*
X92547087Y-96802543D01*
X92552400Y-96801119D01*
X92552402Y-96801119D01*
X92762933Y-96744707D01*
X92762935Y-96744706D01*
X92768243Y-96743284D01*
X92811730Y-96723006D01*
X92970762Y-96648849D01*
X92970767Y-96648846D01*
X92975749Y-96646523D01*
X93117070Y-96547569D01*
X93158789Y-96518357D01*
X93158792Y-96518355D01*
X93163300Y-96515198D01*
X93325198Y-96353300D01*
X93334326Y-96340265D01*
X93390574Y-96259933D01*
X93456523Y-96165749D01*
X93458846Y-96160767D01*
X93458849Y-96160762D01*
X93550961Y-95963225D01*
X93550961Y-95963224D01*
X93553284Y-95958243D01*
X93554720Y-95952886D01*
X93611119Y-95742402D01*
X93611119Y-95742400D01*
X93612543Y-95737087D01*
X93632498Y-95509000D01*
X93612543Y-95280913D01*
X93590596Y-95199007D01*
X93554707Y-95065067D01*
X93554706Y-95065065D01*
X93553284Y-95059757D01*
X93528125Y-95005802D01*
X93458849Y-94857238D01*
X93458846Y-94857233D01*
X93456523Y-94852251D01*
X93354316Y-94706284D01*
X93328357Y-94669211D01*
X93328355Y-94669208D01*
X93325198Y-94664700D01*
X93163300Y-94502802D01*
X93158792Y-94499645D01*
X93158789Y-94499643D01*
X93040704Y-94416959D01*
X92975749Y-94371477D01*
X92970767Y-94369154D01*
X92970762Y-94369151D01*
X92773225Y-94277039D01*
X92773224Y-94277039D01*
X92768243Y-94274716D01*
X92762935Y-94273294D01*
X92762933Y-94273293D01*
X92552402Y-94216881D01*
X92552400Y-94216881D01*
X92547087Y-94215457D01*
X92319000Y-94195502D01*
X92090913Y-94215457D01*
X92085600Y-94216881D01*
X92085598Y-94216881D01*
X91875067Y-94273293D01*
X91875065Y-94273294D01*
X91869757Y-94274716D01*
X91864776Y-94277039D01*
X91864775Y-94277039D01*
X91667238Y-94369151D01*
X91667233Y-94369154D01*
X91662251Y-94371477D01*
X91597296Y-94416959D01*
X91479211Y-94499643D01*
X91479208Y-94499645D01*
X91474700Y-94502802D01*
X91312802Y-94664700D01*
X91309645Y-94669208D01*
X91309643Y-94669211D01*
X91283684Y-94706284D01*
X91181477Y-94852251D01*
X91179154Y-94857233D01*
X91179151Y-94857238D01*
X91109875Y-95005802D01*
X91084716Y-95059757D01*
X91083294Y-95065065D01*
X91083293Y-95065067D01*
X91047404Y-95199007D01*
X91025457Y-95280913D01*
X91005502Y-95509000D01*
X90531500Y-95509000D01*
X90531500Y-93166062D01*
X91597493Y-93166062D01*
X91606789Y-93178077D01*
X91657994Y-93213931D01*
X91667489Y-93219414D01*
X91864947Y-93311490D01*
X91875239Y-93315236D01*
X92085688Y-93371625D01*
X92096481Y-93373528D01*
X92313525Y-93392517D01*
X92324475Y-93392517D01*
X92541519Y-93373528D01*
X92552312Y-93371625D01*
X92762761Y-93315236D01*
X92773053Y-93311490D01*
X92970511Y-93219414D01*
X92980006Y-93213931D01*
X93032048Y-93177491D01*
X93040424Y-93167012D01*
X93033356Y-93153566D01*
X92331812Y-92452022D01*
X92317868Y-92444408D01*
X92316035Y-92444539D01*
X92309420Y-92448790D01*
X91603923Y-93154287D01*
X91597493Y-93166062D01*
X90531500Y-93166062D01*
X90531500Y-92135767D01*
X90532027Y-92124584D01*
X90533702Y-92117091D01*
X90532782Y-92087805D01*
X90532709Y-92085475D01*
X91006483Y-92085475D01*
X91025472Y-92302519D01*
X91027375Y-92313312D01*
X91083764Y-92523761D01*
X91087510Y-92534053D01*
X91179586Y-92731511D01*
X91185069Y-92741006D01*
X91221509Y-92793048D01*
X91231988Y-92801424D01*
X91245434Y-92794356D01*
X91946978Y-92092812D01*
X91953356Y-92081132D01*
X92683408Y-92081132D01*
X92683539Y-92082965D01*
X92687790Y-92089580D01*
X93393287Y-92795077D01*
X93405062Y-92801507D01*
X93417077Y-92792211D01*
X93452931Y-92741006D01*
X93458414Y-92731511D01*
X93550490Y-92534053D01*
X93554236Y-92523761D01*
X93610625Y-92313312D01*
X93612528Y-92302519D01*
X93631517Y-92085475D01*
X93631517Y-92074525D01*
X93612528Y-91857481D01*
X93610625Y-91846688D01*
X93554236Y-91636239D01*
X93550490Y-91625947D01*
X93458414Y-91428489D01*
X93452931Y-91418994D01*
X93416491Y-91366952D01*
X93406012Y-91358576D01*
X93392566Y-91365644D01*
X92691022Y-92067188D01*
X92683408Y-92081132D01*
X91953356Y-92081132D01*
X91954592Y-92078868D01*
X91954461Y-92077035D01*
X91950210Y-92070420D01*
X91244713Y-91364923D01*
X91232938Y-91358493D01*
X91220923Y-91367789D01*
X91185069Y-91418994D01*
X91179586Y-91428489D01*
X91087510Y-91625947D01*
X91083764Y-91636239D01*
X91027375Y-91846688D01*
X91025472Y-91857481D01*
X91006483Y-92074525D01*
X91006483Y-92085475D01*
X90532709Y-92085475D01*
X90531562Y-92049014D01*
X90531500Y-92045055D01*
X90531500Y-92017144D01*
X90530995Y-92013144D01*
X90530062Y-92001301D01*
X90529631Y-91987567D01*
X90528673Y-91957110D01*
X90523022Y-91937658D01*
X90519014Y-91918306D01*
X90517467Y-91906063D01*
X90516474Y-91898203D01*
X90513179Y-91889881D01*
X90500200Y-91857097D01*
X90496355Y-91845870D01*
X90495721Y-91843687D01*
X90484018Y-91803407D01*
X90479984Y-91796585D01*
X90479981Y-91796579D01*
X90473706Y-91785968D01*
X90465010Y-91768218D01*
X90460472Y-91756756D01*
X90460469Y-91756751D01*
X90457552Y-91749383D01*
X90433002Y-91715592D01*
X90431573Y-91713625D01*
X90425057Y-91703707D01*
X90406575Y-91672457D01*
X90402542Y-91665637D01*
X90388218Y-91651313D01*
X90375376Y-91636278D01*
X90371365Y-91630757D01*
X90363472Y-91619893D01*
X90329406Y-91591711D01*
X90320627Y-91583722D01*
X90082152Y-91345247D01*
X90048126Y-91282935D01*
X90049540Y-91223541D01*
X90050016Y-91221766D01*
X90066543Y-91160087D01*
X90081162Y-90992988D01*
X91597576Y-90992988D01*
X91604644Y-91006434D01*
X92306188Y-91707978D01*
X92320132Y-91715592D01*
X92321965Y-91715461D01*
X92328580Y-91711210D01*
X93034077Y-91005713D01*
X93040507Y-90993938D01*
X93031211Y-90981923D01*
X92980006Y-90946069D01*
X92970511Y-90940586D01*
X92773053Y-90848510D01*
X92762761Y-90844764D01*
X92552312Y-90788375D01*
X92541519Y-90786472D01*
X92324475Y-90767483D01*
X92313525Y-90767483D01*
X92096481Y-90786472D01*
X92085688Y-90788375D01*
X91875239Y-90844764D01*
X91864947Y-90848510D01*
X91667489Y-90940586D01*
X91657994Y-90946069D01*
X91605952Y-90982509D01*
X91597576Y-90992988D01*
X90081162Y-90992988D01*
X90086498Y-90932000D01*
X90066543Y-90703913D01*
X90065119Y-90698598D01*
X90008707Y-90488067D01*
X90008706Y-90488065D01*
X90007284Y-90482757D01*
X89960306Y-90382011D01*
X89912849Y-90280238D01*
X89912846Y-90280233D01*
X89910523Y-90275251D01*
X89828743Y-90158458D01*
X89782357Y-90092211D01*
X89782355Y-90092208D01*
X89779198Y-90087700D01*
X89617300Y-89925802D01*
X89612792Y-89922645D01*
X89612789Y-89922643D01*
X89517854Y-89856169D01*
X89429749Y-89794477D01*
X89424767Y-89792154D01*
X89424762Y-89792151D01*
X89390543Y-89776195D01*
X89337258Y-89729278D01*
X89317797Y-89661001D01*
X89338339Y-89593041D01*
X89390543Y-89547805D01*
X89424762Y-89531849D01*
X89424767Y-89531846D01*
X89429749Y-89529523D01*
X89564986Y-89434829D01*
X89612789Y-89401357D01*
X89612792Y-89401355D01*
X89617300Y-89398198D01*
X89779198Y-89236300D01*
X89910523Y-89048749D01*
X89912846Y-89043767D01*
X89912849Y-89043762D01*
X90004961Y-88846225D01*
X90004961Y-88846224D01*
X90007284Y-88841243D01*
X90018567Y-88799137D01*
X90065119Y-88625402D01*
X90065119Y-88625400D01*
X90066543Y-88620087D01*
X90086498Y-88392000D01*
X90066543Y-88163913D01*
X90056315Y-88125743D01*
X90008707Y-87948067D01*
X90008706Y-87948065D01*
X90007284Y-87942757D01*
X89993591Y-87913392D01*
X89912849Y-87740238D01*
X89912846Y-87740233D01*
X89910523Y-87735251D01*
X89880615Y-87692538D01*
X89857926Y-87625266D01*
X89875210Y-87556405D01*
X89894732Y-87531172D01*
X90830430Y-86595474D01*
X90892742Y-86561448D01*
X90963557Y-86566513D01*
X91020393Y-86609060D01*
X91041231Y-86651956D01*
X91061478Y-86727518D01*
X91082165Y-86804721D01*
X91084716Y-86814243D01*
X91087039Y-86819224D01*
X91087039Y-86819225D01*
X91179151Y-87016762D01*
X91179154Y-87016767D01*
X91181477Y-87021749D01*
X91248311Y-87117198D01*
X91305240Y-87198500D01*
X91312802Y-87209300D01*
X91474700Y-87371198D01*
X91479208Y-87374355D01*
X91479211Y-87374357D01*
X91530016Y-87409931D01*
X91662251Y-87502523D01*
X91667233Y-87504846D01*
X91667238Y-87504849D01*
X91853761Y-87591825D01*
X91869757Y-87599284D01*
X91875065Y-87600706D01*
X91875067Y-87600707D01*
X92085598Y-87657119D01*
X92085600Y-87657119D01*
X92090913Y-87658543D01*
X92319000Y-87678498D01*
X92547087Y-87658543D01*
X92552400Y-87657119D01*
X92552402Y-87657119D01*
X92762933Y-87600707D01*
X92762935Y-87600706D01*
X92768243Y-87599284D01*
X92784239Y-87591825D01*
X92970762Y-87504849D01*
X92970767Y-87504846D01*
X92975749Y-87502523D01*
X93107984Y-87409931D01*
X93158789Y-87374357D01*
X93158792Y-87374355D01*
X93163300Y-87371198D01*
X93325198Y-87209300D01*
X93332761Y-87198500D01*
X93389689Y-87117198D01*
X93456523Y-87021749D01*
X93458846Y-87016767D01*
X93458849Y-87016762D01*
X93550961Y-86819225D01*
X93550961Y-86819224D01*
X93553284Y-86814243D01*
X93555836Y-86804721D01*
X93611119Y-86598402D01*
X93611120Y-86598398D01*
X93612543Y-86593087D01*
X93632498Y-86365000D01*
X93612543Y-86136913D01*
X93602160Y-86098163D01*
X93554707Y-85921067D01*
X93554706Y-85921065D01*
X93553284Y-85915757D01*
X93550961Y-85910775D01*
X93458849Y-85713238D01*
X93458846Y-85713233D01*
X93456523Y-85708251D01*
X93366440Y-85579599D01*
X93328357Y-85525211D01*
X93328355Y-85525208D01*
X93325198Y-85520700D01*
X93163300Y-85358802D01*
X93158792Y-85355645D01*
X93158789Y-85355643D01*
X93031765Y-85266700D01*
X92975749Y-85227477D01*
X92970767Y-85225154D01*
X92970762Y-85225151D01*
X92773225Y-85133039D01*
X92773224Y-85133039D01*
X92768243Y-85130716D01*
X92762935Y-85129294D01*
X92762933Y-85129293D01*
X92671531Y-85104802D01*
X92605957Y-85087231D01*
X92545335Y-85050280D01*
X92514314Y-84986420D01*
X92522742Y-84915925D01*
X92549474Y-84876430D01*
X92711247Y-84714657D01*
X92719537Y-84707113D01*
X92726018Y-84703000D01*
X92772659Y-84653332D01*
X92775413Y-84650491D01*
X92795134Y-84630770D01*
X92797612Y-84627575D01*
X92805318Y-84618553D01*
X92830158Y-84592101D01*
X92835586Y-84586321D01*
X92845346Y-84568568D01*
X92856199Y-84552045D01*
X92856832Y-84551229D01*
X92868613Y-84536041D01*
X92871761Y-84528766D01*
X92872937Y-84526778D01*
X92928141Y-84476723D01*
X92970758Y-84456851D01*
X92970764Y-84456848D01*
X92975749Y-84454523D01*
X93102328Y-84365891D01*
X93158789Y-84326357D01*
X93158792Y-84326355D01*
X93163300Y-84323198D01*
X93325198Y-84161300D01*
X93338698Y-84142021D01*
X93402298Y-84051190D01*
X93456523Y-83973749D01*
X93458846Y-83968767D01*
X93458849Y-83968762D01*
X93550961Y-83771225D01*
X93550961Y-83771224D01*
X93553284Y-83766243D01*
X93567079Y-83714762D01*
X93611119Y-83550402D01*
X93611119Y-83550400D01*
X93612543Y-83545087D01*
X93632498Y-83317000D01*
X93612543Y-83088913D01*
X93604133Y-83057525D01*
X93554707Y-82873067D01*
X93554706Y-82873065D01*
X93553284Y-82867757D01*
X93550961Y-82862775D01*
X93458849Y-82665238D01*
X93458846Y-82665233D01*
X93456523Y-82660251D01*
X93325198Y-82472700D01*
X93163300Y-82310802D01*
X93158792Y-82307645D01*
X93158789Y-82307643D01*
X93031765Y-82218700D01*
X92975749Y-82179477D01*
X92970767Y-82177154D01*
X92970762Y-82177151D01*
X92773225Y-82085039D01*
X92773224Y-82085039D01*
X92768243Y-82082716D01*
X92762935Y-82081294D01*
X92762933Y-82081293D01*
X92594670Y-82036207D01*
X92534047Y-81999255D01*
X92503026Y-81935394D01*
X92511454Y-81864900D01*
X92556657Y-81810153D01*
X92627281Y-81788500D01*
X99630719Y-81788500D01*
X99698840Y-81808502D01*
X99745333Y-81862158D01*
X99755437Y-81932432D01*
X99725943Y-81997012D01*
X99663330Y-82036207D01*
X99495067Y-82081293D01*
X99495065Y-82081294D01*
X99489757Y-82082716D01*
X99484776Y-82085039D01*
X99484775Y-82085039D01*
X99287238Y-82177151D01*
X99287233Y-82177154D01*
X99282251Y-82179477D01*
X99226235Y-82218700D01*
X99099211Y-82307643D01*
X99099208Y-82307645D01*
X99094700Y-82310802D01*
X98932802Y-82472700D01*
X98801477Y-82660251D01*
X98799154Y-82665233D01*
X98799151Y-82665238D01*
X98707039Y-82862775D01*
X98704716Y-82867757D01*
X98703294Y-82873065D01*
X98703293Y-82873067D01*
X98653867Y-83057525D01*
X98645457Y-83088913D01*
X98625502Y-83317000D01*
X98645457Y-83545087D01*
X98646881Y-83550400D01*
X98646881Y-83550402D01*
X98690922Y-83714762D01*
X98704716Y-83766243D01*
X98707039Y-83771224D01*
X98707039Y-83771225D01*
X98799151Y-83968762D01*
X98799154Y-83968767D01*
X98801477Y-83973749D01*
X98855702Y-84051190D01*
X98919303Y-84142021D01*
X98932802Y-84161300D01*
X99094700Y-84323198D01*
X99099208Y-84326355D01*
X99099211Y-84326357D01*
X99251771Y-84433181D01*
X99296099Y-84488638D01*
X99305500Y-84536394D01*
X99305500Y-85145606D01*
X99285498Y-85213727D01*
X99251771Y-85248819D01*
X99099211Y-85355643D01*
X99099208Y-85355645D01*
X99094700Y-85358802D01*
X98932802Y-85520700D01*
X98929645Y-85525208D01*
X98929643Y-85525211D01*
X98891560Y-85579599D01*
X98801477Y-85708251D01*
X98799154Y-85713233D01*
X98799151Y-85713238D01*
X98707039Y-85910775D01*
X98704716Y-85915757D01*
X98703294Y-85921065D01*
X98703293Y-85921067D01*
X98655840Y-86098163D01*
X98645457Y-86136913D01*
X98625502Y-86365000D01*
X98645457Y-86593087D01*
X98661232Y-86651958D01*
X98662460Y-86656541D01*
X98660770Y-86727518D01*
X98629848Y-86778247D01*
X98421747Y-86986348D01*
X98413461Y-86993888D01*
X98406982Y-86998000D01*
X98401557Y-87003777D01*
X98360357Y-87047651D01*
X98357602Y-87050493D01*
X98337865Y-87070230D01*
X98335385Y-87073427D01*
X98327682Y-87082447D01*
X98297414Y-87114679D01*
X98293595Y-87121625D01*
X98293593Y-87121628D01*
X98287652Y-87132434D01*
X98276801Y-87148953D01*
X98264386Y-87164959D01*
X98261241Y-87172228D01*
X98261238Y-87172232D01*
X98246826Y-87205537D01*
X98241609Y-87216187D01*
X98220305Y-87254940D01*
X98218334Y-87262615D01*
X98218334Y-87262616D01*
X98215267Y-87274562D01*
X98208863Y-87293266D01*
X98200819Y-87311855D01*
X98199580Y-87319678D01*
X98199577Y-87319688D01*
X98193901Y-87355524D01*
X98191495Y-87367144D01*
X98182472Y-87402289D01*
X98180500Y-87409970D01*
X98180500Y-87430224D01*
X98178949Y-87449934D01*
X98175780Y-87469943D01*
X98176526Y-87477835D01*
X98179941Y-87513961D01*
X98180500Y-87525819D01*
X98180500Y-94305233D01*
X98179973Y-94316416D01*
X98178298Y-94323909D01*
X98178547Y-94331835D01*
X98178547Y-94331836D01*
X98180438Y-94391986D01*
X98180500Y-94395945D01*
X98180500Y-97465233D01*
X98179973Y-97476416D01*
X98178298Y-97483909D01*
X98178547Y-97491835D01*
X98178547Y-97491836D01*
X98180438Y-97551986D01*
X98180500Y-97555945D01*
X98180500Y-97583856D01*
X98180997Y-97587790D01*
X98180997Y-97587791D01*
X98181005Y-97587856D01*
X98181938Y-97599693D01*
X98183327Y-97643889D01*
X98188606Y-97662060D01*
X98188978Y-97663339D01*
X98192987Y-97682700D01*
X98195526Y-97702797D01*
X98198445Y-97710168D01*
X98198445Y-97710170D01*
X98211804Y-97743912D01*
X98215649Y-97755142D01*
X98227982Y-97797593D01*
X98232015Y-97804412D01*
X98232017Y-97804417D01*
X98238293Y-97815028D01*
X98246988Y-97832776D01*
X98254448Y-97851617D01*
X98259110Y-97858033D01*
X98259110Y-97858034D01*
X98280436Y-97887387D01*
X98286952Y-97897307D01*
X98301951Y-97922668D01*
X98309458Y-97935362D01*
X98323779Y-97949683D01*
X98336619Y-97964716D01*
X98348528Y-97981107D01*
X98382605Y-98009298D01*
X98391384Y-98017288D01*
X98608540Y-98234444D01*
X98642566Y-98296756D01*
X98644966Y-98334520D01*
X98627464Y-98534570D01*
X98625502Y-98557000D01*
X98642133Y-98747087D01*
X98644162Y-98770283D01*
X98630173Y-98839888D01*
X98607736Y-98870360D01*
X97572184Y-99905911D01*
X96543500Y-100934595D01*
X96481188Y-100968621D01*
X96454405Y-100971500D01*
X93538394Y-100971500D01*
X93470273Y-100951498D01*
X93435181Y-100917771D01*
X93328357Y-100765211D01*
X93328355Y-100765208D01*
X93325198Y-100760700D01*
X93163300Y-100598802D01*
X93158792Y-100595645D01*
X93158789Y-100595643D01*
X93031765Y-100506700D01*
X92975749Y-100467477D01*
X92970767Y-100465154D01*
X92970762Y-100465151D01*
X92773225Y-100373039D01*
X92773224Y-100373039D01*
X92768243Y-100370716D01*
X92762935Y-100369294D01*
X92762933Y-100369293D01*
X92552402Y-100312881D01*
X92552400Y-100312881D01*
X92547087Y-100311457D01*
X92319000Y-100291502D01*
X92090913Y-100311457D01*
X92085600Y-100312881D01*
X92085598Y-100312881D01*
X91875067Y-100369293D01*
X91875065Y-100369294D01*
X91869757Y-100370716D01*
X91864776Y-100373039D01*
X91864775Y-100373039D01*
X91667238Y-100465151D01*
X91667233Y-100465154D01*
X91662251Y-100467477D01*
X91606235Y-100506700D01*
X91479211Y-100595643D01*
X91479208Y-100595645D01*
X91474700Y-100598802D01*
X91312802Y-100760700D01*
X91309645Y-100765208D01*
X91309643Y-100765211D01*
X91254902Y-100843389D01*
X91181477Y-100948251D01*
X91179154Y-100953233D01*
X91179151Y-100953238D01*
X91169138Y-100974712D01*
X91084716Y-101155757D01*
X91083294Y-101161065D01*
X91083293Y-101161067D01*
X91033867Y-101345525D01*
X91025457Y-101376913D01*
X91005502Y-101605000D01*
X91025457Y-101833087D01*
X91026881Y-101838400D01*
X91026881Y-101838402D01*
X91079934Y-102036395D01*
X91084716Y-102054243D01*
X91087039Y-102059224D01*
X91087039Y-102059225D01*
X91179151Y-102256762D01*
X91179154Y-102256767D01*
X91181477Y-102261749D01*
X91312802Y-102449300D01*
X91474700Y-102611198D01*
X91479208Y-102614355D01*
X91479211Y-102614357D01*
X91631771Y-102721181D01*
X91676099Y-102776638D01*
X91685500Y-102824394D01*
X91685500Y-104216406D01*
X91665498Y-104284527D01*
X91648595Y-104305501D01*
X90669500Y-105284595D01*
X90607188Y-105318621D01*
X90580405Y-105321500D01*
X89271866Y-105321500D01*
X89209684Y-105328255D01*
X89073295Y-105379385D01*
X88956739Y-105466739D01*
X88869385Y-105583295D01*
X88866233Y-105591704D01*
X88866232Y-105591705D01*
X88824722Y-105702433D01*
X88782081Y-105759198D01*
X88715519Y-105783898D01*
X88646170Y-105768691D01*
X88613546Y-105743004D01*
X88562799Y-105687234D01*
X88555273Y-105680215D01*
X88388139Y-105548222D01*
X88379552Y-105542517D01*
X88193117Y-105439599D01*
X88183705Y-105435369D01*
X87982959Y-105364280D01*
X87972988Y-105361646D01*
X87901837Y-105348972D01*
X87888540Y-105350432D01*
X87884000Y-105364989D01*
X87884000Y-107998517D01*
X87888064Y-108012359D01*
X87901478Y-108014393D01*
X87908184Y-108013534D01*
X87918262Y-108011392D01*
X88122255Y-107950191D01*
X88131842Y-107946433D01*
X88323095Y-107852739D01*
X88331945Y-107847464D01*
X88505328Y-107723792D01*
X88513193Y-107717145D01*
X88617897Y-107612805D01*
X88680268Y-107578889D01*
X88751075Y-107584077D01*
X88807837Y-107626723D01*
X88824819Y-107657826D01*
X88847057Y-107717145D01*
X88869385Y-107776705D01*
X88956739Y-107893261D01*
X89073295Y-107980615D01*
X89209684Y-108031745D01*
X89271866Y-108038500D01*
X91068134Y-108038500D01*
X91130316Y-108031745D01*
X91266705Y-107980615D01*
X91383261Y-107893261D01*
X91470615Y-107776705D01*
X91521745Y-107640316D01*
X91528500Y-107578134D01*
X91528500Y-106812703D01*
X104570743Y-106812703D01*
X104608268Y-107097734D01*
X104684129Y-107375036D01*
X104685813Y-107378984D01*
X104788686Y-107620164D01*
X104796923Y-107639476D01*
X104840943Y-107713028D01*
X104926548Y-107856063D01*
X104944561Y-107886161D01*
X105124313Y-108110528D01*
X105203315Y-108185498D01*
X105314541Y-108291047D01*
X105332851Y-108308423D01*
X105566317Y-108476186D01*
X105570112Y-108478195D01*
X105570113Y-108478196D01*
X105591869Y-108489715D01*
X105820392Y-108610712D01*
X106090373Y-108709511D01*
X106371264Y-108770755D01*
X106399841Y-108773004D01*
X106594282Y-108788307D01*
X106594291Y-108788307D01*
X106596739Y-108788500D01*
X106752271Y-108788500D01*
X106754407Y-108788354D01*
X106754418Y-108788354D01*
X106962548Y-108774165D01*
X106962554Y-108774164D01*
X106966825Y-108773873D01*
X106971020Y-108773004D01*
X106971022Y-108773004D01*
X107107583Y-108744724D01*
X107248342Y-108715574D01*
X107519343Y-108619607D01*
X107774812Y-108487750D01*
X107778313Y-108485289D01*
X107778317Y-108485287D01*
X107938691Y-108372574D01*
X108010023Y-108322441D01*
X108104698Y-108234463D01*
X108217479Y-108129661D01*
X108217481Y-108129658D01*
X108220622Y-108126740D01*
X108402713Y-107904268D01*
X108552927Y-107659142D01*
X108556927Y-107650031D01*
X108666757Y-107399830D01*
X108668483Y-107395898D01*
X108674410Y-107375093D01*
X108746068Y-107123534D01*
X108747244Y-107119406D01*
X108787751Y-106834784D01*
X108787845Y-106816951D01*
X108787867Y-106812703D01*
X116000743Y-106812703D01*
X116038268Y-107097734D01*
X116114129Y-107375036D01*
X116115813Y-107378984D01*
X116218686Y-107620164D01*
X116226923Y-107639476D01*
X116270943Y-107713028D01*
X116356548Y-107856063D01*
X116374561Y-107886161D01*
X116554313Y-108110528D01*
X116633315Y-108185498D01*
X116744541Y-108291047D01*
X116762851Y-108308423D01*
X116996317Y-108476186D01*
X117000112Y-108478195D01*
X117000113Y-108478196D01*
X117021869Y-108489715D01*
X117250392Y-108610712D01*
X117520373Y-108709511D01*
X117801264Y-108770755D01*
X117829841Y-108773004D01*
X118024282Y-108788307D01*
X118024291Y-108788307D01*
X118026739Y-108788500D01*
X118182271Y-108788500D01*
X118184407Y-108788354D01*
X118184418Y-108788354D01*
X118392548Y-108774165D01*
X118392554Y-108774164D01*
X118396825Y-108773873D01*
X118401020Y-108773004D01*
X118401022Y-108773004D01*
X118537583Y-108744724D01*
X118678342Y-108715574D01*
X118949343Y-108619607D01*
X119204812Y-108487750D01*
X119208313Y-108485289D01*
X119208317Y-108485287D01*
X119368691Y-108372574D01*
X119440023Y-108322441D01*
X119534698Y-108234463D01*
X119647479Y-108129661D01*
X119647481Y-108129658D01*
X119650622Y-108126740D01*
X119832713Y-107904268D01*
X119982927Y-107659142D01*
X119986927Y-107650031D01*
X120096757Y-107399830D01*
X120098483Y-107395898D01*
X120104410Y-107375093D01*
X120176068Y-107123534D01*
X120177244Y-107119406D01*
X120217751Y-106834784D01*
X120217845Y-106816951D01*
X120219235Y-106551583D01*
X120219235Y-106551576D01*
X120219257Y-106547297D01*
X120181732Y-106262266D01*
X120105871Y-105984964D01*
X120038239Y-105826403D01*
X119994763Y-105724476D01*
X119994761Y-105724472D01*
X119993077Y-105720524D01*
X119889704Y-105547800D01*
X119847643Y-105477521D01*
X119847640Y-105477517D01*
X119845439Y-105473839D01*
X119665687Y-105249472D01*
X119535087Y-105125537D01*
X119460258Y-105054527D01*
X119460255Y-105054525D01*
X119457149Y-105051577D01*
X119223683Y-104883814D01*
X119201843Y-104872250D01*
X119157493Y-104848768D01*
X118969608Y-104749288D01*
X118699627Y-104650489D01*
X118418736Y-104589245D01*
X118387685Y-104586801D01*
X118195718Y-104571693D01*
X118195709Y-104571693D01*
X118193261Y-104571500D01*
X118037729Y-104571500D01*
X118035593Y-104571646D01*
X118035582Y-104571646D01*
X117827452Y-104585835D01*
X117827446Y-104585836D01*
X117823175Y-104586127D01*
X117818980Y-104586996D01*
X117818978Y-104586996D01*
X117741210Y-104603101D01*
X117541658Y-104644426D01*
X117270657Y-104740393D01*
X117015188Y-104872250D01*
X117011687Y-104874711D01*
X117011683Y-104874713D01*
X116955304Y-104914337D01*
X116779977Y-105037559D01*
X116764892Y-105051577D01*
X116578719Y-105224580D01*
X116569378Y-105233260D01*
X116387287Y-105455732D01*
X116237073Y-105700858D01*
X116235347Y-105704791D01*
X116235346Y-105704792D01*
X116174037Y-105844457D01*
X116121517Y-105964102D01*
X116120342Y-105968229D01*
X116120341Y-105968230D01*
X116117698Y-105977509D01*
X116042756Y-106240594D01*
X116002249Y-106525216D01*
X116002227Y-106529505D01*
X116002226Y-106529512D01*
X116001438Y-106680000D01*
X116000743Y-106812703D01*
X108787867Y-106812703D01*
X108789235Y-106551583D01*
X108789235Y-106551576D01*
X108789257Y-106547297D01*
X108751732Y-106262266D01*
X108675871Y-105984964D01*
X108608239Y-105826403D01*
X108564763Y-105724476D01*
X108564761Y-105724472D01*
X108563077Y-105720524D01*
X108459704Y-105547800D01*
X108417643Y-105477521D01*
X108417640Y-105477517D01*
X108415439Y-105473839D01*
X108235687Y-105249472D01*
X108105087Y-105125537D01*
X108030258Y-105054527D01*
X108030255Y-105054525D01*
X108027149Y-105051577D01*
X107793683Y-104883814D01*
X107771843Y-104872250D01*
X107727493Y-104848768D01*
X107539608Y-104749288D01*
X107269627Y-104650489D01*
X106988736Y-104589245D01*
X106957685Y-104586801D01*
X106765718Y-104571693D01*
X106765709Y-104571693D01*
X106763261Y-104571500D01*
X106607729Y-104571500D01*
X106605593Y-104571646D01*
X106605582Y-104571646D01*
X106397452Y-104585835D01*
X106397446Y-104585836D01*
X106393175Y-104586127D01*
X106388980Y-104586996D01*
X106388978Y-104586996D01*
X106311210Y-104603101D01*
X106111658Y-104644426D01*
X105840657Y-104740393D01*
X105585188Y-104872250D01*
X105581687Y-104874711D01*
X105581683Y-104874713D01*
X105525304Y-104914337D01*
X105349977Y-105037559D01*
X105334892Y-105051577D01*
X105148719Y-105224580D01*
X105139378Y-105233260D01*
X104957287Y-105455732D01*
X104807073Y-105700858D01*
X104805347Y-105704791D01*
X104805346Y-105704792D01*
X104744037Y-105844457D01*
X104691517Y-105964102D01*
X104690342Y-105968229D01*
X104690341Y-105968230D01*
X104687698Y-105977509D01*
X104612756Y-106240594D01*
X104572249Y-106525216D01*
X104572227Y-106529505D01*
X104572226Y-106529512D01*
X104571438Y-106680000D01*
X104570743Y-106812703D01*
X91528500Y-106812703D01*
X91528500Y-106269594D01*
X91548502Y-106201473D01*
X91565405Y-106180499D01*
X92127173Y-105618732D01*
X92711253Y-105034652D01*
X92719539Y-105027112D01*
X92726018Y-105023000D01*
X92772644Y-104973348D01*
X92775398Y-104970507D01*
X92795135Y-104950770D01*
X92797615Y-104947573D01*
X92805320Y-104938551D01*
X92824619Y-104918000D01*
X92835586Y-104906321D01*
X92839405Y-104899375D01*
X92839407Y-104899372D01*
X92845348Y-104888566D01*
X92856199Y-104872047D01*
X92863758Y-104862301D01*
X92868614Y-104856041D01*
X92871759Y-104848772D01*
X92871762Y-104848768D01*
X92886174Y-104815463D01*
X92891391Y-104804813D01*
X92912695Y-104766060D01*
X92917733Y-104746437D01*
X92924137Y-104727734D01*
X92929033Y-104716420D01*
X92929033Y-104716419D01*
X92932181Y-104709145D01*
X92933420Y-104701322D01*
X92933423Y-104701312D01*
X92939099Y-104665476D01*
X92941505Y-104653856D01*
X92950528Y-104618711D01*
X92950528Y-104618710D01*
X92952500Y-104611030D01*
X92952500Y-104590776D01*
X92954051Y-104571065D01*
X92955980Y-104558886D01*
X92957220Y-104551057D01*
X92953059Y-104507038D01*
X92952500Y-104495181D01*
X92952500Y-102824394D01*
X92972502Y-102756273D01*
X93006229Y-102721181D01*
X93158789Y-102614357D01*
X93158792Y-102614355D01*
X93163300Y-102611198D01*
X93325198Y-102449300D01*
X93389689Y-102357198D01*
X93435181Y-102292229D01*
X93490638Y-102247901D01*
X93538394Y-102238500D01*
X96690233Y-102238500D01*
X96701416Y-102239027D01*
X96708909Y-102240702D01*
X96716835Y-102240453D01*
X96716836Y-102240453D01*
X96776986Y-102238562D01*
X96780945Y-102238500D01*
X96808856Y-102238500D01*
X96812791Y-102238003D01*
X96812856Y-102237995D01*
X96824693Y-102237062D01*
X96856951Y-102236048D01*
X96860970Y-102235922D01*
X96868889Y-102235673D01*
X96888343Y-102230021D01*
X96907700Y-102226013D01*
X96919930Y-102224468D01*
X96919931Y-102224468D01*
X96927797Y-102223474D01*
X96935168Y-102220555D01*
X96935170Y-102220555D01*
X96968912Y-102207196D01*
X96980142Y-102203351D01*
X97014983Y-102193229D01*
X97014984Y-102193229D01*
X97022593Y-102191018D01*
X97029412Y-102186985D01*
X97029417Y-102186983D01*
X97040028Y-102180707D01*
X97057776Y-102172012D01*
X97076617Y-102164552D01*
X97112387Y-102138564D01*
X97122307Y-102132048D01*
X97153535Y-102113580D01*
X97153538Y-102113578D01*
X97160362Y-102109542D01*
X97174683Y-102095221D01*
X97189717Y-102082380D01*
X97199694Y-102075131D01*
X97206107Y-102070472D01*
X97234298Y-102036395D01*
X97242288Y-102027616D01*
X97664904Y-101605000D01*
X98625502Y-101605000D01*
X98645457Y-101833087D01*
X98646881Y-101838400D01*
X98646881Y-101838402D01*
X98699934Y-102036395D01*
X98704716Y-102054243D01*
X98707039Y-102059224D01*
X98707039Y-102059225D01*
X98799151Y-102256762D01*
X98799154Y-102256767D01*
X98801477Y-102261749D01*
X98932802Y-102449300D01*
X99094700Y-102611198D01*
X99099208Y-102614355D01*
X99099211Y-102614357D01*
X99170136Y-102664019D01*
X99282251Y-102742523D01*
X99287233Y-102744846D01*
X99287238Y-102744849D01*
X99457825Y-102824394D01*
X99489757Y-102839284D01*
X99495065Y-102840706D01*
X99495067Y-102840707D01*
X99705598Y-102897119D01*
X99705600Y-102897119D01*
X99710913Y-102898543D01*
X99939000Y-102918498D01*
X100167087Y-102898543D01*
X100172400Y-102897119D01*
X100172402Y-102897119D01*
X100382933Y-102840707D01*
X100382935Y-102840706D01*
X100388243Y-102839284D01*
X100420175Y-102824394D01*
X100590762Y-102744849D01*
X100590767Y-102744846D01*
X100595749Y-102742523D01*
X100707864Y-102664019D01*
X100778789Y-102614357D01*
X100778792Y-102614355D01*
X100783300Y-102611198D01*
X100945198Y-102449300D01*
X101076523Y-102261749D01*
X101078846Y-102256767D01*
X101078849Y-102256762D01*
X101170961Y-102059225D01*
X101170961Y-102059224D01*
X101173284Y-102054243D01*
X101178067Y-102036395D01*
X101231119Y-101838402D01*
X101231119Y-101838400D01*
X101232543Y-101833087D01*
X101252498Y-101605000D01*
X101232543Y-101376913D01*
X101224133Y-101345525D01*
X101174707Y-101161067D01*
X101174706Y-101161065D01*
X101173284Y-101155757D01*
X101088862Y-100974712D01*
X101078849Y-100953238D01*
X101078846Y-100953233D01*
X101076523Y-100948251D01*
X101003098Y-100843389D01*
X100948357Y-100765211D01*
X100948355Y-100765208D01*
X100945198Y-100760700D01*
X100783300Y-100598802D01*
X100778792Y-100595645D01*
X100778789Y-100595643D01*
X100651765Y-100506700D01*
X100595749Y-100467477D01*
X100590767Y-100465154D01*
X100590762Y-100465151D01*
X100442335Y-100395939D01*
X101394370Y-100395939D01*
X101394594Y-100400606D01*
X101394594Y-100400611D01*
X101397457Y-100460220D01*
X101406339Y-100645131D01*
X101455010Y-100889818D01*
X101539314Y-101124622D01*
X101657398Y-101344386D01*
X101660193Y-101348130D01*
X101660195Y-101348132D01*
X101728694Y-101439863D01*
X101806668Y-101544283D01*
X101983844Y-101719921D01*
X101987606Y-101722679D01*
X101987609Y-101722682D01*
X102100185Y-101805225D01*
X102185036Y-101867440D01*
X102189171Y-101869616D01*
X102189175Y-101869618D01*
X102305009Y-101930561D01*
X102405823Y-101983602D01*
X102531860Y-102027616D01*
X102607175Y-102053917D01*
X102641354Y-102065853D01*
X102645947Y-102066725D01*
X102881867Y-102111516D01*
X102881870Y-102111516D01*
X102886456Y-102112387D01*
X103011099Y-102117284D01*
X103131075Y-102121999D01*
X103131081Y-102121999D01*
X103135743Y-102122182D01*
X103233134Y-102111516D01*
X103379087Y-102095532D01*
X103379092Y-102095531D01*
X103383740Y-102095022D01*
X103431757Y-102082380D01*
X103620476Y-102032694D01*
X103620478Y-102032693D01*
X103624999Y-102031503D01*
X103629296Y-102029657D01*
X103849924Y-101934868D01*
X103849926Y-101934867D01*
X103854218Y-101933023D01*
X104015713Y-101833087D01*
X104062391Y-101804202D01*
X104062395Y-101804199D01*
X104066364Y-101801743D01*
X104256775Y-101640548D01*
X104338316Y-101547569D01*
X104418187Y-101456494D01*
X104418191Y-101456489D01*
X104421269Y-101452979D01*
X104466672Y-101382393D01*
X104553703Y-101247087D01*
X104556231Y-101243157D01*
X104658697Y-101015691D01*
X104677717Y-100948251D01*
X104725146Y-100780082D01*
X104725147Y-100780079D01*
X104726416Y-100775578D01*
X104748905Y-100598802D01*
X104757502Y-100531222D01*
X104757502Y-100531218D01*
X104757900Y-100528092D01*
X104758142Y-100518881D01*
X104759853Y-100453528D01*
X104760207Y-100440000D01*
X104756080Y-100384469D01*
X104742064Y-100195858D01*
X104742063Y-100195854D01*
X104741718Y-100191206D01*
X104686659Y-99947878D01*
X104674247Y-99915961D01*
X104597931Y-99719714D01*
X104597930Y-99719712D01*
X104596238Y-99715361D01*
X104581471Y-99689523D01*
X104527750Y-99595532D01*
X104472442Y-99498763D01*
X104317990Y-99302842D01*
X104136276Y-99131902D01*
X104004585Y-99040545D01*
X103935130Y-98992362D01*
X103935125Y-98992359D01*
X103931292Y-98989700D01*
X103927110Y-98987637D01*
X103927102Y-98987633D01*
X103711728Y-98881423D01*
X103711725Y-98881422D01*
X103707540Y-98879358D01*
X103687438Y-98872923D01*
X103657647Y-98863387D01*
X103469937Y-98803300D01*
X103465330Y-98802550D01*
X103465327Y-98802549D01*
X103228312Y-98763949D01*
X103228313Y-98763949D01*
X103223701Y-98763198D01*
X103102753Y-98761615D01*
X102978920Y-98759994D01*
X102978917Y-98759994D01*
X102974243Y-98759933D01*
X102727042Y-98793575D01*
X102722556Y-98794883D01*
X102722554Y-98794883D01*
X102693677Y-98803300D01*
X102487528Y-98863387D01*
X102260965Y-98967834D01*
X102257056Y-98970397D01*
X102056242Y-99102056D01*
X102056237Y-99102060D01*
X102052329Y-99104622D01*
X102016011Y-99137037D01*
X101883375Y-99255419D01*
X101866202Y-99270746D01*
X101706675Y-99462557D01*
X101577252Y-99675840D01*
X101575443Y-99680154D01*
X101575442Y-99680156D01*
X101484850Y-99896194D01*
X101480775Y-99905911D01*
X101479624Y-99910443D01*
X101479623Y-99910446D01*
X101457515Y-99997498D01*
X101419365Y-100147714D01*
X101394370Y-100395939D01*
X100442335Y-100395939D01*
X100393225Y-100373039D01*
X100393224Y-100373039D01*
X100388243Y-100370716D01*
X100382935Y-100369294D01*
X100382933Y-100369293D01*
X100172402Y-100312881D01*
X100172400Y-100312881D01*
X100167087Y-100311457D01*
X99939000Y-100291502D01*
X99710913Y-100311457D01*
X99705600Y-100312881D01*
X99705598Y-100312881D01*
X99495067Y-100369293D01*
X99495065Y-100369294D01*
X99489757Y-100370716D01*
X99484776Y-100373039D01*
X99484775Y-100373039D01*
X99287238Y-100465151D01*
X99287233Y-100465154D01*
X99282251Y-100467477D01*
X99226235Y-100506700D01*
X99099211Y-100595643D01*
X99099208Y-100595645D01*
X99094700Y-100598802D01*
X98932802Y-100760700D01*
X98929645Y-100765208D01*
X98929643Y-100765211D01*
X98874902Y-100843389D01*
X98801477Y-100948251D01*
X98799154Y-100953233D01*
X98799151Y-100953238D01*
X98789138Y-100974712D01*
X98704716Y-101155757D01*
X98703294Y-101161065D01*
X98703293Y-101161067D01*
X98653867Y-101345525D01*
X98645457Y-101376913D01*
X98625502Y-101605000D01*
X97664904Y-101605000D01*
X99429534Y-99840371D01*
X99491846Y-99806345D01*
X99551240Y-99807759D01*
X99705598Y-99849119D01*
X99705600Y-99849119D01*
X99710913Y-99850543D01*
X99939000Y-99870498D01*
X100167087Y-99850543D01*
X100172400Y-99849119D01*
X100172402Y-99849119D01*
X100382933Y-99792707D01*
X100382935Y-99792706D01*
X100388243Y-99791284D01*
X100398966Y-99786284D01*
X100590762Y-99696849D01*
X100590767Y-99696846D01*
X100595749Y-99694523D01*
X100727905Y-99601986D01*
X100778789Y-99566357D01*
X100778792Y-99566355D01*
X100783300Y-99563198D01*
X100945198Y-99401300D01*
X101076523Y-99213749D01*
X101078846Y-99208767D01*
X101078849Y-99208762D01*
X101170961Y-99011225D01*
X101170961Y-99011224D01*
X101173284Y-99006243D01*
X101177004Y-98992362D01*
X101231119Y-98790402D01*
X101231119Y-98790400D01*
X101232543Y-98785087D01*
X101252498Y-98557000D01*
X101232543Y-98328913D01*
X101229777Y-98318591D01*
X101174707Y-98113067D01*
X101174706Y-98113065D01*
X101173284Y-98107757D01*
X101138069Y-98032238D01*
X101078849Y-97905238D01*
X101078846Y-97905233D01*
X101076523Y-97900251D01*
X101073504Y-97895939D01*
X111394370Y-97895939D01*
X111394594Y-97900606D01*
X111394594Y-97900611D01*
X111399028Y-97992914D01*
X111406339Y-98145131D01*
X111455010Y-98389818D01*
X111539314Y-98624622D01*
X111657398Y-98844386D01*
X111660193Y-98848130D01*
X111660195Y-98848132D01*
X111707953Y-98912087D01*
X111806668Y-99044283D01*
X111983844Y-99219921D01*
X111987606Y-99222679D01*
X111987609Y-99222682D01*
X112101937Y-99306510D01*
X112185036Y-99367440D01*
X112189171Y-99369616D01*
X112189175Y-99369618D01*
X112249393Y-99401300D01*
X112405823Y-99483602D01*
X112641354Y-99565853D01*
X112645947Y-99566725D01*
X112881867Y-99611516D01*
X112881870Y-99611516D01*
X112886456Y-99612387D01*
X113011099Y-99617284D01*
X113131075Y-99621999D01*
X113131081Y-99621999D01*
X113135743Y-99622182D01*
X113233134Y-99611516D01*
X113379087Y-99595532D01*
X113379092Y-99595531D01*
X113383740Y-99595022D01*
X113388264Y-99593831D01*
X113620476Y-99532694D01*
X113620478Y-99532693D01*
X113624999Y-99531503D01*
X113629296Y-99529657D01*
X113849924Y-99434868D01*
X113849926Y-99434867D01*
X113854218Y-99433023D01*
X114058661Y-99306510D01*
X114062391Y-99304202D01*
X114062395Y-99304199D01*
X114066364Y-99301743D01*
X114170888Y-99213257D01*
X114253209Y-99143567D01*
X114253210Y-99143566D01*
X114256775Y-99140548D01*
X114309942Y-99079923D01*
X114418187Y-98956494D01*
X114418191Y-98956489D01*
X114421269Y-98952979D01*
X114451097Y-98906607D01*
X114532477Y-98780087D01*
X114556231Y-98743157D01*
X114658697Y-98515691D01*
X114692277Y-98396625D01*
X114725146Y-98280082D01*
X114725147Y-98280079D01*
X114726416Y-98275578D01*
X114747154Y-98112562D01*
X114757502Y-98031222D01*
X114757502Y-98031218D01*
X114757900Y-98028092D01*
X114760207Y-97940000D01*
X114756168Y-97885651D01*
X114742064Y-97695858D01*
X114742063Y-97695854D01*
X114741718Y-97691206D01*
X114686659Y-97447878D01*
X114676842Y-97422634D01*
X114597931Y-97219714D01*
X114597930Y-97219712D01*
X114596238Y-97215361D01*
X114472442Y-96998763D01*
X114317990Y-96802842D01*
X114136276Y-96631902D01*
X113972601Y-96518357D01*
X113935130Y-96492362D01*
X113935125Y-96492359D01*
X113931292Y-96489700D01*
X113927110Y-96487637D01*
X113927102Y-96487633D01*
X113711728Y-96381423D01*
X113711725Y-96381422D01*
X113707540Y-96379358D01*
X113469937Y-96303300D01*
X113465330Y-96302550D01*
X113465327Y-96302549D01*
X113228312Y-96263949D01*
X113228313Y-96263949D01*
X113223701Y-96263198D01*
X113102753Y-96261615D01*
X112978920Y-96259994D01*
X112978917Y-96259994D01*
X112974243Y-96259933D01*
X112727042Y-96293575D01*
X112722556Y-96294883D01*
X112722554Y-96294883D01*
X112693677Y-96303300D01*
X112487528Y-96363387D01*
X112260965Y-96467834D01*
X112257056Y-96470397D01*
X112056242Y-96602056D01*
X112056237Y-96602060D01*
X112052329Y-96604622D01*
X111982133Y-96667274D01*
X111887814Y-96751457D01*
X111866202Y-96770746D01*
X111706675Y-96962557D01*
X111577252Y-97175840D01*
X111575443Y-97180154D01*
X111575442Y-97180156D01*
X111486952Y-97391181D01*
X111480775Y-97405911D01*
X111479624Y-97410443D01*
X111479623Y-97410446D01*
X111470325Y-97447057D01*
X111419365Y-97647714D01*
X111394370Y-97895939D01*
X101073504Y-97895939D01*
X100972745Y-97752041D01*
X100948357Y-97717211D01*
X100948355Y-97717208D01*
X100945198Y-97712700D01*
X100783300Y-97550802D01*
X100778792Y-97547645D01*
X100778789Y-97547643D01*
X100677697Y-97476858D01*
X100595749Y-97419477D01*
X100590767Y-97417154D01*
X100590762Y-97417151D01*
X100393225Y-97325039D01*
X100393224Y-97325039D01*
X100388243Y-97322716D01*
X100382935Y-97321294D01*
X100382933Y-97321293D01*
X100172402Y-97264881D01*
X100172400Y-97264881D01*
X100167087Y-97263457D01*
X99939000Y-97243502D01*
X99710913Y-97263457D01*
X99606110Y-97291539D01*
X99535135Y-97289849D01*
X99476339Y-97250055D01*
X99448391Y-97184791D01*
X99447500Y-97169832D01*
X99447500Y-96896168D01*
X99467502Y-96828047D01*
X99521158Y-96781554D01*
X99591432Y-96771450D01*
X99606105Y-96774460D01*
X99710913Y-96802543D01*
X99939000Y-96822498D01*
X100167087Y-96802543D01*
X100172400Y-96801119D01*
X100172402Y-96801119D01*
X100382933Y-96744707D01*
X100382935Y-96744706D01*
X100388243Y-96743284D01*
X100431730Y-96723006D01*
X100590762Y-96648849D01*
X100590767Y-96648846D01*
X100595749Y-96646523D01*
X100737070Y-96547569D01*
X100778789Y-96518357D01*
X100778792Y-96518355D01*
X100783300Y-96515198D01*
X100945198Y-96353300D01*
X100954326Y-96340265D01*
X101010574Y-96259933D01*
X101076523Y-96165749D01*
X101078846Y-96160767D01*
X101078849Y-96160762D01*
X101170961Y-95963225D01*
X101170961Y-95963224D01*
X101173284Y-95958243D01*
X101174707Y-95952933D01*
X101174710Y-95952925D01*
X101202928Y-95847615D01*
X101239879Y-95786993D01*
X101303740Y-95755971D01*
X101374234Y-95764400D01*
X101428981Y-95809604D01*
X101448213Y-95855645D01*
X101455010Y-95889818D01*
X101539314Y-96124622D01*
X101657398Y-96344386D01*
X101660193Y-96348130D01*
X101660195Y-96348132D01*
X101694087Y-96393519D01*
X101806668Y-96544283D01*
X101983844Y-96719921D01*
X101987606Y-96722679D01*
X101987609Y-96722682D01*
X102123089Y-96822019D01*
X102185036Y-96867440D01*
X102189171Y-96869616D01*
X102189175Y-96869618D01*
X102255707Y-96904622D01*
X102405823Y-96983602D01*
X102641354Y-97065853D01*
X102645947Y-97066725D01*
X102881867Y-97111516D01*
X102881870Y-97111516D01*
X102886456Y-97112387D01*
X103011100Y-97117285D01*
X103131075Y-97121999D01*
X103131081Y-97121999D01*
X103135743Y-97122182D01*
X103233134Y-97111516D01*
X103379087Y-97095532D01*
X103379092Y-97095531D01*
X103383740Y-97095022D01*
X103388264Y-97093831D01*
X103620476Y-97032694D01*
X103620478Y-97032693D01*
X103624999Y-97031503D01*
X103629296Y-97029657D01*
X103849924Y-96934868D01*
X103849926Y-96934867D01*
X103854218Y-96933023D01*
X103964667Y-96864675D01*
X104062391Y-96804202D01*
X104062395Y-96804199D01*
X104066364Y-96801743D01*
X104098728Y-96774345D01*
X104253209Y-96643567D01*
X104253210Y-96643566D01*
X104256775Y-96640548D01*
X104338316Y-96547569D01*
X104418187Y-96456494D01*
X104418191Y-96456489D01*
X104421269Y-96452979D01*
X104471738Y-96374517D01*
X104532508Y-96280038D01*
X104556231Y-96243157D01*
X104658697Y-96015691D01*
X104673494Y-95963225D01*
X104725146Y-95780082D01*
X104725147Y-95780079D01*
X104726416Y-95775578D01*
X104740017Y-95668662D01*
X104757502Y-95531222D01*
X104757502Y-95531218D01*
X104757900Y-95528092D01*
X104758544Y-95503525D01*
X104760124Y-95443160D01*
X104760207Y-95440000D01*
X104753574Y-95350743D01*
X104742064Y-95195858D01*
X104742063Y-95195854D01*
X104741718Y-95191206D01*
X104686659Y-94947878D01*
X104684966Y-94943524D01*
X104597931Y-94719714D01*
X104597930Y-94719712D01*
X104596238Y-94715361D01*
X104588565Y-94701935D01*
X104502813Y-94551901D01*
X104472442Y-94498763D01*
X104317990Y-94302842D01*
X104136276Y-94131902D01*
X104020160Y-94051350D01*
X103935130Y-93992362D01*
X103935125Y-93992359D01*
X103931292Y-93989700D01*
X103927110Y-93987637D01*
X103927102Y-93987633D01*
X103711728Y-93881423D01*
X103711725Y-93881422D01*
X103707540Y-93879358D01*
X103469937Y-93803300D01*
X103465330Y-93802550D01*
X103465327Y-93802549D01*
X103228312Y-93763949D01*
X103228313Y-93763949D01*
X103223701Y-93763198D01*
X103102753Y-93761615D01*
X102978920Y-93759994D01*
X102978917Y-93759994D01*
X102974243Y-93759933D01*
X102727042Y-93793575D01*
X102722556Y-93794883D01*
X102722554Y-93794883D01*
X102693677Y-93803300D01*
X102487528Y-93863387D01*
X102260965Y-93967834D01*
X102257056Y-93970397D01*
X102056242Y-94102056D01*
X102056237Y-94102060D01*
X102052329Y-94104622D01*
X101991964Y-94158500D01*
X101879449Y-94258923D01*
X101866202Y-94270746D01*
X101706675Y-94462557D01*
X101577252Y-94675840D01*
X101575443Y-94680154D01*
X101575442Y-94680156D01*
X101492147Y-94878793D01*
X101480775Y-94905911D01*
X101479624Y-94910443D01*
X101479623Y-94910446D01*
X101429946Y-95106051D01*
X101393791Y-95167152D01*
X101330342Y-95199007D01*
X101259743Y-95191502D01*
X101204410Y-95147020D01*
X101186116Y-95107647D01*
X101185689Y-95106051D01*
X101173284Y-95059757D01*
X101148125Y-95005802D01*
X101078849Y-94857238D01*
X101078846Y-94857233D01*
X101076523Y-94852251D01*
X100974316Y-94706284D01*
X100948357Y-94669211D01*
X100948355Y-94669208D01*
X100945198Y-94664700D01*
X100783300Y-94502802D01*
X100778792Y-94499645D01*
X100778789Y-94499643D01*
X100660704Y-94416959D01*
X100595749Y-94371477D01*
X100590767Y-94369154D01*
X100590762Y-94369151D01*
X100393225Y-94277039D01*
X100393224Y-94277039D01*
X100388243Y-94274716D01*
X100382935Y-94273294D01*
X100382933Y-94273293D01*
X100172402Y-94216881D01*
X100172400Y-94216881D01*
X100167087Y-94215457D01*
X99939000Y-94195502D01*
X99710913Y-94215457D01*
X99647458Y-94232460D01*
X99576482Y-94230770D01*
X99525753Y-94199848D01*
X99484405Y-94158500D01*
X99450379Y-94096188D01*
X99447500Y-94069405D01*
X99447500Y-93467168D01*
X99467502Y-93399047D01*
X99521158Y-93352554D01*
X99591432Y-93342450D01*
X99606105Y-93345460D01*
X99710913Y-93373543D01*
X99939000Y-93393498D01*
X100167087Y-93373543D01*
X100172400Y-93372119D01*
X100172402Y-93372119D01*
X100382933Y-93315707D01*
X100382935Y-93315706D01*
X100388243Y-93314284D01*
X100483947Y-93269657D01*
X100590762Y-93219849D01*
X100590767Y-93219846D01*
X100595749Y-93217523D01*
X100700611Y-93144098D01*
X100778789Y-93089357D01*
X100778792Y-93089355D01*
X100783300Y-93086198D01*
X100945198Y-92924300D01*
X100963059Y-92898793D01*
X101003098Y-92841611D01*
X101076523Y-92736749D01*
X101078846Y-92731767D01*
X101078849Y-92731762D01*
X101170961Y-92534225D01*
X101170961Y-92534224D01*
X101173284Y-92529243D01*
X101179785Y-92504983D01*
X101231119Y-92313402D01*
X101231119Y-92313400D01*
X101232543Y-92308087D01*
X101252498Y-92080000D01*
X101232543Y-91851913D01*
X101219546Y-91803407D01*
X101174707Y-91636067D01*
X101174706Y-91636065D01*
X101173284Y-91630757D01*
X101155798Y-91593257D01*
X101078849Y-91428238D01*
X101078846Y-91428233D01*
X101076523Y-91423251D01*
X101001346Y-91315887D01*
X100948357Y-91240211D01*
X100948355Y-91240208D01*
X100945198Y-91235700D01*
X100783300Y-91073802D01*
X100778792Y-91070645D01*
X100778789Y-91070643D01*
X100667886Y-90992988D01*
X100595749Y-90942477D01*
X100590767Y-90940154D01*
X100590762Y-90940151D01*
X100393225Y-90848039D01*
X100393224Y-90848039D01*
X100388243Y-90845716D01*
X100382935Y-90844294D01*
X100382933Y-90844293D01*
X100172402Y-90787881D01*
X100172400Y-90787881D01*
X100167087Y-90786457D01*
X99939000Y-90766502D01*
X99710913Y-90786457D01*
X99606110Y-90814539D01*
X99535135Y-90812849D01*
X99476339Y-90773055D01*
X99448391Y-90707791D01*
X99447500Y-90692832D01*
X99447500Y-89219939D01*
X101267370Y-89219939D01*
X101267594Y-89224606D01*
X101267594Y-89224611D01*
X101268343Y-89240197D01*
X101279339Y-89469131D01*
X101328010Y-89713818D01*
X101412314Y-89948622D01*
X101530398Y-90168386D01*
X101533193Y-90172130D01*
X101533195Y-90172132D01*
X101568566Y-90219499D01*
X101679668Y-90368283D01*
X101856844Y-90543921D01*
X101860606Y-90546679D01*
X101860609Y-90546682D01*
X102049063Y-90684861D01*
X102058036Y-90691440D01*
X102062171Y-90693616D01*
X102062175Y-90693618D01*
X102178009Y-90754561D01*
X102278823Y-90807602D01*
X102514354Y-90889853D01*
X102518947Y-90890725D01*
X102754867Y-90935516D01*
X102754870Y-90935516D01*
X102759456Y-90936387D01*
X102884099Y-90941284D01*
X103004075Y-90945999D01*
X103004081Y-90945999D01*
X103008743Y-90946182D01*
X103106134Y-90935516D01*
X103252087Y-90919532D01*
X103252092Y-90919531D01*
X103256740Y-90919022D01*
X103267588Y-90916166D01*
X103493476Y-90856694D01*
X103493478Y-90856693D01*
X103497999Y-90855503D01*
X103554096Y-90831402D01*
X103722924Y-90758868D01*
X103722926Y-90758867D01*
X103727218Y-90757023D01*
X103829914Y-90693473D01*
X103935391Y-90628202D01*
X103935395Y-90628199D01*
X103939364Y-90625743D01*
X104129775Y-90464548D01*
X104211316Y-90371569D01*
X104291187Y-90280494D01*
X104291191Y-90280489D01*
X104294269Y-90276979D01*
X104326046Y-90227577D01*
X104407766Y-90100528D01*
X104429231Y-90067157D01*
X104531697Y-89839691D01*
X104553317Y-89763031D01*
X104598146Y-89604082D01*
X104598147Y-89604079D01*
X104599416Y-89599578D01*
X104611189Y-89507038D01*
X104630502Y-89355222D01*
X104630502Y-89355218D01*
X104630900Y-89352092D01*
X104633207Y-89264000D01*
X104631438Y-89240197D01*
X104615064Y-89019858D01*
X104615063Y-89019854D01*
X104614718Y-89015206D01*
X104559659Y-88771878D01*
X104555753Y-88761833D01*
X104470931Y-88543714D01*
X104470930Y-88543712D01*
X104469238Y-88539361D01*
X104455486Y-88515299D01*
X104400750Y-88419532D01*
X104345442Y-88322763D01*
X104190990Y-88126842D01*
X104009276Y-87955902D01*
X103877585Y-87864545D01*
X103808130Y-87816362D01*
X103808125Y-87816359D01*
X103804292Y-87813700D01*
X103800110Y-87811637D01*
X103800102Y-87811633D01*
X103584728Y-87705423D01*
X103584725Y-87705422D01*
X103580540Y-87703358D01*
X103342937Y-87627300D01*
X103338330Y-87626550D01*
X103338327Y-87626549D01*
X103101312Y-87587949D01*
X103101313Y-87587949D01*
X103096701Y-87587198D01*
X102975753Y-87585615D01*
X102851920Y-87583994D01*
X102851917Y-87583994D01*
X102847243Y-87583933D01*
X102600042Y-87617575D01*
X102595556Y-87618883D01*
X102595554Y-87618883D01*
X102566677Y-87627300D01*
X102360528Y-87687387D01*
X102133965Y-87791834D01*
X102124095Y-87798305D01*
X101929242Y-87926056D01*
X101929237Y-87926060D01*
X101925329Y-87928622D01*
X101889011Y-87961037D01*
X101772473Y-88065051D01*
X101739202Y-88094746D01*
X101579675Y-88286557D01*
X101450252Y-88499840D01*
X101448443Y-88504154D01*
X101448442Y-88504156D01*
X101356853Y-88722572D01*
X101353775Y-88729911D01*
X101352624Y-88734443D01*
X101352623Y-88734446D01*
X101336194Y-88799137D01*
X101292365Y-88971714D01*
X101267370Y-89219939D01*
X99447500Y-89219939D01*
X99447500Y-87804594D01*
X99467502Y-87736473D01*
X99484405Y-87715499D01*
X99525752Y-87674152D01*
X99588064Y-87640126D01*
X99647459Y-87641541D01*
X99705591Y-87657118D01*
X99705602Y-87657120D01*
X99710913Y-87658543D01*
X99939000Y-87678498D01*
X100167087Y-87658543D01*
X100172400Y-87657119D01*
X100172402Y-87657119D01*
X100382933Y-87600707D01*
X100382935Y-87600706D01*
X100388243Y-87599284D01*
X100404239Y-87591825D01*
X100590762Y-87504849D01*
X100590767Y-87504846D01*
X100595749Y-87502523D01*
X100727984Y-87409931D01*
X100778789Y-87374357D01*
X100778792Y-87374355D01*
X100783300Y-87371198D01*
X100945198Y-87209300D01*
X100952761Y-87198500D01*
X101009689Y-87117198D01*
X101076523Y-87021749D01*
X101078846Y-87016767D01*
X101078849Y-87016762D01*
X101170961Y-86819225D01*
X101170961Y-86819224D01*
X101173284Y-86814243D01*
X101175836Y-86804721D01*
X101198553Y-86719939D01*
X111267370Y-86719939D01*
X111267594Y-86724606D01*
X111267594Y-86724611D01*
X111272087Y-86818142D01*
X111279339Y-86969131D01*
X111328010Y-87213818D01*
X111412314Y-87448622D01*
X111530398Y-87668386D01*
X111533193Y-87672130D01*
X111533195Y-87672132D01*
X111546051Y-87689348D01*
X111679668Y-87868283D01*
X111856844Y-88043921D01*
X111860606Y-88046679D01*
X111860609Y-88046682D01*
X111974937Y-88130510D01*
X112058036Y-88191440D01*
X112062171Y-88193616D01*
X112062175Y-88193618D01*
X112138984Y-88234029D01*
X112278823Y-88307602D01*
X112333858Y-88326821D01*
X112477317Y-88376919D01*
X112514354Y-88389853D01*
X112518947Y-88390725D01*
X112754867Y-88435516D01*
X112754870Y-88435516D01*
X112759456Y-88436387D01*
X112884099Y-88441284D01*
X113004075Y-88445999D01*
X113004081Y-88445999D01*
X113008743Y-88446182D01*
X113106134Y-88435516D01*
X113252087Y-88419532D01*
X113252092Y-88419531D01*
X113256740Y-88419022D01*
X113261264Y-88417831D01*
X113493476Y-88356694D01*
X113493478Y-88356693D01*
X113497999Y-88355503D01*
X113502296Y-88353657D01*
X113722924Y-88258868D01*
X113722926Y-88258867D01*
X113727218Y-88257023D01*
X113837667Y-88188675D01*
X113935391Y-88128202D01*
X113935395Y-88128199D01*
X113939364Y-88125743D01*
X114095573Y-87993502D01*
X114126209Y-87967567D01*
X114126210Y-87967566D01*
X114129775Y-87964548D01*
X114211316Y-87871569D01*
X114291187Y-87780494D01*
X114291191Y-87780489D01*
X114294269Y-87776979D01*
X114351897Y-87687387D01*
X114426703Y-87571087D01*
X114429231Y-87567157D01*
X114531697Y-87339691D01*
X114550065Y-87274562D01*
X114598146Y-87104082D01*
X114598147Y-87104079D01*
X114599416Y-87099578D01*
X114608552Y-87027761D01*
X114630502Y-86855222D01*
X114630502Y-86855218D01*
X114630900Y-86852092D01*
X114633207Y-86764000D01*
X114629587Y-86715285D01*
X114615064Y-86519858D01*
X114615063Y-86519854D01*
X114614718Y-86515206D01*
X114559659Y-86271878D01*
X114557966Y-86267524D01*
X114470931Y-86043714D01*
X114470930Y-86043712D01*
X114469238Y-86039361D01*
X114345442Y-85822763D01*
X114190990Y-85626842D01*
X114009276Y-85455902D01*
X113887710Y-85371569D01*
X113808130Y-85316362D01*
X113808125Y-85316359D01*
X113804292Y-85313700D01*
X113800110Y-85311637D01*
X113800102Y-85311633D01*
X113619769Y-85222703D01*
X116000743Y-85222703D01*
X116001302Y-85226947D01*
X116001302Y-85226951D01*
X116009844Y-85291834D01*
X116038268Y-85507734D01*
X116114129Y-85785036D01*
X116115813Y-85788984D01*
X116222609Y-86039361D01*
X116226923Y-86049476D01*
X116282533Y-86142393D01*
X116366086Y-86282000D01*
X116374561Y-86296161D01*
X116554313Y-86520528D01*
X116615006Y-86578123D01*
X116732747Y-86689855D01*
X116762851Y-86718423D01*
X116996317Y-86886186D01*
X117000112Y-86888195D01*
X117000113Y-86888196D01*
X117018394Y-86897875D01*
X117250392Y-87020712D01*
X117378044Y-87067426D01*
X117465904Y-87099578D01*
X117520373Y-87119511D01*
X117801264Y-87180755D01*
X117829841Y-87183004D01*
X118024282Y-87198307D01*
X118024291Y-87198307D01*
X118026739Y-87198500D01*
X118182271Y-87198500D01*
X118184407Y-87198354D01*
X118184418Y-87198354D01*
X118392548Y-87184165D01*
X118392554Y-87184164D01*
X118396825Y-87183873D01*
X118401020Y-87183004D01*
X118401022Y-87183004D01*
X118645216Y-87132434D01*
X118678342Y-87125574D01*
X118949343Y-87029607D01*
X119150551Y-86925756D01*
X119201005Y-86899715D01*
X119201006Y-86899715D01*
X119204812Y-86897750D01*
X119208313Y-86895289D01*
X119208317Y-86895287D01*
X119374759Y-86778309D01*
X119440023Y-86732441D01*
X119589986Y-86593087D01*
X119647479Y-86539661D01*
X119647481Y-86539658D01*
X119650622Y-86536740D01*
X119832713Y-86314268D01*
X119982927Y-86069142D01*
X120013349Y-85999840D01*
X120096757Y-85809830D01*
X120098483Y-85805898D01*
X120100810Y-85797731D01*
X120176068Y-85533534D01*
X120177244Y-85529406D01*
X120217751Y-85244784D01*
X120217826Y-85230634D01*
X120219235Y-84961583D01*
X120219235Y-84961576D01*
X120219257Y-84957297D01*
X120205092Y-84849699D01*
X120198220Y-84797502D01*
X120181732Y-84672266D01*
X120167571Y-84620500D01*
X120156319Y-84579372D01*
X120105871Y-84394964D01*
X120089483Y-84356543D01*
X119994763Y-84134476D01*
X119994761Y-84134472D01*
X119993077Y-84130524D01*
X119911872Y-83994840D01*
X119847643Y-83887521D01*
X119847640Y-83887517D01*
X119845439Y-83883839D01*
X119665687Y-83659472D01*
X119514027Y-83515552D01*
X119460258Y-83464527D01*
X119460255Y-83464525D01*
X119457149Y-83461577D01*
X119223683Y-83293814D01*
X119201843Y-83282250D01*
X119178654Y-83269972D01*
X118969608Y-83159288D01*
X118763636Y-83083913D01*
X118703658Y-83061964D01*
X118703656Y-83061963D01*
X118699627Y-83060489D01*
X118418736Y-82999245D01*
X118387685Y-82996801D01*
X118195718Y-82981693D01*
X118195709Y-82981693D01*
X118193261Y-82981500D01*
X118037729Y-82981500D01*
X118035593Y-82981646D01*
X118035582Y-82981646D01*
X117827452Y-82995835D01*
X117827446Y-82995836D01*
X117823175Y-82996127D01*
X117818980Y-82996996D01*
X117818978Y-82996996D01*
X117682417Y-83025276D01*
X117541658Y-83054426D01*
X117270657Y-83150393D01*
X117015188Y-83282250D01*
X117011687Y-83284711D01*
X117011683Y-83284713D01*
X116957952Y-83322476D01*
X116779977Y-83447559D01*
X116726439Y-83497310D01*
X116620715Y-83595555D01*
X116569378Y-83643260D01*
X116387287Y-83865732D01*
X116237073Y-84110858D01*
X116235347Y-84114791D01*
X116235346Y-84114792D01*
X116187139Y-84224611D01*
X116121517Y-84374102D01*
X116120342Y-84378229D01*
X116120341Y-84378230D01*
X116116699Y-84391016D01*
X116042756Y-84650594D01*
X116019008Y-84817457D01*
X116008456Y-84891606D01*
X116002249Y-84935216D01*
X116002227Y-84939505D01*
X116002226Y-84939512D01*
X116000765Y-85218417D01*
X116000743Y-85222703D01*
X113619769Y-85222703D01*
X113584728Y-85205423D01*
X113584725Y-85205422D01*
X113580540Y-85203358D01*
X113570794Y-85200238D01*
X113530647Y-85187387D01*
X113342937Y-85127300D01*
X113338330Y-85126550D01*
X113338327Y-85126549D01*
X113147737Y-85095510D01*
X113096701Y-85087198D01*
X112975753Y-85085615D01*
X112851920Y-85083994D01*
X112851917Y-85083994D01*
X112847243Y-85083933D01*
X112600042Y-85117575D01*
X112595556Y-85118883D01*
X112595554Y-85118883D01*
X112566677Y-85127300D01*
X112360528Y-85187387D01*
X112356275Y-85189347D01*
X112356274Y-85189348D01*
X112332654Y-85200237D01*
X112133965Y-85291834D01*
X112130056Y-85294397D01*
X111929242Y-85426056D01*
X111929237Y-85426060D01*
X111925329Y-85428622D01*
X111841460Y-85503478D01*
X111761307Y-85575017D01*
X111739202Y-85594746D01*
X111579675Y-85786557D01*
X111450252Y-85999840D01*
X111448443Y-86004154D01*
X111448442Y-86004156D01*
X111369690Y-86191959D01*
X111353775Y-86229911D01*
X111352624Y-86234443D01*
X111352623Y-86234446D01*
X111340546Y-86282000D01*
X111292365Y-86471714D01*
X111267370Y-86719939D01*
X101198553Y-86719939D01*
X101231119Y-86598402D01*
X101231120Y-86598398D01*
X101232543Y-86593087D01*
X101252498Y-86365000D01*
X101232543Y-86136913D01*
X101222160Y-86098163D01*
X101174707Y-85921067D01*
X101174706Y-85921065D01*
X101173284Y-85915757D01*
X101170961Y-85910775D01*
X101078849Y-85713238D01*
X101078846Y-85713233D01*
X101076523Y-85708251D01*
X100986440Y-85579599D01*
X100948357Y-85525211D01*
X100948355Y-85525208D01*
X100945198Y-85520700D01*
X100783300Y-85358802D01*
X100778792Y-85355645D01*
X100778789Y-85355643D01*
X100626229Y-85248819D01*
X100581901Y-85193362D01*
X100572500Y-85145606D01*
X100572500Y-84536394D01*
X100592502Y-84468273D01*
X100626229Y-84433181D01*
X100778789Y-84326357D01*
X100778792Y-84326355D01*
X100783300Y-84323198D01*
X100945198Y-84161300D01*
X100958698Y-84142021D01*
X101022298Y-84051190D01*
X101051424Y-84009594D01*
X101106880Y-83965267D01*
X101177499Y-83957958D01*
X101240860Y-83989989D01*
X101276845Y-84051190D01*
X101280002Y-84094490D01*
X101267370Y-84219939D01*
X101267594Y-84224606D01*
X101267594Y-84224611D01*
X101272142Y-84319301D01*
X101279339Y-84469131D01*
X101328010Y-84713818D01*
X101412314Y-84948622D01*
X101530398Y-85168386D01*
X101533193Y-85172130D01*
X101533195Y-85172132D01*
X101574523Y-85227477D01*
X101679668Y-85368283D01*
X101856844Y-85543921D01*
X101860606Y-85546679D01*
X101860609Y-85546682D01*
X102017553Y-85661757D01*
X102058036Y-85691440D01*
X102062171Y-85693616D01*
X102062175Y-85693618D01*
X102099467Y-85713238D01*
X102278823Y-85807602D01*
X102333858Y-85826821D01*
X102421638Y-85857475D01*
X102514354Y-85889853D01*
X102518947Y-85890725D01*
X102754867Y-85935516D01*
X102754870Y-85935516D01*
X102759456Y-85936387D01*
X102884100Y-85941285D01*
X103004075Y-85945999D01*
X103004081Y-85945999D01*
X103008743Y-85946182D01*
X103106134Y-85935516D01*
X103252087Y-85919532D01*
X103252092Y-85919531D01*
X103256740Y-85919022D01*
X103261264Y-85917831D01*
X103493476Y-85856694D01*
X103493478Y-85856693D01*
X103497999Y-85855503D01*
X103502296Y-85853657D01*
X103722924Y-85758868D01*
X103722926Y-85758867D01*
X103727218Y-85757023D01*
X103837667Y-85688675D01*
X103935391Y-85628202D01*
X103935395Y-85628199D01*
X103939364Y-85625743D01*
X104058117Y-85525211D01*
X104126209Y-85467567D01*
X104126210Y-85467566D01*
X104129775Y-85464548D01*
X104168318Y-85420598D01*
X104291187Y-85280494D01*
X104291191Y-85280489D01*
X104294269Y-85276979D01*
X104323895Y-85230921D01*
X104426703Y-85071087D01*
X104429231Y-85067157D01*
X104531697Y-84839691D01*
X104538103Y-84816978D01*
X104598146Y-84604082D01*
X104598147Y-84604079D01*
X104599416Y-84599578D01*
X104613994Y-84484983D01*
X104630502Y-84355222D01*
X104630502Y-84355218D01*
X104630900Y-84352092D01*
X104631293Y-84337110D01*
X104633124Y-84267160D01*
X104633207Y-84264000D01*
X104630280Y-84224611D01*
X104615064Y-84019858D01*
X104615063Y-84019854D01*
X104614718Y-84015206D01*
X104559659Y-83771878D01*
X104555403Y-83760933D01*
X104470931Y-83543714D01*
X104470930Y-83543712D01*
X104469238Y-83539361D01*
X104345442Y-83322763D01*
X104190990Y-83126842D01*
X104009276Y-82955902D01*
X103834871Y-82834913D01*
X103808130Y-82816362D01*
X103808125Y-82816359D01*
X103804292Y-82813700D01*
X103800110Y-82811637D01*
X103800102Y-82811633D01*
X103584728Y-82705423D01*
X103584725Y-82705422D01*
X103580540Y-82703358D01*
X103342937Y-82627300D01*
X103338330Y-82626550D01*
X103338327Y-82626549D01*
X103101312Y-82587949D01*
X103101313Y-82587949D01*
X103096701Y-82587198D01*
X102975753Y-82585615D01*
X102851920Y-82583994D01*
X102851917Y-82583994D01*
X102847243Y-82583933D01*
X102600042Y-82617575D01*
X102595556Y-82618883D01*
X102595554Y-82618883D01*
X102566677Y-82627300D01*
X102360528Y-82687387D01*
X102133965Y-82791834D01*
X102130056Y-82794397D01*
X101929242Y-82926056D01*
X101929237Y-82926060D01*
X101925329Y-82928622D01*
X101866084Y-82981500D01*
X101745200Y-83089393D01*
X101739202Y-83094746D01*
X101579675Y-83286557D01*
X101483471Y-83445096D01*
X101480830Y-83449449D01*
X101428391Y-83497310D01*
X101358401Y-83509222D01*
X101293081Y-83481404D01*
X101253170Y-83422687D01*
X101247590Y-83373103D01*
X101252019Y-83322476D01*
X101252019Y-83322475D01*
X101252498Y-83317000D01*
X101232543Y-83088913D01*
X101224133Y-83057525D01*
X101174707Y-82873067D01*
X101174706Y-82873065D01*
X101173284Y-82867757D01*
X101170961Y-82862775D01*
X101078849Y-82665238D01*
X101078846Y-82665233D01*
X101076523Y-82660251D01*
X100945198Y-82472700D01*
X100783300Y-82310802D01*
X100778792Y-82307645D01*
X100778789Y-82307643D01*
X100651765Y-82218700D01*
X100595749Y-82179477D01*
X100590767Y-82177154D01*
X100590762Y-82177151D01*
X100393225Y-82085039D01*
X100393224Y-82085039D01*
X100388243Y-82082716D01*
X100382935Y-82081294D01*
X100382933Y-82081293D01*
X100214670Y-82036207D01*
X100154047Y-81999255D01*
X100123026Y-81935394D01*
X100131454Y-81864900D01*
X100176657Y-81810153D01*
X100247281Y-81788500D01*
X120600633Y-81788500D01*
X120620018Y-81790000D01*
X120634852Y-81792310D01*
X120634855Y-81792310D01*
X120643724Y-81793691D01*
X120653659Y-81792392D01*
X120654746Y-81792250D01*
X120683431Y-81791793D01*
X120756741Y-81799013D01*
X120786212Y-81801916D01*
X120810432Y-81806733D01*
X120929546Y-81842866D01*
X120952355Y-81852315D01*
X121062124Y-81910987D01*
X121082655Y-81924705D01*
X121178876Y-82003671D01*
X121196329Y-82021124D01*
X121275295Y-82117345D01*
X121289013Y-82137876D01*
X121347685Y-82247645D01*
X121357134Y-82270454D01*
X121393267Y-82389568D01*
X121398084Y-82413789D01*
X121407541Y-82509809D01*
X121407091Y-82525868D01*
X121407800Y-82525877D01*
X121407690Y-82534853D01*
X121406309Y-82543724D01*
X121407473Y-82552626D01*
X121407473Y-82552628D01*
X121410436Y-82575283D01*
X121411500Y-82591621D01*
X121411500Y-109170633D01*
X121410000Y-109190018D01*
X121406309Y-109213724D01*
X121407473Y-109222626D01*
X121407750Y-109224746D01*
X121408207Y-109253431D01*
X121404072Y-109295413D01*
X121398084Y-109356212D01*
X121393267Y-109380432D01*
X121357134Y-109499546D01*
X121347685Y-109522355D01*
X121289013Y-109632124D01*
X121275295Y-109652655D01*
X121196329Y-109748876D01*
X121178876Y-109766329D01*
X121082655Y-109845295D01*
X121062124Y-109859013D01*
X120952355Y-109917685D01*
X120929546Y-109927134D01*
X120810432Y-109963267D01*
X120786211Y-109968084D01*
X120690191Y-109977541D01*
X120674132Y-109977091D01*
X120674123Y-109977800D01*
X120665147Y-109977690D01*
X120656276Y-109976309D01*
X120647374Y-109977473D01*
X120647372Y-109977473D01*
X120634856Y-109979110D01*
X120624714Y-109980436D01*
X120608379Y-109981500D01*
X48309367Y-109981500D01*
X48289982Y-109980000D01*
X48275148Y-109977690D01*
X48275145Y-109977690D01*
X48266276Y-109976309D01*
X48256341Y-109977608D01*
X48255254Y-109977750D01*
X48226569Y-109978207D01*
X48153259Y-109970987D01*
X48123788Y-109968084D01*
X48099568Y-109963267D01*
X47980454Y-109927134D01*
X47957645Y-109917685D01*
X47847876Y-109859013D01*
X47827345Y-109845295D01*
X47731124Y-109766329D01*
X47713671Y-109748876D01*
X47634705Y-109652655D01*
X47620987Y-109632124D01*
X47562315Y-109522355D01*
X47552866Y-109499546D01*
X47516733Y-109380432D01*
X47511916Y-109356212D01*
X47502711Y-109262755D01*
X47502607Y-109239151D01*
X47502768Y-109237354D01*
X47503576Y-109232552D01*
X47503729Y-109220000D01*
X47499773Y-109192376D01*
X47498500Y-109174514D01*
X47498500Y-106812703D01*
X48690743Y-106812703D01*
X48728268Y-107097734D01*
X48804129Y-107375036D01*
X48805813Y-107378984D01*
X48908686Y-107620164D01*
X48916923Y-107639476D01*
X48960943Y-107713028D01*
X49046548Y-107856063D01*
X49064561Y-107886161D01*
X49244313Y-108110528D01*
X49323315Y-108185498D01*
X49434541Y-108291047D01*
X49452851Y-108308423D01*
X49686317Y-108476186D01*
X49690112Y-108478195D01*
X49690113Y-108478196D01*
X49711869Y-108489715D01*
X49940392Y-108610712D01*
X50210373Y-108709511D01*
X50491264Y-108770755D01*
X50519841Y-108773004D01*
X50714282Y-108788307D01*
X50714291Y-108788307D01*
X50716739Y-108788500D01*
X50872271Y-108788500D01*
X50874407Y-108788354D01*
X50874418Y-108788354D01*
X51082548Y-108774165D01*
X51082554Y-108774164D01*
X51086825Y-108773873D01*
X51091020Y-108773004D01*
X51091022Y-108773004D01*
X51227583Y-108744724D01*
X51368342Y-108715574D01*
X51639343Y-108619607D01*
X51894812Y-108487750D01*
X51898313Y-108485289D01*
X51898317Y-108485287D01*
X52058691Y-108372574D01*
X52130023Y-108322441D01*
X52224698Y-108234463D01*
X52337479Y-108129661D01*
X52337481Y-108129658D01*
X52340622Y-108126740D01*
X52522713Y-107904268D01*
X52672927Y-107659142D01*
X52676927Y-107650031D01*
X52786757Y-107399830D01*
X52788483Y-107395898D01*
X52794410Y-107375093D01*
X52866068Y-107123534D01*
X52867244Y-107119406D01*
X52907751Y-106834784D01*
X52907845Y-106816951D01*
X52907867Y-106812703D01*
X61570743Y-106812703D01*
X61608268Y-107097734D01*
X61684129Y-107375036D01*
X61685813Y-107378984D01*
X61788686Y-107620164D01*
X61796923Y-107639476D01*
X61840943Y-107713028D01*
X61926548Y-107856063D01*
X61944561Y-107886161D01*
X62124313Y-108110528D01*
X62203315Y-108185498D01*
X62314541Y-108291047D01*
X62332851Y-108308423D01*
X62566317Y-108476186D01*
X62570112Y-108478195D01*
X62570113Y-108478196D01*
X62591869Y-108489715D01*
X62820392Y-108610712D01*
X63090373Y-108709511D01*
X63371264Y-108770755D01*
X63399841Y-108773004D01*
X63594282Y-108788307D01*
X63594291Y-108788307D01*
X63596739Y-108788500D01*
X63752271Y-108788500D01*
X63754407Y-108788354D01*
X63754418Y-108788354D01*
X63962548Y-108774165D01*
X63962554Y-108774164D01*
X63966825Y-108773873D01*
X63971020Y-108773004D01*
X63971022Y-108773004D01*
X64107583Y-108744724D01*
X64248342Y-108715574D01*
X64519343Y-108619607D01*
X64774812Y-108487750D01*
X64778313Y-108485289D01*
X64778317Y-108485287D01*
X64938691Y-108372574D01*
X65010023Y-108322441D01*
X65104698Y-108234463D01*
X65217479Y-108129661D01*
X65217481Y-108129658D01*
X65220622Y-108126740D01*
X65402713Y-107904268D01*
X65552927Y-107659142D01*
X65556927Y-107650031D01*
X65666757Y-107399830D01*
X65668483Y-107395898D01*
X65674410Y-107375093D01*
X65746068Y-107123534D01*
X65747244Y-107119406D01*
X65787751Y-106834784D01*
X65787845Y-106816951D01*
X65789235Y-106551583D01*
X65789235Y-106551576D01*
X65789257Y-106547297D01*
X65751732Y-106262266D01*
X65675871Y-105984964D01*
X65608239Y-105826403D01*
X65564763Y-105724476D01*
X65564761Y-105724472D01*
X65563077Y-105720524D01*
X65459704Y-105547800D01*
X65417643Y-105477521D01*
X65417640Y-105477517D01*
X65415439Y-105473839D01*
X65235687Y-105249472D01*
X65105087Y-105125537D01*
X65030258Y-105054527D01*
X65030255Y-105054525D01*
X65027149Y-105051577D01*
X64793683Y-104883814D01*
X64771843Y-104872250D01*
X64727493Y-104848768D01*
X64539608Y-104749288D01*
X64269627Y-104650489D01*
X63988736Y-104589245D01*
X63957685Y-104586801D01*
X63765718Y-104571693D01*
X63765709Y-104571693D01*
X63763261Y-104571500D01*
X63607729Y-104571500D01*
X63605593Y-104571646D01*
X63605582Y-104571646D01*
X63397452Y-104585835D01*
X63397446Y-104585836D01*
X63393175Y-104586127D01*
X63388980Y-104586996D01*
X63388978Y-104586996D01*
X63311210Y-104603101D01*
X63111658Y-104644426D01*
X62840657Y-104740393D01*
X62585188Y-104872250D01*
X62581687Y-104874711D01*
X62581683Y-104874713D01*
X62525304Y-104914337D01*
X62349977Y-105037559D01*
X62334892Y-105051577D01*
X62148719Y-105224580D01*
X62139378Y-105233260D01*
X61957287Y-105455732D01*
X61807073Y-105700858D01*
X61805347Y-105704791D01*
X61805346Y-105704792D01*
X61744037Y-105844457D01*
X61691517Y-105964102D01*
X61690342Y-105968229D01*
X61690341Y-105968230D01*
X61687698Y-105977509D01*
X61612756Y-106240594D01*
X61572249Y-106525216D01*
X61572227Y-106529505D01*
X61572226Y-106529512D01*
X61571438Y-106680000D01*
X61570743Y-106812703D01*
X52907867Y-106812703D01*
X52909235Y-106551583D01*
X52909235Y-106551576D01*
X52909257Y-106547297D01*
X52871732Y-106262266D01*
X52795871Y-105984964D01*
X52728239Y-105826403D01*
X52684763Y-105724476D01*
X52684761Y-105724472D01*
X52683077Y-105720524D01*
X52579704Y-105547800D01*
X52537643Y-105477521D01*
X52537640Y-105477517D01*
X52535439Y-105473839D01*
X52355687Y-105249472D01*
X52225087Y-105125537D01*
X52150258Y-105054527D01*
X52150255Y-105054525D01*
X52147149Y-105051577D01*
X51913683Y-104883814D01*
X51891843Y-104872250D01*
X51847493Y-104848768D01*
X51659608Y-104749288D01*
X51389627Y-104650489D01*
X51108736Y-104589245D01*
X51077685Y-104586801D01*
X50885718Y-104571693D01*
X50885709Y-104571693D01*
X50883261Y-104571500D01*
X50727729Y-104571500D01*
X50725593Y-104571646D01*
X50725582Y-104571646D01*
X50517452Y-104585835D01*
X50517446Y-104585836D01*
X50513175Y-104586127D01*
X50508980Y-104586996D01*
X50508978Y-104586996D01*
X50431210Y-104603101D01*
X50231658Y-104644426D01*
X49960657Y-104740393D01*
X49705188Y-104872250D01*
X49701687Y-104874711D01*
X49701683Y-104874713D01*
X49645304Y-104914337D01*
X49469977Y-105037559D01*
X49454892Y-105051577D01*
X49268719Y-105224580D01*
X49259378Y-105233260D01*
X49077287Y-105455732D01*
X48927073Y-105700858D01*
X48925347Y-105704791D01*
X48925346Y-105704792D01*
X48864037Y-105844457D01*
X48811517Y-105964102D01*
X48810342Y-105968229D01*
X48810341Y-105968230D01*
X48807698Y-105977509D01*
X48732756Y-106240594D01*
X48692249Y-106525216D01*
X48692227Y-106529505D01*
X48692226Y-106529512D01*
X48691438Y-106680000D01*
X48690743Y-106812703D01*
X47498500Y-106812703D01*
X47498500Y-101827462D01*
X66502293Y-101827462D01*
X66511589Y-101839477D01*
X66562794Y-101875331D01*
X66572289Y-101880814D01*
X66769747Y-101972890D01*
X66780039Y-101976636D01*
X66990488Y-102033025D01*
X67001281Y-102034928D01*
X67218325Y-102053917D01*
X67229275Y-102053917D01*
X67446319Y-102034928D01*
X67457112Y-102033025D01*
X67667561Y-101976636D01*
X67677853Y-101972890D01*
X67875311Y-101880814D01*
X67884806Y-101875331D01*
X67936848Y-101838891D01*
X67945224Y-101828412D01*
X67938156Y-101814966D01*
X67236612Y-101113422D01*
X67222668Y-101105808D01*
X67220835Y-101105939D01*
X67214220Y-101110190D01*
X66508723Y-101815687D01*
X66502293Y-101827462D01*
X47498500Y-101827462D01*
X47498500Y-100746875D01*
X65911283Y-100746875D01*
X65930272Y-100963919D01*
X65932175Y-100974712D01*
X65988564Y-101185161D01*
X65992310Y-101195453D01*
X66084386Y-101392911D01*
X66089869Y-101402406D01*
X66126309Y-101454448D01*
X66136788Y-101462824D01*
X66150234Y-101455756D01*
X66851778Y-100754212D01*
X66858156Y-100742532D01*
X67588208Y-100742532D01*
X67588339Y-100744365D01*
X67592590Y-100750980D01*
X68298087Y-101456477D01*
X68309862Y-101462907D01*
X68321877Y-101453611D01*
X68357731Y-101402406D01*
X68363214Y-101392911D01*
X68455290Y-101195453D01*
X68459036Y-101185161D01*
X68515425Y-100974712D01*
X68517328Y-100963919D01*
X68536317Y-100746875D01*
X68536317Y-100735925D01*
X68517328Y-100518881D01*
X68515425Y-100508088D01*
X68459036Y-100297639D01*
X68455290Y-100287347D01*
X68363214Y-100089889D01*
X68357731Y-100080394D01*
X68321291Y-100028352D01*
X68310812Y-100019976D01*
X68297366Y-100027044D01*
X67595822Y-100728588D01*
X67588208Y-100742532D01*
X66858156Y-100742532D01*
X66859392Y-100740268D01*
X66859261Y-100738435D01*
X66855010Y-100731820D01*
X66149513Y-100026323D01*
X66137738Y-100019893D01*
X66125723Y-100029189D01*
X66089869Y-100080394D01*
X66084386Y-100089889D01*
X65992310Y-100287347D01*
X65988564Y-100297639D01*
X65932175Y-100508088D01*
X65930272Y-100518881D01*
X65911283Y-100735925D01*
X65911283Y-100746875D01*
X47498500Y-100746875D01*
X47498500Y-99654388D01*
X66502376Y-99654388D01*
X66509444Y-99667834D01*
X67210988Y-100369378D01*
X67224932Y-100376992D01*
X67226765Y-100376861D01*
X67233380Y-100372610D01*
X67938877Y-99667113D01*
X67945307Y-99655338D01*
X67936011Y-99643323D01*
X67884806Y-99607469D01*
X67875311Y-99601986D01*
X67677853Y-99509910D01*
X67667561Y-99506164D01*
X67457112Y-99449775D01*
X67446319Y-99447872D01*
X67229275Y-99428883D01*
X67218325Y-99428883D01*
X67001281Y-99447872D01*
X66990488Y-99449775D01*
X66780039Y-99506164D01*
X66769747Y-99509910D01*
X66572289Y-99601986D01*
X66562794Y-99607469D01*
X66510752Y-99643909D01*
X66502376Y-99654388D01*
X47498500Y-99654388D01*
X47498500Y-89690012D01*
X55464000Y-89690012D01*
X55479117Y-89868175D01*
X55480457Y-89873339D01*
X55480458Y-89873343D01*
X55537266Y-90092211D01*
X55539168Y-90099540D01*
X55541360Y-90104406D01*
X55620567Y-90280238D01*
X55637343Y-90317480D01*
X55770834Y-90515762D01*
X55935826Y-90688718D01*
X56127600Y-90831402D01*
X56132351Y-90833818D01*
X56132355Y-90833820D01*
X56325240Y-90931887D01*
X56340672Y-90939733D01*
X56454812Y-90975174D01*
X56563849Y-91009032D01*
X56563855Y-91009033D01*
X56568952Y-91010616D01*
X56691487Y-91026857D01*
X56800627Y-91041323D01*
X56800631Y-91041323D01*
X56805911Y-91042023D01*
X56811240Y-91041823D01*
X56811241Y-91041823D01*
X56909009Y-91038152D01*
X57044774Y-91033055D01*
X57131684Y-91014819D01*
X57273484Y-90985067D01*
X57273487Y-90985066D01*
X57278711Y-90983970D01*
X57501033Y-90896171D01*
X57705383Y-90772168D01*
X57710782Y-90767483D01*
X57881886Y-90619007D01*
X57881888Y-90619005D01*
X57885919Y-90615507D01*
X57889302Y-90611381D01*
X57889306Y-90611377D01*
X58034093Y-90434795D01*
X58037478Y-90430667D01*
X58127202Y-90273046D01*
X58153084Y-90227577D01*
X58155727Y-90222934D01*
X58237284Y-89998247D01*
X58238234Y-89992995D01*
X58279080Y-89767115D01*
X58279081Y-89767107D01*
X58279818Y-89763031D01*
X58281000Y-89737968D01*
X58281000Y-87769988D01*
X58265883Y-87591825D01*
X58264542Y-87586657D01*
X58207173Y-87365625D01*
X58207171Y-87365620D01*
X58205832Y-87360460D01*
X58167138Y-87274562D01*
X58109847Y-87147381D01*
X58109846Y-87147378D01*
X58107657Y-87142520D01*
X57974166Y-86944238D01*
X57809174Y-86771282D01*
X57804426Y-86767749D01*
X57674748Y-86671266D01*
X57617400Y-86628598D01*
X57612649Y-86626182D01*
X57612645Y-86626180D01*
X57409086Y-86522686D01*
X57409085Y-86522686D01*
X57404328Y-86520267D01*
X57268184Y-86477993D01*
X57181151Y-86450968D01*
X57181145Y-86450967D01*
X57176048Y-86449384D01*
X57048617Y-86432494D01*
X56944373Y-86418677D01*
X56944369Y-86418677D01*
X56939089Y-86417977D01*
X56933760Y-86418177D01*
X56933759Y-86418177D01*
X56835991Y-86421848D01*
X56700226Y-86426945D01*
X56613316Y-86445181D01*
X56471516Y-86474933D01*
X56471513Y-86474934D01*
X56466289Y-86476030D01*
X56243967Y-86563829D01*
X56039617Y-86687832D01*
X56035587Y-86691329D01*
X55883351Y-86823433D01*
X55859081Y-86844493D01*
X55855698Y-86848619D01*
X55855694Y-86848623D01*
X55777295Y-86944238D01*
X55707522Y-87029333D01*
X55704883Y-87033969D01*
X55704881Y-87033972D01*
X55643092Y-87142520D01*
X55589273Y-87237066D01*
X55507716Y-87461753D01*
X55506767Y-87467002D01*
X55506766Y-87467005D01*
X55465920Y-87692885D01*
X55465919Y-87692893D01*
X55465182Y-87696969D01*
X55464000Y-87722032D01*
X55464000Y-89690012D01*
X47498500Y-89690012D01*
X47498500Y-85222703D01*
X48690743Y-85222703D01*
X48691302Y-85226947D01*
X48691302Y-85226951D01*
X48699844Y-85291834D01*
X48728268Y-85507734D01*
X48804129Y-85785036D01*
X48805813Y-85788984D01*
X48912609Y-86039361D01*
X48916923Y-86049476D01*
X48972533Y-86142393D01*
X49056086Y-86282000D01*
X49064561Y-86296161D01*
X49244313Y-86520528D01*
X49305006Y-86578123D01*
X49422747Y-86689855D01*
X49452851Y-86718423D01*
X49686317Y-86886186D01*
X49690112Y-86888195D01*
X49690113Y-86888196D01*
X49708394Y-86897875D01*
X49940392Y-87020712D01*
X50068044Y-87067426D01*
X50155904Y-87099578D01*
X50210373Y-87119511D01*
X50491264Y-87180755D01*
X50519841Y-87183004D01*
X50714282Y-87198307D01*
X50714291Y-87198307D01*
X50716739Y-87198500D01*
X50872271Y-87198500D01*
X50874407Y-87198354D01*
X50874418Y-87198354D01*
X51082548Y-87184165D01*
X51082554Y-87184164D01*
X51086825Y-87183873D01*
X51091020Y-87183004D01*
X51091022Y-87183004D01*
X51335216Y-87132434D01*
X51368342Y-87125574D01*
X51639343Y-87029607D01*
X51840551Y-86925756D01*
X51891005Y-86899715D01*
X51891006Y-86899715D01*
X51894812Y-86897750D01*
X51898313Y-86895289D01*
X51898317Y-86895287D01*
X52064759Y-86778309D01*
X52130023Y-86732441D01*
X52279986Y-86593087D01*
X52337479Y-86539661D01*
X52337481Y-86539658D01*
X52340622Y-86536740D01*
X52522713Y-86314268D01*
X52672927Y-86069142D01*
X52703349Y-85999840D01*
X52786757Y-85809830D01*
X52788483Y-85805898D01*
X52790810Y-85797731D01*
X52866068Y-85533534D01*
X52867244Y-85529406D01*
X52907751Y-85244784D01*
X52907826Y-85230634D01*
X52909235Y-84961583D01*
X52909235Y-84961576D01*
X52909257Y-84957297D01*
X52895092Y-84849699D01*
X52888220Y-84797502D01*
X52871732Y-84672266D01*
X52857571Y-84620500D01*
X52846319Y-84579372D01*
X52795871Y-84394964D01*
X52779483Y-84356543D01*
X52684763Y-84134476D01*
X52684761Y-84134472D01*
X52683077Y-84130524D01*
X52601872Y-83994840D01*
X52537643Y-83887521D01*
X52537640Y-83887517D01*
X52535439Y-83883839D01*
X52355687Y-83659472D01*
X52204027Y-83515552D01*
X52150258Y-83464527D01*
X52150255Y-83464525D01*
X52147149Y-83461577D01*
X51913683Y-83293814D01*
X51891843Y-83282250D01*
X51868654Y-83269972D01*
X51659608Y-83159288D01*
X51453636Y-83083913D01*
X51393658Y-83061964D01*
X51393656Y-83061963D01*
X51389627Y-83060489D01*
X51108736Y-82999245D01*
X51077685Y-82996801D01*
X50885718Y-82981693D01*
X50885709Y-82981693D01*
X50883261Y-82981500D01*
X50727729Y-82981500D01*
X50725593Y-82981646D01*
X50725582Y-82981646D01*
X50517452Y-82995835D01*
X50517446Y-82995836D01*
X50513175Y-82996127D01*
X50508980Y-82996996D01*
X50508978Y-82996996D01*
X50372417Y-83025276D01*
X50231658Y-83054426D01*
X49960657Y-83150393D01*
X49705188Y-83282250D01*
X49701687Y-83284711D01*
X49701683Y-83284713D01*
X49647952Y-83322476D01*
X49469977Y-83447559D01*
X49416439Y-83497310D01*
X49310715Y-83595555D01*
X49259378Y-83643260D01*
X49077287Y-83865732D01*
X48927073Y-84110858D01*
X48925347Y-84114791D01*
X48925346Y-84114792D01*
X48877139Y-84224611D01*
X48811517Y-84374102D01*
X48810342Y-84378229D01*
X48810341Y-84378230D01*
X48806699Y-84391016D01*
X48732756Y-84650594D01*
X48709008Y-84817457D01*
X48698456Y-84891606D01*
X48692249Y-84935216D01*
X48692227Y-84939505D01*
X48692226Y-84939512D01*
X48690765Y-85218417D01*
X48690743Y-85222703D01*
X47498500Y-85222703D01*
X47498500Y-82603250D01*
X47500246Y-82582345D01*
X47502770Y-82567344D01*
X47502770Y-82567341D01*
X47503576Y-82562552D01*
X47503729Y-82550000D01*
X47502788Y-82543429D01*
X47502123Y-82513218D01*
X47511916Y-82413789D01*
X47516733Y-82389568D01*
X47552866Y-82270454D01*
X47562315Y-82247645D01*
X47620987Y-82137876D01*
X47634705Y-82117345D01*
X47713671Y-82021124D01*
X47731124Y-82003671D01*
X47827345Y-81924705D01*
X47847876Y-81910987D01*
X47957645Y-81852315D01*
X47980454Y-81842866D01*
X48099568Y-81806733D01*
X48123789Y-81801916D01*
X48219809Y-81792459D01*
X48235868Y-81792909D01*
X48235877Y-81792200D01*
X48244853Y-81792310D01*
X48253724Y-81793691D01*
X48262626Y-81792527D01*
X48262628Y-81792527D01*
X48279059Y-81790378D01*
X48285286Y-81789564D01*
X48301621Y-81788500D01*
X66689603Y-81788500D01*
X66757724Y-81808502D01*
G37*
%TD.AperFunction*%
%TA.AperFunction,Conductor*%
G36*
X83902026Y-107355144D02*
G01*
X83929875Y-107386994D01*
X83989987Y-107485088D01*
X84136250Y-107653938D01*
X84207424Y-107713028D01*
X84223266Y-107726180D01*
X84262901Y-107785083D01*
X84264399Y-107856063D01*
X84231876Y-107912219D01*
X83975499Y-108168596D01*
X83913187Y-108202621D01*
X83886404Y-108205500D01*
X83051460Y-108205500D01*
X82983339Y-108185498D01*
X82936846Y-108131842D01*
X82926742Y-108061568D01*
X82956236Y-107996988D01*
X83015253Y-107958814D01*
X83042426Y-107950662D01*
X83042432Y-107950660D01*
X83047384Y-107949174D01*
X83247994Y-107850896D01*
X83429860Y-107721173D01*
X83588096Y-107563489D01*
X83609308Y-107533970D01*
X83718453Y-107382077D01*
X83719776Y-107383028D01*
X83766645Y-107339857D01*
X83836580Y-107327625D01*
X83902026Y-107355144D01*
G37*
%TD.AperFunction*%
%TA.AperFunction,Conductor*%
G36*
X81349121Y-98318002D02*
G01*
X81395614Y-98371658D01*
X81407000Y-98424000D01*
X81407000Y-99819967D01*
X81410973Y-99833498D01*
X81419522Y-99834727D01*
X81485889Y-99816944D01*
X81556866Y-99818634D01*
X81615661Y-99858428D01*
X81643609Y-99923693D01*
X81644500Y-99938651D01*
X81644500Y-104097405D01*
X81624498Y-104165526D01*
X81607595Y-104186500D01*
X80467345Y-105326750D01*
X80405033Y-105360776D01*
X80356154Y-105361702D01*
X80143373Y-105323800D01*
X80143367Y-105323799D01*
X80138284Y-105322894D01*
X80064452Y-105321992D01*
X79920081Y-105320228D01*
X79920079Y-105320228D01*
X79914911Y-105320165D01*
X79694091Y-105353955D01*
X79481756Y-105423357D01*
X79283607Y-105526507D01*
X79279474Y-105529610D01*
X79279471Y-105529612D01*
X79138443Y-105635499D01*
X79104965Y-105660635D01*
X78950629Y-105822138D01*
X78824743Y-106006680D01*
X78730688Y-106209305D01*
X78670989Y-106424570D01*
X78647251Y-106646695D01*
X78660110Y-106869715D01*
X78661247Y-106874761D01*
X78661248Y-106874767D01*
X78682275Y-106968069D01*
X78709222Y-107087639D01*
X78793266Y-107294616D01*
X78835314Y-107363233D01*
X78907291Y-107480688D01*
X78909987Y-107485088D01*
X78913367Y-107488990D01*
X79026994Y-107620164D01*
X79043890Y-107657177D01*
X79060958Y-107660890D01*
X79081058Y-107674534D01*
X79228126Y-107796632D01*
X79421000Y-107909338D01*
X79550565Y-107958814D01*
X79558358Y-107961790D01*
X79614861Y-108004778D01*
X79639154Y-108071489D01*
X79623524Y-108140743D01*
X79572933Y-108190554D01*
X79513409Y-108205500D01*
X79308595Y-108205500D01*
X79240474Y-108185498D01*
X79219500Y-108168595D01*
X78911478Y-107860573D01*
X78886852Y-107815475D01*
X78863620Y-107808649D01*
X78842662Y-107791757D01*
X78267405Y-107216500D01*
X78233379Y-107154188D01*
X78230500Y-107127405D01*
X78230500Y-105724594D01*
X78250502Y-105656473D01*
X78267405Y-105635499D01*
X80275247Y-103627657D01*
X80283537Y-103620113D01*
X80290018Y-103616000D01*
X80336659Y-103566332D01*
X80339413Y-103563491D01*
X80359134Y-103543770D01*
X80361612Y-103540575D01*
X80369318Y-103531553D01*
X80394158Y-103505101D01*
X80399586Y-103499321D01*
X80409346Y-103481568D01*
X80420199Y-103465045D01*
X80427753Y-103455306D01*
X80432613Y-103449041D01*
X80450176Y-103408457D01*
X80455383Y-103397827D01*
X80476695Y-103359060D01*
X80478666Y-103351383D01*
X80478668Y-103351378D01*
X80481732Y-103339442D01*
X80488138Y-103320730D01*
X80493033Y-103309419D01*
X80496181Y-103302145D01*
X80497421Y-103294317D01*
X80497423Y-103294310D01*
X80503099Y-103258476D01*
X80505505Y-103246856D01*
X80514528Y-103211711D01*
X80514528Y-103211710D01*
X80516500Y-103204030D01*
X80516500Y-103183776D01*
X80518051Y-103164065D01*
X80519980Y-103151886D01*
X80521220Y-103144057D01*
X80517059Y-103100038D01*
X80516500Y-103088181D01*
X80516500Y-99896194D01*
X80536502Y-99828073D01*
X80590158Y-99781580D01*
X80660432Y-99771476D01*
X80695751Y-99782000D01*
X80698942Y-99783488D01*
X80709239Y-99787236D01*
X80881503Y-99833394D01*
X80895599Y-99833058D01*
X80899000Y-99825116D01*
X80899000Y-98424000D01*
X80919002Y-98355879D01*
X80972658Y-98309386D01*
X81025000Y-98298000D01*
X81281000Y-98298000D01*
X81349121Y-98318002D01*
G37*
%TD.AperFunction*%
%TD*%
M02*
