M48
; DRILL file {KiCad (6.0.10)} date Tue Feb 28 00:06:57 2023
; FORMAT={-:-/ absolute / metric / decimal}
; #@! TF.CreationDate,2023-02-28T00:06:57+13:00
; #@! TF.GenerationSoftware,Kicad,Pcbnew,(6.0.10)
; #@! TF.FileFunction,Plated,1,2,PTH
FMAT,2
METRIC
; #@! TA.AperFunction,Plated,PTH,ComponentDrill
T1C0.750
; #@! TA.AperFunction,Plated,PTH,ComponentDrill
T2C0.800
; #@! TA.AperFunction,Plated,PTH,ComponentDrill
T3C1.000
; #@! TA.AperFunction,Plated,PTH,ComponentDrill
T4C1.300
%
G90
G05
T1
X75.918Y-89.383
X75.918Y-91.923
X77.188Y-90.663
T2
X56.439Y-92.608
X56.439Y-95.108
X56.439Y-97.942
X58.637Y-92.601
X58.637Y-95.101
X60.796Y-92.601
X60.796Y-95.101
X64.059Y-97.942
X67.224Y-93.121
X67.224Y-100.741
X67.478Y-83.114
X67.478Y-90.734
X69.967Y-83.063
X69.967Y-86.111
X69.967Y-88.722
X69.967Y-91.222
X70.069Y-95.611
X70.094Y-98.684
X77.587Y-83.063
X77.587Y-86.111
X77.689Y-95.611
X77.714Y-98.684
X81.153Y-83.312
X81.153Y-85.852
X81.153Y-88.392
X81.153Y-90.932
X81.153Y-93.472
X81.153Y-96.012
X81.153Y-98.552
X83.957Y-101.351
X86.457Y-101.351
X88.773Y-83.312
X88.773Y-85.852
X88.773Y-88.392
X88.773Y-90.932
X88.773Y-93.472
X88.773Y-96.012
X88.773Y-98.552
X92.319Y-83.317
X92.319Y-86.365
X92.319Y-92.08
X92.319Y-95.509
X92.319Y-98.557
X92.319Y-101.605
X99.939Y-83.317
X99.939Y-86.365
X99.939Y-92.08
X99.939Y-95.509
X99.939Y-98.557
X99.939Y-101.605
T3
X80.01Y-106.68
X82.55Y-106.68
X85.09Y-106.68
X87.63Y-106.68
X90.17Y-106.68
T4
X102.95Y-84.264
X102.95Y-89.264
X103.077Y-95.44
X103.077Y-100.44
X112.95Y-86.764
X113.077Y-97.94
T3
X56.872Y-89.48G85X56.872Y-87.98
G05
X64.373Y-89.48G85X64.373Y-87.98
G05
T4
X61.097Y-85.03G85X60.147Y-85.03
G05
T0
M30
