%TF.GenerationSoftware,KiCad,Pcbnew,(6.0.10)*%
%TF.CreationDate,2023-02-28T00:06:53+13:00*%
%TF.ProjectId,video,76696465-6f2e-46b6-9963-61645f706362,rev?*%
%TF.SameCoordinates,Original*%
%TF.FileFunction,Legend,Top*%
%TF.FilePolarity,Positive*%
%FSLAX46Y46*%
G04 Gerber Fmt 4.6, Leading zero omitted, Abs format (unit mm)*
G04 Created by KiCad (PCBNEW (6.0.10)) date 2023-02-28 00:06:53*
%MOMM*%
%LPD*%
G01*
G04 APERTURE LIST*
%ADD10C,0.150000*%
%ADD11C,0.120000*%
%ADD12C,0.127000*%
%ADD13C,0.200000*%
G04 APERTURE END LIST*
D10*
X47498000Y-104140000D02*
X121412000Y-104140000D01*
X83074095Y-90130380D02*
X83740761Y-90130380D01*
X83312190Y-91130380D01*
X84550285Y-90463714D02*
X84550285Y-91130380D01*
X84312190Y-90082761D02*
X84074095Y-90797047D01*
X84693142Y-90797047D01*
X85264571Y-90130380D02*
X85359809Y-90130380D01*
X85455047Y-90178000D01*
X85502666Y-90225619D01*
X85550285Y-90320857D01*
X85597904Y-90511333D01*
X85597904Y-90749428D01*
X85550285Y-90939904D01*
X85502666Y-91035142D01*
X85455047Y-91082761D01*
X85359809Y-91130380D01*
X85264571Y-91130380D01*
X85169333Y-91082761D01*
X85121714Y-91035142D01*
X85074095Y-90939904D01*
X85026476Y-90749428D01*
X85026476Y-90511333D01*
X85074095Y-90320857D01*
X85121714Y-90225619D01*
X85169333Y-90178000D01*
X85264571Y-90130380D01*
X86455047Y-90130380D02*
X86264571Y-90130380D01*
X86169333Y-90178000D01*
X86121714Y-90225619D01*
X86026476Y-90368476D01*
X85978857Y-90558952D01*
X85978857Y-90939904D01*
X86026476Y-91035142D01*
X86074095Y-91082761D01*
X86169333Y-91130380D01*
X86359809Y-91130380D01*
X86455047Y-91082761D01*
X86502666Y-91035142D01*
X86550285Y-90939904D01*
X86550285Y-90701809D01*
X86502666Y-90606571D01*
X86455047Y-90558952D01*
X86359809Y-90511333D01*
X86169333Y-90511333D01*
X86074095Y-90558952D01*
X86026476Y-90606571D01*
X85978857Y-90701809D01*
X84915428Y-108809285D02*
X85165428Y-109559285D01*
X85415428Y-108809285D01*
X85665428Y-109559285D02*
X85665428Y-109059285D01*
X85665428Y-108809285D02*
X85629714Y-108845000D01*
X85665428Y-108880714D01*
X85701142Y-108845000D01*
X85665428Y-108809285D01*
X85665428Y-108880714D01*
X79224285Y-108809285D02*
X79474285Y-109559285D01*
X79724285Y-108809285D01*
X79974285Y-109487857D02*
X80010000Y-109523571D01*
X79974285Y-109559285D01*
X79938571Y-109523571D01*
X79974285Y-109487857D01*
X79974285Y-109559285D01*
X80295714Y-109523571D02*
X80402857Y-109559285D01*
X80581428Y-109559285D01*
X80652857Y-109523571D01*
X80688571Y-109487857D01*
X80724285Y-109416428D01*
X80724285Y-109345000D01*
X80688571Y-109273571D01*
X80652857Y-109237857D01*
X80581428Y-109202142D01*
X80438571Y-109166428D01*
X80367142Y-109130714D01*
X80331428Y-109095000D01*
X80295714Y-109023571D01*
X80295714Y-108952142D01*
X80331428Y-108880714D01*
X80367142Y-108845000D01*
X80438571Y-108809285D01*
X80617142Y-108809285D01*
X80724285Y-108845000D01*
X87058571Y-108845000D02*
X86987142Y-108809285D01*
X86880000Y-108809285D01*
X86772857Y-108845000D01*
X86701428Y-108916428D01*
X86665714Y-108987857D01*
X86630000Y-109130714D01*
X86630000Y-109237857D01*
X86665714Y-109380714D01*
X86701428Y-109452142D01*
X86772857Y-109523571D01*
X86880000Y-109559285D01*
X86951428Y-109559285D01*
X87058571Y-109523571D01*
X87094285Y-109487857D01*
X87094285Y-109237857D01*
X86951428Y-109237857D01*
X87415714Y-109559285D02*
X87415714Y-108809285D01*
X87844285Y-109559285D01*
X87844285Y-108809285D01*
X88201428Y-109559285D02*
X88201428Y-108809285D01*
X88380000Y-108809285D01*
X88487142Y-108845000D01*
X88558571Y-108916428D01*
X88594285Y-108987857D01*
X88630000Y-109130714D01*
X88630000Y-109237857D01*
X88594285Y-109380714D01*
X88558571Y-109452142D01*
X88487142Y-109523571D01*
X88380000Y-109559285D01*
X88201428Y-109559285D01*
X81800000Y-109559285D02*
X81800000Y-108809285D01*
X81800000Y-109166428D02*
X82228571Y-109166428D01*
X82228571Y-109559285D02*
X82228571Y-108809285D01*
X82585714Y-109487857D02*
X82621428Y-109523571D01*
X82585714Y-109559285D01*
X82550000Y-109523571D01*
X82585714Y-109487857D01*
X82585714Y-109559285D01*
X82907142Y-109523571D02*
X83014285Y-109559285D01*
X83192857Y-109559285D01*
X83264285Y-109523571D01*
X83300000Y-109487857D01*
X83335714Y-109416428D01*
X83335714Y-109345000D01*
X83300000Y-109273571D01*
X83264285Y-109237857D01*
X83192857Y-109202142D01*
X83050000Y-109166428D01*
X82978571Y-109130714D01*
X82942857Y-109095000D01*
X82907142Y-109023571D01*
X82907142Y-108952142D01*
X82942857Y-108880714D01*
X82978571Y-108845000D01*
X83050000Y-108809285D01*
X83228571Y-108809285D01*
X83335714Y-108845000D01*
X90027142Y-108809285D02*
X89670000Y-108809285D01*
X89634285Y-109166428D01*
X89670000Y-109130714D01*
X89741428Y-109095000D01*
X89920000Y-109095000D01*
X89991428Y-109130714D01*
X90027142Y-109166428D01*
X90062857Y-109237857D01*
X90062857Y-109416428D01*
X90027142Y-109487857D01*
X89991428Y-109523571D01*
X89920000Y-109559285D01*
X89741428Y-109559285D01*
X89670000Y-109523571D01*
X89634285Y-109487857D01*
X90277142Y-108809285D02*
X90527142Y-109559285D01*
X90777142Y-108809285D01*
%TO.C,C4*%
X62841142Y-93892666D02*
X62888761Y-93940285D01*
X62936380Y-94083142D01*
X62936380Y-94178380D01*
X62888761Y-94321238D01*
X62793523Y-94416476D01*
X62698285Y-94464095D01*
X62507809Y-94511714D01*
X62364952Y-94511714D01*
X62174476Y-94464095D01*
X62079238Y-94416476D01*
X61984000Y-94321238D01*
X61936380Y-94178380D01*
X61936380Y-94083142D01*
X61984000Y-93940285D01*
X62031619Y-93892666D01*
X62269714Y-93035523D02*
X62936380Y-93035523D01*
X61888761Y-93273619D02*
X62603047Y-93511714D01*
X62603047Y-92892666D01*
%TO.C,C5*%
X64111142Y-93892666D02*
X64158761Y-93940285D01*
X64206380Y-94083142D01*
X64206380Y-94178380D01*
X64158761Y-94321238D01*
X64063523Y-94416476D01*
X63968285Y-94464095D01*
X63777809Y-94511714D01*
X63634952Y-94511714D01*
X63444476Y-94464095D01*
X63349238Y-94416476D01*
X63254000Y-94321238D01*
X63206380Y-94178380D01*
X63206380Y-94083142D01*
X63254000Y-93940285D01*
X63301619Y-93892666D01*
X63206380Y-92987904D02*
X63206380Y-93464095D01*
X63682571Y-93511714D01*
X63634952Y-93464095D01*
X63587333Y-93368857D01*
X63587333Y-93130761D01*
X63634952Y-93035523D01*
X63682571Y-92987904D01*
X63777809Y-92940285D01*
X64015904Y-92940285D01*
X64111142Y-92987904D01*
X64158761Y-93035523D01*
X64206380Y-93130761D01*
X64206380Y-93368857D01*
X64158761Y-93464095D01*
X64111142Y-93511714D01*
%TO.C,R8*%
X60082133Y-98394780D02*
X59748800Y-97918590D01*
X59510704Y-98394780D02*
X59510704Y-97394780D01*
X59891657Y-97394780D01*
X59986895Y-97442400D01*
X60034514Y-97490019D01*
X60082133Y-97585257D01*
X60082133Y-97728114D01*
X60034514Y-97823352D01*
X59986895Y-97870971D01*
X59891657Y-97918590D01*
X59510704Y-97918590D01*
X60653561Y-97823352D02*
X60558323Y-97775733D01*
X60510704Y-97728114D01*
X60463085Y-97632876D01*
X60463085Y-97585257D01*
X60510704Y-97490019D01*
X60558323Y-97442400D01*
X60653561Y-97394780D01*
X60844038Y-97394780D01*
X60939276Y-97442400D01*
X60986895Y-97490019D01*
X61034514Y-97585257D01*
X61034514Y-97632876D01*
X60986895Y-97728114D01*
X60939276Y-97775733D01*
X60844038Y-97823352D01*
X60653561Y-97823352D01*
X60558323Y-97870971D01*
X60510704Y-97918590D01*
X60463085Y-98013828D01*
X60463085Y-98204304D01*
X60510704Y-98299542D01*
X60558323Y-98347161D01*
X60653561Y-98394780D01*
X60844038Y-98394780D01*
X60939276Y-98347161D01*
X60986895Y-98299542D01*
X61034514Y-98204304D01*
X61034514Y-98013828D01*
X60986895Y-97918590D01*
X60939276Y-97870971D01*
X60844038Y-97823352D01*
%TO.C,R12*%
X95486142Y-92532380D02*
X95152809Y-92056190D01*
X94914714Y-92532380D02*
X94914714Y-91532380D01*
X95295666Y-91532380D01*
X95390904Y-91580000D01*
X95438523Y-91627619D01*
X95486142Y-91722857D01*
X95486142Y-91865714D01*
X95438523Y-91960952D01*
X95390904Y-92008571D01*
X95295666Y-92056190D01*
X94914714Y-92056190D01*
X96438523Y-92532380D02*
X95867095Y-92532380D01*
X96152809Y-92532380D02*
X96152809Y-91532380D01*
X96057571Y-91675238D01*
X95962333Y-91770476D01*
X95867095Y-91818095D01*
X96819476Y-91627619D02*
X96867095Y-91580000D01*
X96962333Y-91532380D01*
X97200428Y-91532380D01*
X97295666Y-91580000D01*
X97343285Y-91627619D01*
X97390904Y-91722857D01*
X97390904Y-91818095D01*
X97343285Y-91960952D01*
X96771857Y-92532380D01*
X97390904Y-92532380D01*
%TO.C,R9*%
X95962333Y-83769380D02*
X95629000Y-83293190D01*
X95390904Y-83769380D02*
X95390904Y-82769380D01*
X95771857Y-82769380D01*
X95867095Y-82817000D01*
X95914714Y-82864619D01*
X95962333Y-82959857D01*
X95962333Y-83102714D01*
X95914714Y-83197952D01*
X95867095Y-83245571D01*
X95771857Y-83293190D01*
X95390904Y-83293190D01*
X96438523Y-83769380D02*
X96629000Y-83769380D01*
X96724238Y-83721761D01*
X96771857Y-83674142D01*
X96867095Y-83531285D01*
X96914714Y-83340809D01*
X96914714Y-82959857D01*
X96867095Y-82864619D01*
X96819476Y-82817000D01*
X96724238Y-82769380D01*
X96533761Y-82769380D01*
X96438523Y-82817000D01*
X96390904Y-82864619D01*
X96343285Y-82959857D01*
X96343285Y-83197952D01*
X96390904Y-83293190D01*
X96438523Y-83340809D01*
X96533761Y-83388428D01*
X96724238Y-83388428D01*
X96819476Y-83340809D01*
X96867095Y-83293190D01*
X96914714Y-83197952D01*
%TO.C,R7*%
X95962333Y-86817380D02*
X95629000Y-86341190D01*
X95390904Y-86817380D02*
X95390904Y-85817380D01*
X95771857Y-85817380D01*
X95867095Y-85865000D01*
X95914714Y-85912619D01*
X95962333Y-86007857D01*
X95962333Y-86150714D01*
X95914714Y-86245952D01*
X95867095Y-86293571D01*
X95771857Y-86341190D01*
X95390904Y-86341190D01*
X96295666Y-85817380D02*
X96962333Y-85817380D01*
X96533761Y-86817380D01*
%TO.C,C2*%
X72239142Y-90138466D02*
X72286761Y-90186085D01*
X72334380Y-90328942D01*
X72334380Y-90424180D01*
X72286761Y-90567038D01*
X72191523Y-90662276D01*
X72096285Y-90709895D01*
X71905809Y-90757514D01*
X71762952Y-90757514D01*
X71572476Y-90709895D01*
X71477238Y-90662276D01*
X71382000Y-90567038D01*
X71334380Y-90424180D01*
X71334380Y-90328942D01*
X71382000Y-90186085D01*
X71429619Y-90138466D01*
X71429619Y-89757514D02*
X71382000Y-89709895D01*
X71334380Y-89614657D01*
X71334380Y-89376561D01*
X71382000Y-89281323D01*
X71429619Y-89233704D01*
X71524857Y-89186085D01*
X71620095Y-89186085D01*
X71762952Y-89233704D01*
X72334380Y-89805133D01*
X72334380Y-89186085D01*
%TO.C,D1*%
X66130180Y-90995704D02*
X65130180Y-90995704D01*
X66130180Y-90424276D02*
X65558752Y-90852847D01*
X65130180Y-90424276D02*
X65701609Y-90995704D01*
%TO.C,R4*%
X73610333Y-86563380D02*
X73277000Y-86087190D01*
X73038904Y-86563380D02*
X73038904Y-85563380D01*
X73419857Y-85563380D01*
X73515095Y-85611000D01*
X73562714Y-85658619D01*
X73610333Y-85753857D01*
X73610333Y-85896714D01*
X73562714Y-85991952D01*
X73515095Y-86039571D01*
X73419857Y-86087190D01*
X73038904Y-86087190D01*
X74467476Y-85896714D02*
X74467476Y-86563380D01*
X74229380Y-85515761D02*
X73991285Y-86230047D01*
X74610333Y-86230047D01*
%TO.C,R3*%
X95962333Y-95961380D02*
X95629000Y-95485190D01*
X95390904Y-95961380D02*
X95390904Y-94961380D01*
X95771857Y-94961380D01*
X95867095Y-95009000D01*
X95914714Y-95056619D01*
X95962333Y-95151857D01*
X95962333Y-95294714D01*
X95914714Y-95389952D01*
X95867095Y-95437571D01*
X95771857Y-95485190D01*
X95390904Y-95485190D01*
X96295666Y-94961380D02*
X96914714Y-94961380D01*
X96581380Y-95342333D01*
X96724238Y-95342333D01*
X96819476Y-95389952D01*
X96867095Y-95437571D01*
X96914714Y-95532809D01*
X96914714Y-95770904D01*
X96867095Y-95866142D01*
X96819476Y-95913761D01*
X96724238Y-95961380D01*
X96438523Y-95961380D01*
X96343285Y-95913761D01*
X96295666Y-95866142D01*
%TO.C,R1*%
X73737333Y-99136380D02*
X73404000Y-98660190D01*
X73165904Y-99136380D02*
X73165904Y-98136380D01*
X73546857Y-98136380D01*
X73642095Y-98184000D01*
X73689714Y-98231619D01*
X73737333Y-98326857D01*
X73737333Y-98469714D01*
X73689714Y-98564952D01*
X73642095Y-98612571D01*
X73546857Y-98660190D01*
X73165904Y-98660190D01*
X74689714Y-99136380D02*
X74118285Y-99136380D01*
X74404000Y-99136380D02*
X74404000Y-98136380D01*
X74308761Y-98279238D01*
X74213523Y-98374476D01*
X74118285Y-98422095D01*
%TO.C,R5*%
X95962333Y-99009380D02*
X95629000Y-98533190D01*
X95390904Y-99009380D02*
X95390904Y-98009380D01*
X95771857Y-98009380D01*
X95867095Y-98057000D01*
X95914714Y-98104619D01*
X95962333Y-98199857D01*
X95962333Y-98342714D01*
X95914714Y-98437952D01*
X95867095Y-98485571D01*
X95771857Y-98533190D01*
X95390904Y-98533190D01*
X96867095Y-98009380D02*
X96390904Y-98009380D01*
X96343285Y-98485571D01*
X96390904Y-98437952D01*
X96486142Y-98390333D01*
X96724238Y-98390333D01*
X96819476Y-98437952D01*
X96867095Y-98485571D01*
X96914714Y-98580809D01*
X96914714Y-98818904D01*
X96867095Y-98914142D01*
X96819476Y-98961761D01*
X96724238Y-99009380D01*
X96486142Y-99009380D01*
X96390904Y-98961761D01*
X96343285Y-98914142D01*
%TO.C,RV2*%
X107481761Y-98242380D02*
X107148428Y-97766190D01*
X106910333Y-98242380D02*
X106910333Y-97242380D01*
X107291285Y-97242380D01*
X107386523Y-97290000D01*
X107434142Y-97337619D01*
X107481761Y-97432857D01*
X107481761Y-97575714D01*
X107434142Y-97670952D01*
X107386523Y-97718571D01*
X107291285Y-97766190D01*
X106910333Y-97766190D01*
X107767476Y-97242380D02*
X108100809Y-98242380D01*
X108434142Y-97242380D01*
X108719857Y-97337619D02*
X108767476Y-97290000D01*
X108862714Y-97242380D01*
X109100809Y-97242380D01*
X109196047Y-97290000D01*
X109243666Y-97337619D01*
X109291285Y-97432857D01*
X109291285Y-97528095D01*
X109243666Y-97670952D01*
X108672238Y-98242380D01*
X109291285Y-98242380D01*
%TO.C,R6*%
X67676180Y-97098066D02*
X67199990Y-97431400D01*
X67676180Y-97669495D02*
X66676180Y-97669495D01*
X66676180Y-97288542D01*
X66723800Y-97193304D01*
X66771419Y-97145685D01*
X66866657Y-97098066D01*
X67009514Y-97098066D01*
X67104752Y-97145685D01*
X67152371Y-97193304D01*
X67199990Y-97288542D01*
X67199990Y-97669495D01*
X66676180Y-96240923D02*
X66676180Y-96431400D01*
X66723800Y-96526638D01*
X66771419Y-96574257D01*
X66914276Y-96669495D01*
X67104752Y-96717114D01*
X67485704Y-96717114D01*
X67580942Y-96669495D01*
X67628561Y-96621876D01*
X67676180Y-96526638D01*
X67676180Y-96336161D01*
X67628561Y-96240923D01*
X67580942Y-96193304D01*
X67485704Y-96145685D01*
X67247609Y-96145685D01*
X67152371Y-96193304D01*
X67104752Y-96240923D01*
X67057133Y-96336161D01*
X67057133Y-96526638D01*
X67104752Y-96621876D01*
X67152371Y-96669495D01*
X67247609Y-96717114D01*
%TO.C,C3*%
X65381142Y-93828066D02*
X65428761Y-93875685D01*
X65476380Y-94018542D01*
X65476380Y-94113780D01*
X65428761Y-94256638D01*
X65333523Y-94351876D01*
X65238285Y-94399495D01*
X65047809Y-94447114D01*
X64904952Y-94447114D01*
X64714476Y-94399495D01*
X64619238Y-94351876D01*
X64524000Y-94256638D01*
X64476380Y-94113780D01*
X64476380Y-94018542D01*
X64524000Y-93875685D01*
X64571619Y-93828066D01*
X64476380Y-93494733D02*
X64476380Y-92875685D01*
X64857333Y-93209019D01*
X64857333Y-93066161D01*
X64904952Y-92970923D01*
X64952571Y-92923304D01*
X65047809Y-92875685D01*
X65285904Y-92875685D01*
X65381142Y-92923304D01*
X65428761Y-92970923D01*
X65476380Y-93066161D01*
X65476380Y-93351876D01*
X65428761Y-93447114D01*
X65381142Y-93494733D01*
%TO.C,R11*%
X95486142Y-102057380D02*
X95152809Y-101581190D01*
X94914714Y-102057380D02*
X94914714Y-101057380D01*
X95295666Y-101057380D01*
X95390904Y-101105000D01*
X95438523Y-101152619D01*
X95486142Y-101247857D01*
X95486142Y-101390714D01*
X95438523Y-101485952D01*
X95390904Y-101533571D01*
X95295666Y-101581190D01*
X94914714Y-101581190D01*
X96438523Y-102057380D02*
X95867095Y-102057380D01*
X96152809Y-102057380D02*
X96152809Y-101057380D01*
X96057571Y-101200238D01*
X95962333Y-101295476D01*
X95867095Y-101343095D01*
X97390904Y-102057380D02*
X96819476Y-102057380D01*
X97105190Y-102057380D02*
X97105190Y-101057380D01*
X97009952Y-101200238D01*
X96914714Y-101295476D01*
X96819476Y-101343095D01*
%TO.C,R10*%
X73235742Y-96062980D02*
X72902409Y-95586790D01*
X72664314Y-96062980D02*
X72664314Y-95062980D01*
X73045266Y-95062980D01*
X73140504Y-95110600D01*
X73188123Y-95158219D01*
X73235742Y-95253457D01*
X73235742Y-95396314D01*
X73188123Y-95491552D01*
X73140504Y-95539171D01*
X73045266Y-95586790D01*
X72664314Y-95586790D01*
X74188123Y-96062980D02*
X73616695Y-96062980D01*
X73902409Y-96062980D02*
X73902409Y-95062980D01*
X73807171Y-95205838D01*
X73711933Y-95301076D01*
X73616695Y-95348695D01*
X74807171Y-95062980D02*
X74902409Y-95062980D01*
X74997647Y-95110600D01*
X75045266Y-95158219D01*
X75092885Y-95253457D01*
X75140504Y-95443933D01*
X75140504Y-95682028D01*
X75092885Y-95872504D01*
X75045266Y-95967742D01*
X74997647Y-96015361D01*
X74902409Y-96062980D01*
X74807171Y-96062980D01*
X74711933Y-96015361D01*
X74664314Y-95967742D01*
X74616695Y-95872504D01*
X74569076Y-95682028D01*
X74569076Y-95443933D01*
X74616695Y-95253457D01*
X74664314Y-95158219D01*
X74711933Y-95110600D01*
X74807171Y-95062980D01*
%TO.C,R2*%
X73610333Y-83515380D02*
X73277000Y-83039190D01*
X73038904Y-83515380D02*
X73038904Y-82515380D01*
X73419857Y-82515380D01*
X73515095Y-82563000D01*
X73562714Y-82610619D01*
X73610333Y-82705857D01*
X73610333Y-82848714D01*
X73562714Y-82943952D01*
X73515095Y-82991571D01*
X73419857Y-83039190D01*
X73038904Y-83039190D01*
X73991285Y-82610619D02*
X74038904Y-82563000D01*
X74134142Y-82515380D01*
X74372238Y-82515380D01*
X74467476Y-82563000D01*
X74515095Y-82610619D01*
X74562714Y-82705857D01*
X74562714Y-82801095D01*
X74515095Y-82943952D01*
X73943666Y-83515380D01*
X74562714Y-83515380D01*
%TO.C,C1*%
X85040333Y-103481142D02*
X84992714Y-103528761D01*
X84849857Y-103576380D01*
X84754619Y-103576380D01*
X84611761Y-103528761D01*
X84516523Y-103433523D01*
X84468904Y-103338285D01*
X84421285Y-103147809D01*
X84421285Y-103004952D01*
X84468904Y-102814476D01*
X84516523Y-102719238D01*
X84611761Y-102624000D01*
X84754619Y-102576380D01*
X84849857Y-102576380D01*
X84992714Y-102624000D01*
X85040333Y-102671619D01*
X85992714Y-103576380D02*
X85421285Y-103576380D01*
X85707000Y-103576380D02*
X85707000Y-102576380D01*
X85611761Y-102719238D01*
X85516523Y-102814476D01*
X85421285Y-102862095D01*
%TO.C,RV1*%
X107354761Y-87066380D02*
X107021428Y-86590190D01*
X106783333Y-87066380D02*
X106783333Y-86066380D01*
X107164285Y-86066380D01*
X107259523Y-86114000D01*
X107307142Y-86161619D01*
X107354761Y-86256857D01*
X107354761Y-86399714D01*
X107307142Y-86494952D01*
X107259523Y-86542571D01*
X107164285Y-86590190D01*
X106783333Y-86590190D01*
X107640476Y-86066380D02*
X107973809Y-87066380D01*
X108307142Y-86066380D01*
X109164285Y-87066380D02*
X108592857Y-87066380D01*
X108878571Y-87066380D02*
X108878571Y-86066380D01*
X108783333Y-86209238D01*
X108688095Y-86304476D01*
X108592857Y-86352095D01*
D11*
%TO.C,C4*%
X55518800Y-93229400D02*
X55518800Y-94487400D01*
X57358800Y-93229400D02*
X57358800Y-94487400D01*
%TO.C,J2*%
X88900000Y-108010000D02*
X78680000Y-108010000D01*
X88900000Y-105350000D02*
X88900000Y-108010000D01*
X78680000Y-105350000D02*
X78680000Y-108010000D01*
X88900000Y-105350000D02*
X78680000Y-105350000D01*
X91500000Y-105350000D02*
X91500000Y-106680000D01*
X90170000Y-105350000D02*
X91500000Y-105350000D01*
%TO.C,C5*%
X59556800Y-93222400D02*
X59556800Y-94480400D01*
X57716800Y-93222400D02*
X57716800Y-94480400D01*
%TO.C,R8*%
X63518800Y-98982400D02*
X63518800Y-99312400D01*
X56978800Y-96572400D02*
X56978800Y-96902400D01*
X56978800Y-99312400D02*
X56978800Y-98982400D01*
X63518800Y-99312400D02*
X56978800Y-99312400D01*
X63518800Y-96572400D02*
X56978800Y-96572400D01*
X63518800Y-96902400D02*
X63518800Y-96572400D01*
%TO.C,R12*%
X99399000Y-90710000D02*
X99399000Y-91040000D01*
X92859000Y-90710000D02*
X99399000Y-90710000D01*
X92859000Y-93450000D02*
X99399000Y-93450000D01*
X92859000Y-91040000D02*
X92859000Y-90710000D01*
X92859000Y-93120000D02*
X92859000Y-93450000D01*
X99399000Y-93450000D02*
X99399000Y-93120000D01*
%TO.C,U1*%
X90103000Y-99942000D02*
X90103000Y-81922000D01*
X79823000Y-99942000D02*
X90103000Y-99942000D01*
X79823000Y-81922000D02*
X79823000Y-99942000D01*
X82313000Y-99882000D02*
X87613000Y-99882000D01*
X87613000Y-81982000D02*
X85963000Y-81982000D01*
X82313000Y-81982000D02*
X82313000Y-99882000D01*
X83963000Y-81982000D02*
X82313000Y-81982000D01*
X87613000Y-99882000D02*
X87613000Y-81982000D01*
X90103000Y-81922000D02*
X79823000Y-81922000D01*
X83963000Y-81982000D02*
G75*
G03*
X85963000Y-81982000I1000000J0D01*
G01*
%TO.C,R9*%
X92859000Y-82277000D02*
X92859000Y-81947000D01*
X92859000Y-84357000D02*
X92859000Y-84687000D01*
X99399000Y-81947000D02*
X99399000Y-82277000D01*
X99399000Y-84687000D02*
X99399000Y-84357000D01*
X92859000Y-81947000D02*
X99399000Y-81947000D01*
X92859000Y-84687000D02*
X99399000Y-84687000D01*
%TO.C,R7*%
X92859000Y-85325000D02*
X92859000Y-84995000D01*
X92859000Y-84995000D02*
X99399000Y-84995000D01*
X92859000Y-87405000D02*
X92859000Y-87735000D01*
X99399000Y-87735000D02*
X99399000Y-87405000D01*
X92859000Y-87735000D02*
X99399000Y-87735000D01*
X99399000Y-84995000D02*
X99399000Y-85325000D01*
%TO.C,Q1*%
X74217800Y-88733000D02*
X74217800Y-92583000D01*
X74227678Y-92621611D02*
G75*
G03*
X74217800Y-88733000I1690122J1948611D01*
G01*
%TO.C,C2*%
X69047000Y-89342800D02*
X69047000Y-90600800D01*
X70887000Y-89342800D02*
X70887000Y-90600800D01*
%TO.C,D1*%
X66357800Y-88443800D02*
X68597800Y-88443800D01*
X67477800Y-84153800D02*
X67477800Y-84803800D01*
X66357800Y-89043800D02*
X68597800Y-89043800D01*
X68597800Y-84803800D02*
X66357800Y-84803800D01*
X67477800Y-89693800D02*
X67477800Y-89043800D01*
X66357800Y-88203800D02*
X68597800Y-88203800D01*
X68597800Y-89043800D02*
X68597800Y-84803800D01*
X66357800Y-88323800D02*
X68597800Y-88323800D01*
X66357800Y-84803800D02*
X66357800Y-89043800D01*
%TO.C,R4*%
X77047000Y-84741000D02*
X70507000Y-84741000D01*
X77047000Y-87151000D02*
X77047000Y-87481000D01*
X70507000Y-84741000D02*
X70507000Y-85071000D01*
X77047000Y-87481000D02*
X70507000Y-87481000D01*
X77047000Y-85071000D02*
X77047000Y-84741000D01*
X70507000Y-87481000D02*
X70507000Y-87151000D01*
%TO.C,R3*%
X92859000Y-94139000D02*
X99399000Y-94139000D01*
X99399000Y-96879000D02*
X99399000Y-96549000D01*
X99399000Y-94139000D02*
X99399000Y-94469000D01*
X92859000Y-96879000D02*
X99399000Y-96879000D01*
X92859000Y-94469000D02*
X92859000Y-94139000D01*
X92859000Y-96549000D02*
X92859000Y-96879000D01*
%TO.C,R1*%
X77174000Y-100054000D02*
X77174000Y-99724000D01*
X77174000Y-97314000D02*
X77174000Y-97644000D01*
X70634000Y-100054000D02*
X77174000Y-100054000D01*
X70634000Y-97314000D02*
X77174000Y-97314000D01*
X70634000Y-97644000D02*
X70634000Y-97314000D01*
X70634000Y-99724000D02*
X70634000Y-100054000D01*
%TO.C,R5*%
X92859000Y-99927000D02*
X99399000Y-99927000D01*
X92859000Y-99597000D02*
X92859000Y-99927000D01*
X92859000Y-97517000D02*
X92859000Y-97187000D01*
X99399000Y-99927000D02*
X99399000Y-99597000D01*
X92859000Y-97187000D02*
X99399000Y-97187000D01*
X99399000Y-97187000D02*
X99399000Y-97517000D01*
%TO.C,RV2*%
X108077000Y-103060000D02*
G75*
G03*
X113116726Y-99330799I0J5270000D01*
G01*
X104286000Y-101451000D02*
G75*
G03*
X108169030Y-103059358I3791000J3661000D01*
G01*
X113190999Y-96516000D02*
G75*
G03*
X104040379Y-94401526I-5113999J-1274000D01*
G01*
X102903001Y-96784000D02*
G75*
G03*
X102962610Y-99064881I5173999J-1006000D01*
G01*
%TO.C,R6*%
X68593800Y-100201400D02*
X68593800Y-93661400D01*
X68263800Y-100201400D02*
X68593800Y-100201400D01*
X65853800Y-93661400D02*
X66183800Y-93661400D01*
X65853800Y-100201400D02*
X65853800Y-93661400D01*
X68593800Y-93661400D02*
X68263800Y-93661400D01*
X66183800Y-100201400D02*
X65853800Y-100201400D01*
D12*
%TO.C,J1*%
X65622500Y-91030000D02*
X65622500Y-81030000D01*
X55622500Y-91030000D02*
X65622500Y-91030000D01*
X55622500Y-81030000D02*
X55622500Y-91030000D01*
X65622500Y-81030000D02*
X55622500Y-81030000D01*
D13*
X66472500Y-85030000D02*
G75*
G03*
X66472500Y-85030000I-100000J0D01*
G01*
D11*
%TO.C,C3*%
X59875800Y-94480400D02*
X59875800Y-93222400D01*
X61715800Y-94480400D02*
X61715800Y-93222400D01*
%TO.C,R11*%
X92859000Y-102975000D02*
X92859000Y-102645000D01*
X99399000Y-102645000D02*
X99399000Y-102975000D01*
X99399000Y-102975000D02*
X92859000Y-102975000D01*
X99399000Y-100235000D02*
X92859000Y-100235000D01*
X92859000Y-100235000D02*
X92859000Y-100565000D01*
X99399000Y-100565000D02*
X99399000Y-100235000D01*
%TO.C,R10*%
X70608600Y-96650600D02*
X70608600Y-96980600D01*
X70608600Y-94240600D02*
X77148600Y-94240600D01*
X77148600Y-94240600D02*
X77148600Y-94570600D01*
X70608600Y-96980600D02*
X77148600Y-96980600D01*
X70608600Y-94570600D02*
X70608600Y-94240600D01*
X77148600Y-96980600D02*
X77148600Y-96650600D01*
%TO.C,R2*%
X70507000Y-81693000D02*
X70507000Y-82023000D01*
X77047000Y-84433000D02*
X70507000Y-84433000D01*
X77047000Y-84103000D02*
X77047000Y-84433000D01*
X77047000Y-81693000D02*
X70507000Y-81693000D01*
X77047000Y-82023000D02*
X77047000Y-81693000D01*
X70507000Y-84433000D02*
X70507000Y-84103000D01*
%TO.C,C1*%
X84578000Y-100431000D02*
X85836000Y-100431000D01*
X84578000Y-102271000D02*
X85836000Y-102271000D01*
%TO.C,RV1*%
X107950000Y-91884000D02*
G75*
G03*
X112989726Y-88154799I0J5270000D01*
G01*
X113063999Y-85340000D02*
G75*
G03*
X103913379Y-83225526I-5113999J-1274000D01*
G01*
X102776001Y-85608000D02*
G75*
G03*
X102835610Y-87888881I5173999J-1006000D01*
G01*
X104159000Y-90275000D02*
G75*
G03*
X108042030Y-91883358I3791000J3661000D01*
G01*
%TD*%
M02*
